<svg width="50" height="41" viewBox="0 0 50 41" fill="none" xmlns="http://www.w3.org/2000/svg">
<path fill-rule="evenodd" clip-rule="evenodd" d="M26.501 31.3448C31.1167 31.3448 33.8981 29.0873 33.8981 25.365C33.8981 22.5508 31.9138 20.5137 28.9667 20.1909V20.0738C31.1316 19.7223 32.8307 17.7143 32.8307 15.4716C32.8307 12.2763 30.3049 10.1952 26.4561 10.1952H18.6438C18.4191 10.1952 18.2035 10.2843 18.0446 10.443C17.8857 10.6016 17.7964 10.8168 17.7964 11.0412V30.4989C17.7964 30.7232 17.8857 30.9384 18.0446 31.0971C18.2035 31.2557 18.4191 31.3448 18.6438 31.3448H26.501ZM21.1642 12.877H25.6443C28.0799 12.877 29.4629 13.9615 29.4629 15.9255C29.4629 18.0214 27.8544 19.1939 24.9375 19.1939H21.1642V12.877ZM21.1642 28.6622V21.7006L25.6138 21.7002C28.801 21.7002 30.4549 22.8727 30.4549 25.1594C30.4549 27.4457 28.846 28.6622 25.8091 28.6622H21.1642Z" fill="white"/>
<path fill-rule="evenodd" clip-rule="evenodd" d="M10.3852 0.889282C7.5322 0.889282 5.42119 3.38198 5.51568 6.08533C5.60636 8.68251 5.48856 12.0461 4.64025 14.7893C3.78941 17.5404 2.35042 19.2831 0 19.5069V22.033C2.35042 22.2568 3.78941 23.9995 4.64025 26.7507C5.48856 29.4938 5.60636 32.8574 5.51568 35.4546C5.42119 38.1575 7.5322 40.6506 10.3856 40.6506H39.6186C42.4716 40.6506 44.5822 38.1579 44.4877 35.4546C44.397 32.8574 44.5148 29.4938 45.3631 26.7507C46.2144 23.9995 47.6496 22.2568 50 22.033V19.5069C47.6496 19.2831 46.2144 17.5404 45.3631 14.7893C44.5148 12.0466 44.397 8.68251 44.4877 6.08533C44.5822 3.3824 42.4716 0.889282 39.6186 0.889282H10.3847H10.3852ZM33.8983 25.3649C33.8983 29.0873 31.1169 31.3448 26.5013 31.3448H18.6441C18.4193 31.3448 18.2038 31.2557 18.0448 31.097C17.8859 30.9384 17.7966 30.7232 17.7966 30.4988V11.0411C17.7966 10.8167 17.8859 10.6016 18.0448 10.4429C18.2038 10.2843 18.4193 10.1951 18.6441 10.1951H26.4564C30.3051 10.1951 32.8309 12.2763 32.8309 15.4715C32.8309 17.7143 31.1318 19.7222 28.9669 20.0737V20.1909C31.914 20.5136 33.8983 22.5508 33.8983 25.3649ZM25.6445 12.8769H21.1644V19.1939H24.9377C27.8547 19.1939 29.4631 18.0214 29.4631 15.9254C29.4631 13.9615 28.0801 12.8769 25.6445 12.8769ZM21.1644 21.7005V28.6622H25.8093C28.8462 28.6622 30.4551 27.4456 30.4551 25.1594C30.4551 22.8727 28.8013 21.7001 25.614 21.7001L21.1644 21.7005Z" fill="#663FEE"/>
</svg>
