<svg width="40" height="57" viewBox="0 0 40 57" fill="none" xmlns="http://www.w3.org/2000/svg">
<path d="M40 11.6356L36.3559 52.4588L19.9755 57L3.64024 52.4652L0 11.6356H40Z" fill="#264DE4"/>
<path d="M33.2361 49.8595L36.3503 14.9742H20V53.5291L33.2361 49.8595Z" fill="#2965F1"/>
<path d="M8.34497 30.1172L8.79379 35.1247H19.9998V30.1172H8.34497Z" fill="#EBEBEB"/>
<path d="M20.0007 19.9816H19.9834H7.44409L7.8993 24.9893H20.0007V19.9816Z" fill="#EBEBEB"/>
<path d="M19.9998 48.3325V43.1225L19.9779 43.1283L14.4009 41.6224L14.0444 37.6286H11.3344H9.01758L9.71914 45.4913L19.9768 48.3389L19.9998 48.3325Z" fill="#EBEBEB"/>
<path d="M9.41333 0.539917H15.4784V3.07621H11.9496V5.6125H15.4784V8.1488H9.41333V0.539917Z" fill="black"/>
<path d="M16.6921 0.539917H22.7572V2.74539H19.2284V3.18648H22.7572V8.25907H16.6921V5.94333H20.2209V5.50223H16.6921V0.539917Z" fill="black"/>
<path d="M23.97 0.539917H30.035V2.74539H26.5063V3.18648H30.035V8.25907H23.97V5.94333H27.4987V5.50223H23.97V0.539917Z" fill="black"/>
<path d="M26.1494 35.1246L25.5682 41.6191L19.9832 43.1265V48.3363L30.249 45.4911L30.3243 44.6451L31.501 31.4618L31.6232 30.1171L32.5272 19.9816H19.9832V24.9893H27.0393L26.5837 30.1171H19.9832V35.1246H26.1494Z" fill="white"/>
</svg>
