<svg width="50" height="40" viewBox="0 0 50 40" fill="none" xmlns="http://www.w3.org/2000/svg">
<path d="M49.1874 16.2526C47.9617 15.4275 44.7405 15.0751 42.3987 15.7058C42.2725 13.3733 41.0698 11.4077 38.8695 9.69265L38.055 9.14588L37.5122 9.96571C36.4451 11.5855 35.9955 13.7435 36.1548 15.7052C36.2804 16.9138 36.7009 18.2724 37.5122 19.2582C34.4642 21.0261 31.655 20.6248 19.2134 20.6248H0.0043125C-0.0518855 23.434 0.399682 28.8383 3.83635 33.2376C4.21585 33.7236 4.63238 34.1936 5.08395 34.6465C7.87798 37.4445 12.0994 39.4961 18.4121 39.502C28.0425 39.5106 36.2936 34.3054 41.3125 21.719C42.964 21.7461 47.3237 22.0152 49.4572 17.8923C49.5094 17.8228 50 16.7987 50 16.7987L49.1868 16.2519L49.1874 16.2526ZM12.5404 13.6834H7.13881V19.085H12.5404V13.6834ZM19.5189 13.6834H14.1173V19.085H19.5189V13.6834ZM26.4974 13.6834H21.0957V19.085H26.4974V13.6834ZM33.4758 13.6834H28.0742V19.085H33.4758V13.6834ZM5.56196 13.6834H0.160344V19.085H5.56196V13.6834ZM12.5404 6.86093H7.13881V12.2626H12.5404V6.86093ZM19.5189 6.86093H14.1173V12.2626H19.5189V6.86093ZM26.4974 6.86093H21.0957V12.2626H26.4974V6.86093ZM26.4974 0.0378418H21.0957V5.43946H26.4974V0.0378418Z" fill="#1D63ED"/>
</svg>
