<svg width="50" height="51" viewBox="0 0 50 51" fill="none" xmlns="http://www.w3.org/2000/svg">
<mask id="mask0_17_897" style="mask-type:luminance" maskUnits="userSpaceOnUse" x="0" y="0" width="50" height="51">
<path d="M0 0.769958H50V50.77H0V0.769958Z" fill="white"/>
</mask>
<g mask="url(#mask0_17_897)">
<path d="M49.0581 23.5435L27.2269 1.714C26.9278 1.41476 26.5727 1.17737 26.1819 1.01541C25.7911 0.853444 25.3722 0.770081 24.9491 0.770081C24.526 0.770081 24.1071 0.853444 23.7163 1.01541C23.3254 1.17737 22.9704 1.41476 22.6713 1.714L18.1396 6.24783L23.8891 11.9973C24.565 11.7677 25.2917 11.7319 25.987 11.8938C26.6823 12.0558 27.3183 12.409 27.8233 12.9136C28.331 13.4219 28.6855 14.0628 28.8461 14.7631C29.0067 15.4633 28.967 16.1946 28.7315 16.8734L34.2747 22.415C34.9536 22.1792 35.6852 22.1395 36.3857 22.3004C37.0861 22.4613 37.727 22.8163 38.235 23.3248C38.5908 23.6805 38.873 24.1029 39.0656 24.5677C39.2581 25.0325 39.3572 25.5307 39.3572 26.0338C39.3572 26.5369 39.2581 27.0351 39.0656 27.5C38.873 27.9648 38.5908 28.3871 38.235 28.7429C37.5157 29.4614 36.5405 29.865 35.5238 29.865C34.507 29.865 33.5319 29.4614 32.8126 28.7429C32.2782 28.2076 31.9141 27.5263 31.7662 26.7846C31.6182 26.0429 31.693 25.274 31.9811 24.5747L26.8117 19.4069V33.009C27.3573 33.2785 27.8309 33.6741 28.1932 34.1631C28.5554 34.6521 28.796 35.2204 28.8949 35.8208C28.9939 36.4213 28.9483 37.0367 28.762 37.6161C28.5758 38.1954 28.2541 38.7221 27.8238 39.1524C27.4681 39.5082 27.0458 39.7904 26.5809 39.983C26.1161 40.1755 25.6179 40.2746 25.1148 40.2746C24.6117 40.2746 24.1135 40.1755 23.6486 39.983C23.1838 39.7904 22.7615 39.5082 22.4058 39.1524C22.0499 38.7966 21.7676 38.3743 21.575 37.9094C21.3823 37.4445 21.2832 36.9463 21.2832 36.4431C21.2832 35.9399 21.3823 35.4416 21.575 34.9767C21.7676 34.5119 22.0499 34.0895 22.4058 33.7338C22.7642 33.3745 23.1903 33.0899 23.6595 32.8963V19.1691C23.1923 18.9767 22.7677 18.6939 22.4101 18.3368C22.0526 17.9798 21.7691 17.5557 21.5759 17.0888C21.3828 16.6219 21.2838 16.1214 21.2846 15.6162C21.2855 15.1109 21.3861 14.6107 21.5808 14.1445L15.9119 8.47448L0.941343 23.4412C0.338078 24.0457 -0.000732422 24.8648 -0.000732422 25.7188C-0.000732422 26.5727 0.338078 27.3918 0.941343 27.9963L22.7736 49.8285C23.378 50.4316 24.197 50.7703 25.0508 50.7703C25.9047 50.7703 26.7237 50.4316 27.3281 49.8285L49.0581 28.0986C49.6613 27.4941 50.0001 26.675 50.0001 25.8211C50.0001 24.9671 49.6613 24.148 49.0581 23.5435Z" fill="#F03C2E"/>
</g>
</svg>
