<svg width="40" height="57" viewBox="0 0 40 57" fill="none" xmlns="http://www.w3.org/2000/svg">
<path d="M3.64024 52.4652L0 11.6356H40L36.3559 52.4588L19.9755 57L3.64024 52.4652Z" fill="#E44D26"/>
<path d="M20 53.529L33.2361 49.8595L36.3503 14.9742H20V53.529Z" fill="#F16529"/>
<path d="M20 30.1171H13.3737L12.916 24.9893H20V19.9816H19.9827H7.44336L7.56323 21.3251L8.79399 35.1246H20V30.1171Z" fill="#EBEBEB"/>
<path d="M20.0006 43.1223L19.9786 43.1281L14.4016 41.6222L14.0451 37.6284H11.3352H9.01831L9.71987 45.4911L19.9775 48.3387L20.0006 48.3323V43.1223Z" fill="#EBEBEB"/>
<path d="M3.72192 0.539917H6.26671V3.05416H8.59458V0.539917H11.1395V8.15365H8.5947V5.60412H6.26682V8.15365H3.72203L3.72192 0.539917Z" fill="white"/>
<path d="M14.4857 3.06474H12.2454V0.539917H19.272V3.06474H17.0307V8.15365H14.4858L14.4857 3.06474Z" fill="white"/>
<path d="M20.3875 0.539917H23.041L24.6732 3.21516L26.3039 0.539917H28.9584V8.15365H26.4241V4.37987L24.6732 7.08697H24.6295L22.8774 4.37987V8.15365H20.3875V0.539917Z" fill="white"/>
<path d="M30.2246 0.539917H32.7702V5.63698H36.3489V8.15365H30.2246V0.539917Z" fill="white"/>
<path d="M19.9832 30.1172V35.1247H26.1494L25.5682 41.6192L19.9832 43.1266V48.3364L30.249 45.4912L30.3243 44.6452L31.501 31.4619L31.6232 30.1172H30.2738H19.9832Z" fill="white"/>
<path d="M19.9832 19.9816V23.0918V24.977V24.9893H32.0628H32.0788L32.1793 23.8637L32.4075 21.3251L32.5272 19.9816H19.9832Z" fill="white"/>
</svg>
