<svg width="40" height="57" viewBox="0 0 40 57" fill="none" xmlns="http://www.w3.org/2000/svg">
<path d="M3.71304 52.4712L0 12.1196L40 12.1348L36.3178 52.4407L19.9687 57L3.71304 52.4721V52.4712ZM33.3075 50.2691L36.4123 15.7081H20.0313L20.1557 53.8263L33.3065 50.2682L33.3075 50.2691ZM18.5025 20.7755H14.5244L14.4772 41.46L6.75519 39.3807L6.77061 44.1093L18.5025 47.2354V20.7755Z" fill="#D4B830"/>
<path opacity="0.99" d="M17.1915 46.849C16.6768 46.6949 14.134 46.0173 11.5439 45.3245L6.84766 44.0769V41.7512C6.84766 39.472 6.84766 39.4254 7.08189 39.5025C7.20624 39.5491 8.92299 40.0107 10.8884 40.5502L14.4607 41.5209L14.4916 31.2015L14.5224 20.8821H18.4225V34.004C18.4225 44.4309 18.3916 47.1259 18.2817 47.1259C18.2037 47.1107 17.7043 46.987 17.1896 46.849H17.1915Z" fill="black"/>
<path opacity="0.99" d="M6.77055 44.1084L6.75513 39.3798C6.75513 39.3798 11.6846 40.7501 14.4771 41.4591L14.5244 20.7908H18.5025V47.2354L6.77055 44.1093V44.1084Z" fill="white"/>
<path fill-rule="evenodd" clip-rule="evenodd" d="M33.5418 31.5394L32.4651 44.4615V44.4625L21.6855 47.2345L21.6074 42.5525L29.4075 40.5037L29.5164 36.6839L21.779 37.9933L21.6074 20.8365L34.4151 20.7747L34.0719 25.4871L25.5855 25.5176V32.4178L33.5418 31.5394Z" fill="white"/>
<path d="M20.0312 15.692H36.4122L33.3074 50.253L20.1503 53.8359L20.0312 15.693V15.692ZM32.4649 44.4614L33.5416 31.5394L25.5854 32.4177V25.5175L34.0718 25.4871L34.4149 20.7746L21.6073 20.8365L21.7788 37.9933L29.5163 36.6838L29.4074 40.5036L21.6073 42.5525L21.6853 47.2345L32.4649 44.4624V44.4614Z" fill="#FDD83C"/>
<path fill-rule="evenodd" clip-rule="evenodd" d="M19.2482 6.18144V0.539978H16.5414L16.5414 6.18144L12.9324 6.18144L12.9324 8.55674L19.2482 8.55674L19.2482 8.55663L19.2482 6.18144Z" fill="black"/>
<path d="M20.5776 0.539978H26.9619V2.8319H23.2474V3.29028H26.9619V8.56169H20.5776V6.15518H24.2921V5.69679H20.5776V0.539978Z" fill="black"/>
</svg>
