<svg width="50" height="52" viewBox="0 0 50 52" fill="none" xmlns="http://www.w3.org/2000/svg">
<path d="M49.9631 11.7054C49.9576 11.6814 49.9428 11.6612 49.9354 11.6372C49.9188 11.5949 49.9059 11.5507 49.8838 11.512C49.869 11.4862 49.8469 11.4642 49.8284 11.4402C49.8044 11.4089 49.7841 11.3739 49.7565 11.3463C49.7325 11.3224 49.7029 11.3058 49.6771 11.2855C49.6476 11.2616 49.6218 11.2358 49.5886 11.2174L39.9114 5.65657C39.6624 5.51294 39.3561 5.51294 39.107 5.65657L29.4299 11.2174C29.3967 11.2358 29.3708 11.2634 29.3413 11.2855C29.3155 11.3058 29.286 11.3224 29.262 11.3463C29.2343 11.3739 29.214 11.4089 29.19 11.4402C29.1716 11.4642 29.1494 11.4862 29.1347 11.512C29.1125 11.5507 29.0978 11.5949 29.083 11.6372C29.0738 11.6593 29.0609 11.6814 29.0553 11.7054C29.0369 11.7735 29.0277 11.8435 29.0277 11.9153V22.4772L20.9631 27.1119V6.44834C20.9631 6.37653 20.9539 6.30656 20.9354 6.23843C20.9299 6.21449 20.9151 6.19424 20.9077 6.1703C20.8911 6.12795 20.8782 6.08376 20.8561 6.04509C20.8413 6.01931 20.8192 5.99721 20.8007 5.97328C20.7768 5.94197 20.7565 5.90699 20.7288 5.87937C20.7048 5.85543 20.6753 5.83886 20.6494 5.8186C20.6199 5.79467 20.5941 5.76889 20.5609 5.75047L10.8838 0.189628C10.6347 0.0460031 10.3284 0.0460031 10.0793 0.189628L0.402214 5.75047C0.369004 5.76889 0.343173 5.79651 0.313653 5.8186C0.287822 5.83886 0.258302 5.85543 0.234317 5.87937C0.206641 5.90699 0.186346 5.94197 0.162361 5.97328C0.143911 5.99721 0.121772 6.01931 0.107011 6.04509C0.0848712 6.08376 0.0701099 6.12795 0.0553497 6.1703C0.0461246 6.1924 0.0332106 6.21449 0.0276756 6.23843C0.00922537 6.30656 0 6.37653 0 6.44834V39.5299C0 39.8171 0.154981 40.0841 0.404058 40.2277L19.7601 51.3494C19.8026 51.3734 19.8487 51.3881 19.893 51.4047C19.9133 51.412 19.9336 51.4249 19.9557 51.4304C20.024 51.4489 20.0923 51.4581 20.1624 51.4581C20.2325 51.4581 20.3007 51.4489 20.369 51.4304C20.3875 51.4249 20.4041 51.4139 20.4225 51.4083C20.4705 51.3918 20.5184 51.3752 20.5627 51.3513L39.9188 40.2296C40.1697 40.0859 40.3229 39.8208 40.3229 39.5317V28.9698L49.5959 23.6409C49.8469 23.4973 50 23.2322 50 22.9431V11.9153C49.9908 11.8435 49.9797 11.7735 49.9631 11.7054ZM20.1476 38.6037L12.0978 34.0574L20.5517 29.1999L29.8266 23.8711L37.8838 28.5002L31.9723 31.868L20.1476 38.6037ZM38.6993 17.942V27.1119L35.3118 25.1656L30.6328 22.4772V13.3073L34.0203 15.2536L38.6993 17.942ZM39.5055 7.28247L47.5664 11.9153L39.5055 16.5481L31.4447 11.9153L39.5055 7.28247ZM14.6661 30.7264L11.2786 32.6727V12.475L15.9576 9.78669L19.345 7.84039V28.0362L14.6661 30.7264ZM10.4723 1.81737L18.5332 6.45018L10.4723 11.083L2.41144 6.45018L10.4723 1.81737ZM1.59963 7.84039L4.98708 9.78669L9.66605 12.475V34.0629V34.0648V34.0666C9.66605 34.0979 9.67527 34.1274 9.67896 34.1568C9.6845 34.1955 9.6845 34.236 9.69557 34.2747V34.2765C9.7048 34.3078 9.7214 34.3373 9.73432 34.3667C9.74908 34.3999 9.7583 34.4367 9.77675 34.468C9.77675 34.468 9.77675 34.4699 9.7786 34.4699C9.7952 34.4975 9.81919 34.5214 9.83948 34.5472C9.86162 34.5767 9.88007 34.6061 9.9059 34.6319L9.90775 34.6337C9.92989 34.6558 9.95941 34.6724 9.98524 34.6927C10.0148 34.7148 10.0406 34.7405 10.072 34.7589C10.0738 34.7589 10.0738 34.7589 10.0756 34.7608C10.0775 34.7608 10.0775 34.7626 10.0793 34.7626L19.3487 39.9976V49.2577L1.59963 39.064V7.84039ZM38.6993 39.064L20.9557 49.2595V39.9976L34.0959 32.5107L38.6993 29.8886V39.064ZM48.3764 22.4772L40.3118 27.1119V17.942L44.9908 15.2536L48.3782 13.3073V22.4772H48.3764Z" fill="#FF2D20"/>
</svg>
