<svg width="70" height="54" viewBox="0 0 70 54" fill="none" xmlns="http://www.w3.org/2000/svg">
<path d="M60.2427 30.6943C57.7968 30.7071 55.6767 31.2952 53.9004 32.1711C53.2512 30.8733 52.5931 29.7327 52.4832 28.8837C52.3542 27.8928 52.2046 27.3021 52.3605 26.1219C52.5164 24.9417 53.1989 23.2705 53.1886 23.1452C53.1784 23.0199 53.0353 22.4189 51.6245 22.4087C50.2137 22.3985 49.006 22.6798 48.8642 23.0531C48.7224 23.4265 48.4502 24.2653 48.2815 25.1399C48.0348 26.4198 45.4637 30.9858 44.0043 33.3756C43.5277 32.4435 43.1213 31.6213 43.0369 30.9718C42.9079 29.9808 42.7584 29.3901 42.9143 28.2099C43.0702 27.0297 43.7526 25.3585 43.7423 25.2332C43.7321 25.1079 43.589 24.507 42.1782 24.4967C40.7674 24.4865 39.5598 24.7678 39.4179 25.1412C39.2761 25.5145 39.124 26.3853 38.8352 27.2279C38.5464 28.0705 35.1293 35.6874 34.2347 37.6616C33.7785 38.6679 33.3824 39.476 33.1012 40.0271L33.1 40.0245C33.1 40.0245 33.0833 40.0616 33.0527 40.123C32.8124 40.5922 32.6706 40.8531 32.6706 40.8531C32.6706 40.8531 32.6719 40.8569 32.6744 40.8633C32.484 41.2085 32.2808 41.5282 32.1799 41.5282C32.1096 41.5282 31.9677 40.6101 32.2105 39.3494C32.7191 36.7077 33.9408 32.5867 33.928 32.4447C33.9216 32.3719 34.1555 31.6545 33.1306 31.2786C32.1351 30.9142 31.7799 31.5228 31.6891 31.5241C31.601 31.5254 31.5358 31.7389 31.5358 31.7389C31.5358 31.7389 32.645 27.1051 29.4196 27.1051C27.4031 27.1051 24.6083 29.3121 23.232 31.3131C22.363 31.7875 20.5049 32.8028 18.5318 33.887C17.774 34.3039 17.0009 34.7284 16.2687 35.1337C16.2188 35.0787 16.169 35.0238 16.1179 34.9688C12.2062 30.794 4.97581 27.8404 5.28251 22.2271C5.39369 20.1864 6.10293 14.8136 19.1759 8.29508C29.8847 2.95548 38.4582 4.42463 39.9393 7.68133C42.0555 12.333 35.358 20.9805 24.2364 22.2271C19.9989 22.7028 17.7676 21.0597 17.213 20.4473C16.629 19.8028 16.5421 19.7734 16.3236 19.8949C15.9684 20.0918 16.1933 20.6608 16.3236 20.9996C16.6559 21.864 18.0181 23.3971 20.3413 24.1604C22.3847 24.8317 27.3596 25.2 33.376 22.8716C40.1144 20.2631 45.3755 13.0094 43.8305 6.94483C42.2587 0.775394 32.038 -1.25253 22.3655 2.18573C16.6086 4.23156 10.3762 7.4435 5.8959 11.6374C0.568316 16.6241 -0.281491 20.9638 0.0686555 22.777C1.31206 29.22 10.1884 33.4165 13.7422 36.5262C13.5672 36.6233 13.4023 36.7141 13.2528 36.796C11.4714 37.6782 4.7049 41.22 3.01295 44.9639C1.09354 49.2103 3.31837 52.256 4.79179 52.6664C9.35647 53.9374 14.04 51.6512 16.5575 47.8945C19.0737 44.1392 18.767 39.2484 17.6117 37.0159C17.5977 36.9878 17.5811 36.9609 17.567 36.934C18.0271 36.6617 18.4961 36.3842 18.9612 36.1119C19.8685 35.5787 20.7579 35.0826 21.5311 34.6619C21.0991 35.8472 20.7822 37.2678 20.6174 39.3187C20.4244 41.7289 21.411 44.8437 22.7029 46.0699C23.2716 46.6095 23.9565 46.6223 24.3898 46.6223C25.8926 46.6223 26.5788 45.3705 27.334 43.8911C28.2605 42.0755 29.0822 39.9631 29.0822 39.9631C29.0822 39.9631 28.051 45.671 30.8611 45.671C31.8847 45.671 32.9147 44.3425 33.3734 43.6648C33.3734 43.6725 33.376 43.6763 33.376 43.6763C33.376 43.6763 33.4028 43.6328 33.4552 43.5433C33.5613 43.381 33.6213 43.2774 33.6213 43.2774C33.6213 43.2774 33.6239 43.2672 33.6265 43.248C34.0379 42.5332 34.9504 40.9029 36.3203 38.214C38.0889 34.7399 39.786 30.3887 39.786 30.3887C39.786 30.3887 39.9444 31.4525 40.4607 33.2119C40.7648 34.2476 41.4115 35.392 41.9201 36.4891C41.5099 37.0594 41.2581 37.3854 41.2581 37.3854C41.2581 37.3854 41.2607 37.3918 41.2645 37.402C40.9361 37.838 40.5693 38.3073 40.1847 38.7663C38.7892 40.4298 37.1254 42.3299 36.903 42.8784C36.641 43.5242 36.7024 43.9998 37.2097 44.3821C37.5803 44.6609 38.2397 44.7043 38.9272 44.6583C40.1821 44.5739 41.0651 44.2632 41.4996 44.0727C42.1782 43.8323 42.9692 43.4551 43.7117 42.9091C45.0816 41.9016 45.9071 40.4605 45.8279 38.5515C45.7844 37.4992 45.4484 36.4571 45.0241 35.4726C45.148 35.2936 45.2733 35.1133 45.3985 34.9304C47.5582 31.7722 49.2322 28.302 49.2322 28.302C49.2322 28.302 49.3907 29.3658 49.907 31.1252C50.1689 32.0151 50.6852 32.9869 51.1491 33.9395C49.1185 35.5902 47.8598 37.5082 47.4227 38.7663C46.6151 41.0935 47.2476 42.1471 48.4348 42.3874C48.9728 42.4961 49.7319 42.2494 50.3031 42.0077C51.0136 41.7711 51.8686 41.3786 52.6672 40.7917C54.0372 39.7841 55.3534 38.3738 55.2742 36.4648C55.2384 35.5953 55.002 34.7335 54.6825 33.9049C56.4038 33.1876 58.6312 32.7887 61.4695 33.1199C67.5574 33.8308 68.7522 37.6347 68.5235 39.2266C68.2947 40.8186 67.0181 41.6931 66.5913 41.9578C66.1645 42.2225 66.0341 42.3133 66.0699 42.5102C66.1223 42.7953 66.3191 42.7851 66.6833 42.7237C67.1842 42.6393 69.8806 41.4285 69.9956 38.4902C70.1426 34.7591 66.5696 30.6623 60.2427 30.6956V30.6943ZM13.3167 46.5238C11.3002 48.7244 8.48238 49.5568 7.27476 48.8561C5.97002 48.0991 6.4863 44.8591 8.9616 42.523C10.4695 41.0999 12.4171 39.788 13.709 38.9811C14.0029 38.8047 14.4349 38.5439 14.9601 38.2293C15.047 38.1794 15.0955 38.1526 15.0955 38.1526L15.093 38.1488C15.1939 38.0887 15.2975 38.026 15.4048 37.9621C16.3057 41.2865 15.4316 44.2133 13.3154 46.5238H13.3167ZM28.0075 36.5313C27.3047 38.2447 25.8351 42.6278 24.9405 42.3926C24.1725 42.1905 23.7048 38.8597 24.7872 35.58C25.3316 33.9292 26.4957 31.9576 27.1794 31.1917C28.2797 29.9603 29.4924 29.5563 29.7863 30.0562C30.1621 30.693 28.4484 35.4572 28.0075 36.5313ZM40.145 42.3261C39.8473 42.4821 39.5738 42.5792 39.4473 42.5038C39.354 42.4488 39.57 42.243 39.57 42.243C39.57 42.243 41.0881 40.6089 41.6862 39.8647C42.0338 39.4325 42.4376 38.9185 42.8772 38.3444C42.881 38.4019 42.8823 38.4582 42.8823 38.5144C42.8772 40.472 40.9872 41.7942 40.145 42.3261ZM49.4942 40.1933C49.2718 40.0347 49.3089 39.5246 50.0399 37.9314C50.3261 37.3061 50.9804 36.2538 52.1177 35.2475C52.2494 35.6618 52.3299 36.0582 52.3273 36.4277C52.312 38.8916 50.5561 39.811 49.4942 40.1933Z" fill="#CD6799"/>
</svg>
