<svg width="70" height="43" viewBox="0 0 70 43" fill="none" xmlns="http://www.w3.org/2000/svg">
<path fill-rule="evenodd" clip-rule="evenodd" d="M35.0021 0.694702C25.6678 0.694702 19.8341 5.37763 17.501 14.7456C21.0017 10.0627 25.084 8.30709 29.7501 9.47677C32.4128 10.1449 34.3175 12.0817 36.4238 14.2292C39.8551 17.7256 43.8261 21.77 52.4989 21.77C61.8333 21.77 67.6669 17.087 70 7.7212C66.5015 12.4041 62.4191 14.1597 57.7509 12.99C55.0861 12.3198 53.1835 10.383 51.0773 8.23754C47.648 4.73905 43.6791 0.694702 35.0021 0.694702ZM17.501 21.77C8.16674 21.77 2.33095 26.4529 0 35.8209C3.50063 31.1379 7.58505 29.3802 12.2491 30.552C14.9139 31.218 16.8165 33.1569 18.9227 35.3045C22.3541 38.8009 26.3251 42.8452 35.0021 42.8452C44.3343 42.8452 50.168 38.1623 52.501 28.7965C49.0004 33.4794 44.9181 35.235 40.252 34.0653C37.5892 33.3972 35.6846 31.4562 33.5804 29.3128C30.147 25.8164 26.1718 21.77 17.501 21.77Z" fill="#00BCFF"/>
</svg>
