<svg width="50" height="49" viewBox="0 0 50 49" fill="none" xmlns="http://www.w3.org/2000/svg">
<path d="M8.85417 0.0524902H41.1458C46.0417 0.0524902 50 4.01082 50 8.90666V39.9483C50 44.8442 46.0417 48.8025 41.1458 48.8025H8.85417C3.95833 48.8025 0 44.8442 0 39.9483V8.90666C0 4.01082 3.95833 0.0524902 8.85417 0.0524902Z" fill="#001E36"/>
<path d="M11.25 34.2399V12.8024C11.25 12.6566 11.3125 12.5732 11.4583 12.5732C11.8125 12.5732 12.1458 12.5732 12.625 12.5524C13.125 12.5316 13.6458 12.5316 14.2083 12.5107C14.7708 12.4899 15.375 12.4899 16.0208 12.4691C16.6667 12.4482 17.2917 12.4482 17.9167 12.4482C19.625 12.4482 21.0417 12.6566 22.2083 13.0941C23.25 13.4482 24.2083 14.0316 25 14.8024C25.6667 15.4691 26.1875 16.2816 26.5208 17.1774C26.8333 18.0524 27 18.9482 27 19.8857C27 21.6774 26.5833 23.1566 25.75 24.3232C24.9167 25.4899 23.75 26.3649 22.3958 26.8649C20.9792 27.3857 19.4167 27.5732 17.7083 27.5732C17.2083 27.5732 16.875 27.5732 16.6667 27.5524C16.4583 27.5316 16.1667 27.5316 15.7708 27.5316V34.2191C15.7917 34.3649 15.6875 34.4899 15.5417 34.5107C15.5208 34.5107 15.5 34.5107 15.4583 34.5107H11.5C11.3333 34.5107 11.25 34.4274 11.25 34.2399ZM15.7917 16.5941V23.5941C16.0833 23.6149 16.3542 23.6357 16.6042 23.6357H17.7083C18.5208 23.6357 19.3333 23.5107 20.1042 23.2607C20.7708 23.0732 21.3542 22.6774 21.8125 22.1566C22.25 21.6357 22.4583 20.9274 22.4583 20.0107C22.4792 19.3649 22.3125 18.7191 21.9792 18.1566C21.625 17.6149 21.125 17.1982 20.5208 16.9691C19.75 16.6566 18.9167 16.5316 18.0625 16.5524C17.5208 16.5524 17.0417 16.5524 16.6458 16.5732C16.2292 16.5524 15.9375 16.5732 15.7917 16.5941Z" fill="#31A8FF"/>
<path d="M40 22.3233C39.375 21.99 38.7084 21.7608 38 21.615C37.2292 21.4483 36.4584 21.3442 35.6667 21.3442C35.25 21.3233 34.8125 21.3858 34.4167 21.49C34.1459 21.5525 33.9167 21.6983 33.7709 21.9067C33.6667 22.0733 33.6042 22.2817 33.6042 22.4692C33.6042 22.6567 33.6876 22.8442 33.8126 23.0108C34.0001 23.24 34.25 23.4275 34.5209 23.5733C35 23.8233 35.5001 24.0525 36.0001 24.2608C37.1251 24.6358 38.2084 25.1567 39.2084 25.7817C39.8959 26.2192 40.4584 26.8025 40.8542 27.5108C41.1876 28.1775 41.3542 28.9067 41.3334 29.6567C41.3542 30.6358 41.0625 31.615 40.5209 32.4275C39.9375 33.2608 39.125 33.9067 38.1875 34.2817C37.1667 34.7192 35.9167 34.9483 34.4167 34.9483C33.4584 34.9483 32.5209 34.865 31.5834 34.6775C30.8542 34.5525 30.125 34.3233 29.4584 34.0108C29.3125 33.9275 29.2084 33.7817 29.2292 33.615V29.99C29.2292 29.9275 29.25 29.8442 29.3125 29.8025C29.375 29.7608 29.4376 29.7817 29.5001 29.8233C30.3126 30.3025 31.1667 30.6358 32.0834 30.8442C32.875 31.0525 33.7084 31.1567 34.5417 31.1567C35.3334 31.1567 35.8959 31.0525 36.2709 30.865C36.6042 30.7192 36.8334 30.365 36.8334 29.99C36.8334 29.6983 36.6667 29.4275 36.3334 29.1567C36 28.8858 35.3126 28.5733 34.2917 28.1775C33.2292 27.8025 32.25 27.3025 31.3334 26.6775C30.6875 26.2192 30.1459 25.615 29.7501 24.9067C29.4167 24.24 29.25 23.5108 29.2709 22.7817C29.2709 21.8858 29.5209 21.0317 29.9792 20.2608C30.5 19.4275 31.2709 18.7608 32.1667 18.3442C33.1459 17.8442 34.3751 17.615 35.8542 17.615C36.7084 17.615 37.5834 17.6775 38.4375 17.8025C39.0625 17.8858 39.6667 18.0525 40.2292 18.2817C40.3126 18.3025 40.3959 18.3858 40.4376 18.4692C40.4584 18.5525 40.4792 18.6358 40.4792 18.7192V22.115C40.4792 22.1983 40.4375 22.2817 40.375 22.3233C40.1875 22.365 40.0834 22.365 40 22.3233Z" fill="#31A8FF"/>
</svg>
