<svg width="50" height="49" viewBox="0 0 50 49" fill="none" xmlns="http://www.w3.org/2000/svg">
<path d="M8.85417 0.0524902H41.1458C46.0417 0.0524902 50 4.01082 50 8.90666V39.9483C50 44.8442 46.0417 48.8025 41.1458 48.8025H8.85417C3.95833 48.8025 0 44.8442 0 39.9483V8.90666C0 4.01082 3.95833 0.0524902 8.85417 0.0524902Z" fill="#00005B"/>
<path d="M20.0834 29.2191H12.3334L10.75 34.1358C10.7084 34.3233 10.5417 34.4483 10.3542 34.4275H6.43754C6.20837 34.4275 6.14587 34.3025 6.20837 34.0525L12.9167 14.8233C12.9792 14.6149 13.0417 14.4275 13.125 14.1775C13.2084 13.74 13.25 13.2816 13.25 12.8233C13.2292 12.7191 13.3125 12.6149 13.4167 12.5941H13.4792H18.8125C18.9584 12.5941 19.0625 12.6566 19.0834 12.7608L26.6875 34.0108C26.75 34.24 26.6875 34.3441 26.4792 34.3441H22.125C21.9792 34.365 21.8334 34.2608 21.7917 34.115L20.0834 29.115V29.2191ZM13.5417 25.0733H18.8334C18.7084 24.6358 18.5417 24.115 18.3542 23.5733C18.1667 23.0108 17.9792 22.4066 17.7917 21.7816C17.5834 21.1358 17.3959 20.5108 17.1875 19.8649C16.9792 19.2191 16.7917 18.6149 16.625 18.0108C16.4584 17.4274 16.3125 16.8858 16.1667 16.3858H16.125C15.9375 17.2816 15.7084 18.1775 15.4167 19.0733C15.1042 20.0733 14.7917 21.1149 14.4584 22.1566C14.1875 23.2191 13.8542 24.1983 13.5417 25.0733Z" fill="#9999FF"/>
<path d="M38.9585 27.3441H32.3543C32.4377 27.9899 32.646 28.6358 33.0002 29.1983C33.3752 29.7608 33.896 30.1983 34.521 30.4483C35.3543 30.8024 36.271 30.9899 37.1877 30.9691C37.9168 30.9483 38.646 30.8858 39.3543 30.7399C40.0002 30.6566 40.6252 30.4899 41.2085 30.2608C41.3127 30.1774 41.3752 30.2191 41.3752 30.4274V33.6149C41.3752 33.6983 41.3543 33.7816 41.3335 33.8649C41.2918 33.9274 41.2502 33.9691 41.1877 34.0108C40.521 34.3024 39.8335 34.5108 39.1043 34.6358C38.1252 34.8233 37.146 34.9066 36.146 34.8858C34.5627 34.8858 33.2293 34.6358 32.146 34.1566C31.1252 33.7191 30.2293 33.0316 29.521 32.1774C28.8543 31.3649 28.3752 30.4483 28.0835 29.4483C27.7918 28.4691 27.646 27.4483 27.646 26.4066C27.646 25.2816 27.8127 24.1774 28.1668 23.0941C28.5002 22.0524 29.021 21.0941 29.7293 20.2399C30.4168 19.4066 31.271 18.7399 32.2502 18.2608C33.2293 17.7816 34.396 17.6149 35.7293 17.6149C36.8335 17.5941 37.9377 17.8024 38.9585 18.2608C39.8127 18.6358 40.5627 19.1983 41.146 19.9274C41.6877 20.6358 42.1252 21.4274 42.396 22.3024C42.6668 23.1358 42.7918 23.9899 42.7918 24.8441C42.7918 25.3441 42.771 25.7816 42.7502 26.1774C42.7085 26.5733 42.6877 26.8649 42.6668 27.0524C42.646 27.1983 42.521 27.3233 42.3752 27.3233C42.2502 27.3233 42.021 27.3441 41.6877 27.3649C41.3543 27.4066 40.9585 27.4274 40.4793 27.4274C40.0002 27.4274 39.5002 27.3441 38.9585 27.3441ZM32.3543 24.3024H36.7502C37.2918 24.3024 37.6877 24.3024 37.9377 24.2816C38.1043 24.2608 38.271 24.2191 38.4168 24.1149V23.9066C38.4168 23.6358 38.3752 23.3858 38.2918 23.1358C37.9168 21.9691 36.8127 21.1774 35.5835 21.2191C34.4377 21.1566 33.3543 21.7608 32.8127 22.8024C32.5627 23.2816 32.4168 23.7816 32.3543 24.3024Z" fill="#9999FF"/>
</svg>
