<svg width="50" height="49" viewBox="0 0 50 49" fill="none" xmlns="http://www.w3.org/2000/svg">
<path d="M8.85417 0.0524902H41.1458C46.0417 0.0524902 50 4.01082 50 8.90666V39.9483C50 44.8442 46.0417 48.8025 41.1458 48.8025H8.85417C3.95833 48.8025 0 44.8442 0 39.9483V8.90666C0 4.01082 3.95833 0.0524902 8.85417 0.0524902Z" fill="#00005B"/>
<path d="M7.04176 12.74C7.06259 12.615 7.16676 12.5317 7.29176 12.5317H13.1459C13.3126 12.5109 13.4584 12.615 13.5001 12.7609C13.6459 13.3442 13.8334 14.0317 14.0418 14.865C14.2501 15.6775 14.4793 16.5734 14.7293 17.5734C14.9793 18.5525 15.2293 19.5734 15.4793 20.5942C15.7293 21.615 15.9793 22.615 16.2293 23.5942C16.4793 24.5734 16.6876 25.4692 16.8543 26.2817C17.0209 27.0942 17.1668 27.7817 17.2709 28.3025H17.3126C17.3959 27.8234 17.5418 27.1984 17.7501 26.4275C17.9584 25.6359 18.2084 24.7609 18.4793 23.8025C18.7501 22.8234 19.0418 21.8234 19.3334 20.8025C19.6251 19.7817 19.8959 18.7609 20.1876 17.74C20.4584 16.74 20.7293 15.8025 20.9584 14.9484C21.2084 14.0942 21.3959 13.365 21.5418 12.7817C21.5626 12.6359 21.6876 12.5317 21.8334 12.5525H27.5418C27.6876 12.5317 27.8126 12.6359 27.8334 12.7609V12.7817L28.6043 34.2192C28.6251 34.3025 28.6043 34.3859 28.5626 34.4275C28.5001 34.49 28.4376 34.5109 28.3543 34.5109H24.2084C24.1459 34.5109 24.1043 34.49 24.0418 34.4692C24.0001 34.4275 23.9793 34.3442 23.9793 34.2817C23.9793 33.1359 23.9793 31.9484 23.9584 30.6984C23.9376 29.4484 23.9376 28.1984 23.9168 26.9275C23.8959 25.6567 23.8959 24.4484 23.9168 23.2817C23.9376 22.115 23.9584 21.0525 23.9584 20.0525C23.9584 19.0734 23.9584 18.2192 23.9793 17.49C24.0001 16.7609 24.0001 16.2192 24.0001 15.865H23.9584C23.8334 16.4275 23.6668 17.1567 23.4584 18.0525C23.2501 18.9484 23.0001 19.9692 22.7084 21.115C22.4168 22.24 22.1043 23.4067 21.7918 24.615C21.4584 25.8234 21.1459 27.0109 20.8334 28.1984C20.5209 29.3859 20.2293 30.49 19.9376 31.5109C19.6459 32.5317 19.4168 33.4484 19.2293 34.2192C19.1876 34.3859 19.0418 34.49 18.8751 34.49H15.2293C15.0418 34.5109 14.8751 34.4067 14.8543 34.2192C14.6668 33.4275 14.4376 32.5317 14.2084 31.5109C13.9584 30.49 13.7084 29.4067 13.4584 28.2817C13.2084 27.1567 12.9376 26.0109 12.6459 24.8442C12.3543 23.6775 12.0834 22.5317 11.8334 21.4484C11.5834 20.3442 11.3543 19.3234 11.1459 18.365C10.9376 17.4067 10.7501 16.5525 10.5834 15.8234H10.5209V18.4692C10.5209 19.49 10.5001 20.6359 10.4793 21.865C10.4376 23.115 10.4168 24.4067 10.3751 25.7609C10.3334 27.115 10.3126 28.5109 10.2709 29.9484C10.2293 31.3859 10.1668 32.8234 10.1043 34.2192C10.1043 34.4067 10.0209 34.49 9.85426 34.49H6.16676C6.10426 34.49 6.02092 34.4692 5.95842 34.4484C5.89592 34.4067 5.89592 34.3234 5.91676 34.1984L7.04176 12.74ZM40.9793 27.1984H34.3751C34.4584 27.8234 34.6668 28.4275 35.0209 28.9692C35.3959 29.5317 35.9168 29.9692 36.5418 30.2192C37.2293 30.5317 38.1043 30.6984 39.2084 30.6984C39.9376 30.6984 40.6668 30.6359 41.3751 30.5109C42.0418 30.3859 42.7084 30.1984 43.3334 29.9275C43.4376 29.8442 43.5001 29.8859 43.5001 30.0942V33.2817C43.5001 33.365 43.4793 33.4484 43.4584 33.5317C43.4168 33.5942 43.3751 33.6359 43.3126 33.6775C42.6251 34.0109 41.8959 34.24 41.1251 34.4067C40.1459 34.5942 39.1668 34.6775 38.1668 34.6567C36.5834 34.6567 35.2501 34.4067 34.1668 33.9275C33.1459 33.49 32.2501 32.8025 31.5418 31.9484C30.8751 31.1359 30.3959 30.2192 30.1043 29.2192C29.8126 28.24 29.6668 27.2192 29.6668 26.1775C29.6668 25.0525 29.8334 23.9484 30.1876 22.865C30.5209 21.8234 31.0418 20.865 31.7501 20.0109C32.4376 19.1775 33.2918 18.5109 34.2709 18.0317C35.3543 17.5317 36.5626 17.2817 37.7501 17.3025C38.8543 17.2817 39.9584 17.49 40.9793 17.9484C41.8334 18.3442 42.6043 18.9275 43.1668 19.6775C43.7084 20.3859 44.1459 21.1775 44.4168 22.0525C44.6876 22.8859 44.8126 23.74 44.8126 24.5942C44.8126 25.0942 44.7918 25.5317 44.7709 25.9275C44.7293 26.3234 44.7084 26.615 44.6876 26.8025C44.6668 26.9484 44.5418 27.0734 44.3959 27.0734C44.2709 27.0734 44.0418 27.0942 43.7084 27.115C43.3751 27.1567 42.9793 27.1775 42.5001 27.1775C42.0209 27.1775 41.5001 27.1984 40.9793 27.1984ZM34.3751 23.9275H38.7501C39.2918 23.9275 39.6876 23.9275 39.9376 23.9067C40.1043 23.9067 40.2709 23.8859 40.4168 23.865V23.6567C40.4168 23.3859 40.3751 23.1359 40.2918 22.8859C39.9168 21.7192 38.8126 20.9275 37.5834 20.9692C36.4376 20.9067 35.3543 21.5109 34.8126 22.5525C34.5834 22.99 34.4376 23.4484 34.3751 23.9275Z" fill="#9999FF"/>
</svg>
