<svg width="50" height="49" viewBox="0 0 50 49" fill="none" xmlns="http://www.w3.org/2000/svg">
<path d="M8.85417 0.0524902H41.1458C46.0417 0.0524902 50 4.01082 50 8.90666V39.9483C50 44.8442 46.0417 48.8025 41.1458 48.8025H8.85417C3.95833 48.8025 0 44.8442 0 39.9483V8.90666C0 4.01082 3.95833 0.0524902 8.85417 0.0524902Z" fill="#00005B"/>
<path d="M11.875 34.2191V12.7608C11.875 12.6149 11.9375 12.5316 12.0833 12.5316C12.4375 12.5316 12.7708 12.5316 13.25 12.5108C13.75 12.4899 14.2708 12.4899 14.8333 12.4691C15.3958 12.4483 16 12.4483 16.6458 12.4275C17.2917 12.4066 17.9167 12.4066 18.5417 12.4066C20.25 12.4066 21.6667 12.615 22.8333 13.0525C23.875 13.4066 24.8333 13.9899 25.625 14.7608C26.2917 15.4274 26.8125 16.2399 27.1458 17.1358C27.4583 18.0108 27.625 18.9066 27.625 19.8441C27.625 21.6358 27.2083 23.115 26.375 24.2816C25.5417 25.4483 24.375 26.3233 23.0208 26.8233C21.6042 27.3441 20.0417 27.5316 18.3333 27.5316C17.8333 27.5316 17.5 27.5316 17.2917 27.5108C17.0833 27.4899 16.7917 27.4899 16.3958 27.4899V34.1774C16.4167 34.3233 16.3125 34.4483 16.1667 34.4691H16.0833H12.125C11.9583 34.4691 11.875 34.3858 11.875 34.1983V34.2191ZM16.4167 16.5733V23.5733C16.7083 23.5941 16.9792 23.6149 17.2292 23.6149H18.3333C19.1458 23.6149 19.9583 23.49 20.7292 23.24C21.3958 23.0525 21.9792 22.6566 22.4375 22.1358C22.875 21.6149 23.0833 20.9066 23.0833 19.9899C23.1042 19.3441 22.9375 18.6983 22.6042 18.1358C22.25 17.5941 21.75 17.1774 21.1458 16.9483C20.375 16.6358 19.5417 16.5108 18.6875 16.5316C18.1458 16.5316 17.6667 16.5316 17.2708 16.5524C16.8542 16.5316 16.5625 16.5525 16.4167 16.5733Z" fill="#9999FF"/>
<path d="M30.6249 17.8025H34.2708C34.4791 17.8025 34.6458 17.9483 34.7083 18.1358C34.7708 18.3025 34.8124 18.4692 34.8333 18.6567C34.8749 18.865 34.9166 19.0942 34.9374 19.3025C34.9583 19.5317 34.9791 19.7817 34.9791 20.0525C35.6041 19.3233 36.3541 18.7192 37.2083 18.2608C38.1666 17.7192 39.2708 17.4483 40.3749 17.4483C40.5208 17.4275 40.6458 17.5317 40.6666 17.6775V17.7608V21.8233C40.6666 21.99 40.5624 22.0525 40.3333 22.0525C39.5833 22.0317 38.8124 22.0942 38.0833 22.2608C37.4791 22.3858 36.8958 22.5733 36.3333 22.8233C35.9374 23.0108 35.5624 23.2608 35.2708 23.5942V34.2192C35.2708 34.4275 35.1874 34.5108 34.9999 34.5108H30.8958C30.7291 34.5317 30.5833 34.4275 30.5624 34.2608V34.1775V22.6358C30.5624 22.1358 30.5624 21.615 30.5416 21.0733C30.5208 20.5317 30.5208 19.99 30.4999 19.4483C30.4999 18.9692 30.4583 18.5108 30.4166 18.0317C30.3958 17.9275 30.4583 17.8233 30.5624 17.8025C30.5624 17.7817 30.6041 17.7817 30.6249 17.8025Z" fill="#9999FF"/>
</svg>
