<svg width="1153" height="1152" viewBox="0 0 1153 1152" fill="none" xmlns="http://www.w3.org/2000/svg">
<g clip-path="url(#clip0_162_1194)">
<rect width="1151.1" height="1151.1" rx="575.552" transform="matrix(-1 -0.000552907 -0.000552907 1 1152.25 0.636475)" fill="#FF3656"/>
<path fill-rule="evenodd" clip-rule="evenodd" d="M64.2526 687.524C78.5313 688.934 92.8099 690.342 107.089 691.751C175.474 697.014 243.829 707.964 311.689 714.551C313.381 711.802 316.688 712.256 318.695 714.168C325.467 713.579 333.059 708.407 339.191 713.795C339.39 713.767 339.589 713.734 339.79 713.715C350.724 692.758 358.286 670.403 365.626 648.018C370.31 634.256 376.61 620.935 388.242 611.699C408.094 597.935 453.577 570.027 476.878 571.214C477.267 567.042 479.214 562.743 482.409 559.967C475.378 547.964 503.523 540.151 505.508 541.543C504.257 501.454 523.134 466.65 564.718 458.69C601.973 450.949 654.956 449.674 674.969 488.614C677.171 488.368 699.682 488.263 701.86 488.508C705.249 484.221 742.416 524.884 727.166 539.024C863.405 599.382 940.894 592.232 978.518 761.721C983.609 777.644 983.97 795.065 989.346 810.633C1008.48 855.375 1023.99 903.014 1027.83 951.689C1037.17 954.087 1038.23 970.554 1027.41 972.93C1023.28 973.839 1019.82 975.081 1016.81 977.439C1019.14 1017.33 1009.45 1108.43 1003.37 1108.15C990.953 1147.59 935.665 1158.69 896.535 1144.8C903.275 1157.5 896.524 1165.48 896.52 1172.26C755.69 1177.51 601.712 1174.36 460.92 1181.59C442.911 1181.32 423.966 1185.99 406.205 1183.29C395.373 1180.68 395.365 1163.65 406.354 1161.55L358.347 1151.1C359.42 1150.69 338.564 1136.8 322.809 1110.86C308.147 1081.84 318.156 1046.83 311.523 1015.27C259.581 1010.99 206.779 1009.15 155.408 1000.32C148.391 1021.28 118.081 996.195 108.448 986.106C108.46 986.09 108.472 986.075 108.484 986.059C103.82 984.781 100.082 980.407 99.9598 975.231C96.691 970.555 96.008 963.966 99.1476 959.451C84.815 876.475 62.9417 791.751 55.065 707.999C52.2645 707.377 49.6276 706.148 47.3924 704.254L47.5737 704.074C43.7872 699.847 43.0545 692.556 49.3728 688.971C54.4695 686.075 58.7233 686.977 64.2526 687.524Z" fill="#FFCEAC"/>
<path fill-rule="evenodd" clip-rule="evenodd" d="M607.163 998.352L596.159 1005.35L506.143 1034.3L451.139 1041.27L406.143 1034.24L406.101 1111.24L397.061 1183.24C401.057 1190.57 439.057 1190.59 511.061 1183.3C556.961 1178.65 724.708 1176.47 762.901 1175.5L765.065 1175.44C809.945 1174.17 854.279 1174.19 898.065 1175.51L898.08 1148.51L773.114 1086.44L661.149 1023.38L607.163 998.352ZM671.219 482.319L662.95 488.487L680.981 518.147L593.028 589.209L592.997 646.008L565.15 672.317L549.256 645.984L526.855 616.16L510.951 567.827L516.393 535.993L505.485 534.96C505.431 537.136 505.439 539.331 505.508 541.543C503.524 540.151 475.378 547.964 482.409 559.967C479.215 562.743 477.267 567.042 476.879 571.214C453.578 570.027 408.094 597.935 388.243 611.699C376.61 620.934 370.31 634.256 365.626 648.018L364.523 651.376L363.384 654.822L362.237 658.266C355.898 677.198 349.054 695.958 339.79 713.715C339.589 713.734 339.39 713.767 339.191 713.795C333.06 708.407 325.467 713.579 318.695 714.168C316.735 712.301 313.534 711.823 311.81 714.364L311.69 714.551L396.052 731.218L451.604 926.493L500.099 887.174L526.115 891.057L594.81 915.876L674.711 936.678L857.114 987.074L880.346 987.087L1015.55 954.517L1027.73 950.502C1023.74 902.24 1008.32 855.011 989.346 810.633C983.971 795.065 983.609 777.644 978.519 761.721C940.894 592.231 863.405 599.382 727.166 539.024C742.416 524.884 705.249 484.221 701.861 488.508L701.647 488.489L701.186 488.465L700.591 488.443C695.275 488.286 676.945 488.393 674.969 488.614C673.824 486.386 672.571 484.29 671.219 482.319Z" fill="#FFC300"/>
<path fill-rule="evenodd" clip-rule="evenodd" d="M50.7636 693.445L53.269 707.451C53.8661 707.647 54.4737 707.813 55.0892 707.949C55.8744 716.298 56.7987 724.657 57.8408 733.023L73.3737 819.871C76.0526 835.236 78.5952 850.633 81.1192 866.036L84.466 882.581L86.5386 892.864C91.0129 915.133 95.3591 937.329 99.1718 959.402C98.5941 960.233 98.1457 961.134 97.8192 962.08L98.1128 963.324L98.317 964.154L98.5259 964.973C101.537 976.576 106.782 987.828 119.155 991.249C128.488 993.827 138.729 994.066 148.367 995.087L149.436 995.204L318.084 1014.26C338.462 1016.57 358.83 1018.94 379.197 1021.34L396.852 1023.42C421.461 1026.28 446.212 1028.54 470.456 1033.71C471.347 1033.9 472.085 1034.25 472.687 1034.72C467.814 1016.24 463.15 997.776 458.925 979.103C454.168 958.088 449.655 937.031 444.567 916.091C434.316 873.906 422.822 831.996 410.237 790.446C407.596 781.726 404.894 773.023 402.132 764.339L400.195 758.27L398.703 753.433C396.395 746.058 393.539 738.478 386.762 734.407C378.831 729.643 368.013 728.848 359.016 727.196L352.923 726.049C343.808 724.343 334.681 722.701 325.542 721.125C281.79 713.574 237.79 707.513 193.626 702.954C147.671 698.209 101.554 695.116 55.3811 693.592L50.7636 693.445ZM469.221 983.219L468.79 983.255L475.063 1033.62C476.07 1032.91 477.349 1032.48 478.91 1032.49C499.575 1032.56 519.387 1025.97 538.551 1018.72L541.47 1017.61L549.606 1014.48C557.877 1011.32 566.192 1008.23 574.661 1005.66L578.085 1004.63L579.825 1004.12C586.237 1002.25 592.983 1000.55 599.652 1000.13L600.561 1000.08L598.62 999.064C598.336 998.914 598.087 998.747 597.866 998.567C594.195 998.837 590.517 998.761 586.645 998.061C579.364 996.746 572.284 994.209 565.784 990.679L562.881 989.103L561.693 988.472L560.908 988.064L560.127 987.669C554.544 984.882 549.205 983.136 542.154 984.614C534.149 986.295 527.132 990.605 519.915 994.246L518.634 994.883L517.773 995.298L516.895 995.711L516.006 996.116C506.247 1000.5 490.716 1005.23 486.982 991.963C485.482 986.632 486.661 981.642 489.272 977.267C484.412 976.844 475.727 982.569 469.221 983.219ZM226.435 817.157L226.317 817.761C224.933 825.188 228.389 832.295 233.622 837.478C237.915 841.728 245.515 844.093 247.664 850.206C248.888 853.683 247.582 856.98 245.063 859.277L245.643 859.564L246.21 859.854L246.763 860.147L247.303 860.442L247.828 860.74C256.379 865.659 263.341 873.654 255.621 883.303C246.863 894.249 228.576 894.594 215.692 893.73L214.824 893.668C202.331 892.725 187.534 888.52 180.766 876.981C177.662 871.687 178.008 865.287 182.341 860.76C184.956 858.03 189.618 855.226 193.893 854.897C193.707 852.489 193.995 850.163 194.843 848.2C196.678 843.958 201.554 841.104 206.256 841.004C205.881 831.994 213.102 823.105 218.419 815.905L218.962 815.166L219.489 814.44C221.929 811.049 227.144 812.953 226.435 817.157ZM219.3 826.743L214.449 844.874L214.532 845.023C216.236 848.262 211.764 851.936 209.114 849.214L208.847 848.926C205.702 845.674 200.869 850.04 200.807 853.499C200.719 858.368 203.886 862.134 207.662 864.624L207.926 864.795L208.622 865.228C211.721 867.278 209.372 871.56 205.965 871.037C201.749 870.389 198.296 867.043 196.168 862.867C193.892 863.518 191.302 863.437 188.904 864.777C182.862 868.152 186.333 874.063 190.264 877.637L190.424 877.781L190.744 878.06C197.957 884.218 207.78 886.361 217.041 886.824L217.575 886.849C226.93 887.254 239.118 887.395 247.139 881.897C252.131 878.476 253.578 873.621 249.358 869.02C246.971 866.419 244.562 863.796 242.081 861.261C238.365 863.031 235.048 862.311 231.249 860.631C230.763 860.414 231.033 859.669 231.51 859.67C233.606 859.669 241.299 855.782 241.674 853.296C242.021 850.995 237.768 849.053 235.7 847.94L235.4 847.776L235.14 847.625C232.976 846.312 230.94 844.785 229.079 843.07C224.356 838.718 220.926 833.259 219.431 827.287L219.3 826.743Z" fill="white"/>
<path fill-rule="evenodd" clip-rule="evenodd" d="M672.378 479.572C668.141 468.907 653.796 473.044 655.388 484.247C656.342 490.957 660.013 498.046 663.311 503.929C665.996 508.717 669.059 513.391 673.214 516.981C665.81 523.881 658.126 530.529 650.246 536.841C641.648 543.727 632.608 550.074 623.264 555.907C615.07 561.022 606.506 565.554 598.782 571.391C591.6 576.818 585.057 583.347 581.724 591.872C578.174 600.95 579.709 610.329 582.315 619.404L582.614 620.43C585.276 629.422 589.887 640.261 583.48 648.728C580.219 653.038 575.479 656.089 571.386 659.534C567.749 662.596 564.334 665.926 561.202 669.504C554.373 677.302 548.817 686.078 545.308 695.858L544.995 696.746C541.987 705.404 539.787 716.011 543.84 724.515C545.002 726.953 548.757 726.163 549.41 723.79C550.887 718.415 550.813 712.785 552.052 707.334C553.341 701.664 555.484 696.283 558.282 691.193C563.695 681.345 571.024 672.935 579.68 665.826L582.272 663.721C589.025 658.185 595.23 652.311 596.606 643.144C598.077 633.336 594.152 623.99 591.63 614.704C589.873 608.233 589.301 602.031 591.207 596.185C593.53 599.981 596.7 603.585 599.208 606.8C604.201 613.203 609.242 619.568 614.269 625.945C619.423 632.484 624.451 639.126 629.238 645.939C631.379 648.987 633.498 652.054 635.609 655.123C637.197 657.43 639.411 659.735 641.142 662.088C640.72 663.346 640.752 664.796 641.514 665.826C650.692 678.241 663.773 652.354 667.185 645.814C674.132 632.495 679.305 618.344 686.276 605.028C693.498 591.224 701.722 577.788 710.886 565.187C716.429 557.565 722.641 550.407 727.712 542.543C739.643 553.373 755.347 560.638 769.772 567.226C785.62 574.463 802.086 580.378 818.336 586.657L823.136 588.525C851.134 599.469 879.817 611.493 903.083 630.919C930.424 653.747 946.588 685.552 958.617 718.484C972.464 756.397 983.915 795.331 994.589 834.24C1000.05 854.148 1005.23 874.146 1010.1 894.208C1014.4 911.882 1017.95 929.732 1022.92 947.225C1012.82 946.862 1001.3 950.766 992.678 951.89C953.376 957.012 914.602 965.191 877.491 979.367C872.907 981.119 871.578 985.695 872.574 989.406C869.932 988.658 867.291 987.901 864.648 987.157C867.546 982.722 866.169 974.789 865.944 969.871L865.93 969.533C865.7 962.98 864.992 956.42 864.535 949.878C863.664 937.409 862.528 925.031 861.015 912.632L860.629 909.532C858.915 896.043 857.649 882.475 855.778 869.009L855.557 867.468C856.459 864.024 857.51 860.621 858.613 857.234C861.552 848.211 865.698 839.718 869.332 830.979C869.76 829.95 868.295 829.358 867.609 829.975C861.46 835.501 856.574 842.512 852.648 849.846C852.58 849.5 852.521 849.153 852.45 848.807L852.004 846.604C850.903 841.231 849.564 835.578 846.271 831.219C845.92 830.756 845.226 830.659 844.894 831.218C841.737 836.554 841.38 843.312 840.892 849.385C840.339 856.255 840.266 863.212 840.359 870.101C840.541 883.564 841.482 897.066 842.231 910.507C842.965 923.716 844.414 936.757 846.284 949.836L846.64 952.289C847.554 958.515 848.301 964.818 849.508 971.001L849.849 972.684C850.495 975.751 850.89 980.074 852.176 983.665C819.043 974.404 785.859 965.354 752.612 956.462C728.583 950.035 704.528 943.704 680.484 937.333C679.216 935.045 677.637 932.908 675.666 930.998C669.173 924.702 660.564 921.891 652.665 926.729C652.023 927.124 651.968 928.13 652.664 928.511C654.176 929.339 655.692 930.188 657.18 931.073L642.742 927.154C631.951 924.223 621.031 920.562 609.985 918.517C589.644 908.464 567.764 901.184 546.334 893.989L543.809 893.134C532.836 889.386 521.486 885.191 510.149 883.11C501.849 881.588 492.104 883.414 488.761 891.917C484.533 894.699 480.556 897.97 476.717 901.187C473.942 903.511 471.281 905.983 468.576 908.389L468.077 908.827C465.865 910.743 464.114 912.027 463.569 915.08C463.288 916.656 464.289 918.789 466.234 918.581C472.186 917.947 477.028 911.052 481.067 906.935C484.186 903.753 487.331 900.463 490.179 896.965C491.838 897.869 494.112 897.709 495.169 895.709C500.651 885.343 515.648 892.536 523.946 895L535.834 898.526C541.778 900.291 547.719 902.065 553.65 903.87C569.952 908.83 586.173 914.38 602.622 918.937C601.149 920.554 601.351 923.432 604.146 924.528C617.021 929.588 631.148 932.209 644.525 935.684C652.971 937.879 661.411 940.088 669.849 942.31C671.295 944.654 672.334 947.307 672.771 950.394C674.375 961.746 671.262 974.84 668.23 985.816L667.773 987.454C665.281 996.279 661.616 1007.1 653.998 1012.67C652.138 1014.02 649.771 1014.97 647.385 1015.18C632.482 1007.5 617.58 999.82 602.67 992.154C599.907 990.733 597.353 992.653 596.732 994.936C591.473 994.07 586.227 992.707 581.449 991.083C573.421 988.351 567.154 983.147 559.628 979.546C545.065 972.58 530.186 981.118 517.141 987.609L514.134 989.085C508.284 991.919 496.114 997.363 493.312 989.601C490.602 982.092 499.188 974.072 504.731 970.696C511.34 966.671 519.033 964.519 526.5 962.727C530.763 961.704 535.079 960.869 539.42 960.261C544.345 959.57 549.43 959.677 554.172 958.083C556.529 957.292 556.893 953.55 554.175 952.931C546.878 951.266 538.167 953.073 530.55 954.92L526.569 955.898C518.895 957.777 511.146 960.136 504.155 963.888C499.072 966.617 493.705 970.764 490.199 975.842C487.157 973.014 483.37 973.108 479.424 974.154L477.283 974.748C473.746 975.726 470.88 976.399 467.44 975.718C466.981 973.215 466.516 970.71 466.019 968.206C461.129 943.589 455.766 919.066 449.846 894.674C439.636 852.601 427.817 810.988 414.49 769.801L413.152 765.684C410.078 756.263 407.606 746 402.646 737.344C397.956 729.159 390.437 724.442 381.501 721.941C371.36 719.104 360.704 717.616 350.359 715.697C348.052 715.27 345.738 714.863 343.428 714.443C345.382 710.92 346.842 706.919 348.156 703.85L348.386 703.318C351.209 696.891 353.746 690.348 356.196 683.77L358.028 678.824C362.451 666.916 367.016 655.203 373.232 644.067C379.774 632.346 388.451 622.766 399.264 614.839C421.311 598.675 447.879 590.439 469.263 573.164C470.14 572.456 469.017 571.245 468.128 571.692C453.691 578.936 438.107 583.858 423.092 589.754L420.13 590.921C408.262 595.618 396.209 600.732 385.935 608.342C374.48 616.827 365.456 627.368 358.671 639.906C351.984 652.264 347.704 666.099 342.984 679.3L341.721 682.817C339.817 688.092 337.851 693.351 335.598 698.484C333.81 702.559 330.474 707.21 328.956 711.865C324.812 711.144 320.668 710.421 316.52 709.725C226.661 694.672 135.795 685.805 44.7233 683.176C41.1604 683.073 39.3155 686.472 39.8388 689.58C48.5502 741.266 56.2885 793.128 64.7819 844.853C68.4894 867.428 72.271 889.986 76.1415 912.533C78.1022 923.956 80.3699 935.336 82.2266 946.776C83.7255 956.015 84.8123 965.325 87.3893 974.351C89.7008 982.443 93.2505 990.247 99.0841 996.423C105.372 1003.08 114.153 1006.31 122.992 1007.83C145.431 1011.71 168.448 1013.3 191.069 1015.88L311.509 1029.65C309.74 1045.65 309.6 1061.4 310.398 1077.59L310.854 1086.42C311.226 1093.53 311.672 1100.65 312.689 1107.68C313.964 1116.5 317.996 1123.98 323.937 1130.57C329.393 1136.62 336.022 1141.79 342.47 1146.74C349.163 1151.89 356.079 1156.85 363.951 1160.03L364.972 1160.44C371.878 1163.14 384.832 1167.32 394.274 1165.8C393.036 1171.98 390.644 1178.63 392.758 1184.75C393.738 1187.59 397.453 1189.01 399.73 1186.59C404.242 1181.8 404.597 1175.48 405.669 1169.23C406.783 1162.72 407.745 1156.2 408.599 1149.65C410.252 1137 411.541 1124.24 411.939 1111.48C412.348 1098.38 412.2 1085.26 411.501 1072.17C411.142 1065.45 410.696 1058.73 409.846 1052.05C409.484 1049.2 409.114 1046.35 408.69 1043.51C408.536 1042.48 408.364 1041.45 408.18 1040.42L418.99 1041.64C435.566 1043.5 452.149 1045.18 468.843 1045.45C470.82 1045.48 472.342 1044.58 473.336 1043.27C474.394 1045 476.238 1046.23 478.879 1046.22C502.192 1046.15 523.906 1038.54 545.115 1029.57C555.805 1025.04 566.33 1020.14 577.037 1015.66C587.03 1011.47 597.713 1008.49 607.465 1003.77L633.078 1017.22C633.265 1017.88 633.506 1018.51 633.762 1019.03C635.428 1022.44 638.716 1024.29 642.074 1025.68C645.297 1027.02 648.636 1027.44 651.889 1027.1C671.314 1037.29 690.743 1047.48 710.185 1057.64L729.632 1067.79C768.377 1087.99 806.968 1108.52 845.957 1128.25L848.828 1129.69C862.295 1136.46 876.756 1143.31 891.702 1148.43C891.966 1152.21 891.796 1155.89 891.477 1159.9L891.4 1160.77C890.952 1165.5 889.993 1171.43 893.788 1174.8C895.762 1176.56 899.29 1176.56 900.634 1173.92C903.074 1169.13 900.89 1161.58 900.121 1156.37C899.848 1154.52 899.515 1152.62 899.022 1150.77C916.157 1155.88 933.813 1158.37 951.254 1155.51C968.236 1152.74 981.393 1142.05 992.002 1128.97C1003.2 1115.17 1011.16 1099.08 1015.43 1081.83C1020.3 1062.21 1020.63 1041.94 1020.53 1021.83C1020.42 1000.42 1019.64 978.909 1017.04 957.643C1019.9 956.973 1023.06 956.395 1025.94 956.597C1027.37 958.882 1030.14 959.846 1032.64 959.55C1038.08 965.556 1024.27 971.684 1019.86 973.217C1018.33 973.75 1018.49 976.238 1020.26 976.164L1021.37 976.112C1028.19 975.753 1035.23 974.593 1039.24 968.26C1042.46 963.184 1041.5 957.167 1037.67 953.024C1035.16 929.111 1029.12 905.822 1023.51 882.493C1018 859.595 1011.87 836.844 1005.37 814.207L1002.46 804.075C992.233 768.581 981.541 732.8 967.423 698.714C960.373 681.694 952.25 664.987 941.236 650.144C930.968 636.307 918.844 624.465 904.905 614.35C878.921 595.489 848.425 584.086 818.461 573.22L817.119 572.734C801.592 567.107 786.102 561.414 770.751 555.318C757.175 549.928 744.17 543.096 730.658 537.624C731.097 536.827 731.522 536.022 731.93 535.207L732.18 535.417C732.223 535.451 732.266 535.484 732.312 535.515C733.671 536.458 735.672 535.996 736.792 534.94C739.956 531.957 738.888 528.644 736.778 525.548L736.504 525.154C733.924 521.536 731.623 517.711 729.242 513.961L727.751 511.617C723.754 505.353 719.555 499.047 714.224 493.869C711.755 491.47 709.052 489.674 706.188 488.336C706.433 487.818 704.286 486.758 703.677 487.29C694.602 483.963 684.158 484.654 674.262 485.564M317.336 1030.32L329.956 1031.76C343.839 1033.35 357.727 1034.88 371.618 1036.4L401.788 1039.7C401.864 1041.42 402.072 1043.1 402.11 1044.4C402.303 1051.1 402.446 1057.8 402.582 1064.5C402.853 1077.92 402.54 1091.36 401.648 1104.77C400.784 1117.75 399.649 1130.74 397.888 1143.64L397.527 1146.22L397.319 1147.57C395.888 1147.71 394.481 1148.39 393.311 1149.78C390.758 1152.83 381.518 1149.86 377.91 1148.58C371.976 1146.46 366.389 1142.89 361.234 1139.31C356.2 1135.81 351.667 1131.74 347.312 1127.44L343.748 1123.91C340.203 1120.39 336.655 1116.63 334.484 1112.2C331.54 1106.18 331.164 1098.8 330.303 1092.25C329.244 1084.2 327.981 1076.15 326.647 1068.13M683.738 945.978L685.047 946.323C732.591 958.984 780.064 972.019 827.754 984.122C851.355 990.113 875.068 995.669 898.697 1001.55L902.523 1002.5C921.164 1007.23 940.029 1012.91 954.299 1026.44C954.825 1026.94 955.591 1026.17 955.095 1025.64C939.717 1009.25 917.837 1002.31 896.828 996.286C892.945 995.173 889.057 994.086 885.172 992.979C913.754 982.808 942.786 973.961 972.486 967.656C980.134 966.032 987.871 964.842 995.513 963.212C1000.84 962.074 1006.05 960.429 1011.32 959.065L1015.47 958.024L1015.52 971.131C1015.58 989.697 1015.53 1008.25 1014.57 1026.81L1014.39 1030.25C1013.28 1050.9 1011.54 1071.99 1004.2 1091.46C998.233 1107.29 988.73 1122.19 976.306 1133.72C970.02 1139.54 963.263 1144.08 954.911 1146.32C947.157 1148.4 939.034 1148.64 931.064 1148.08C892.837 1145.39 858.818 1124.6 825.62 1107.39C771.318 1079.24 717.011 1051.1 662.654 1023.05C664.125 1022.05 665.51 1020.89 666.769 1019.59C674.065 1012.07 677.916 1001.76 680.448 991.778C683.143 981.153 684.757 969.765 684.95 958.795M614.506 1033.88C614.027 1033.62 613.47 1033.95 613.448 1034.49C613.278 1038.64 615.57 1042.74 617.283 1046.48L617.464 1046.88C619.545 1051.51 621.823 1056.09 624.18 1060.59C628.89 1069.58 633.785 1078.48 638.894 1087.25C649.168 1104.9 660.587 1121.8 674.086 1137.17C677.135 1140.64 682.156 1136.2 680.2 1132.46C670.77 1114.44 659.774 1097.43 648.456 1080.57C642.789 1072.13 637.127 1063.68 631.405 1055.27C629.017 1051.76 626.6 1048.27 624.116 1044.83L622.618 1042.77M50.7396 693.494C98.4558 694.962 146.115 698.1 193.602 703.003C237.766 707.563 281.767 713.624 325.518 721.174C334.657 722.751 343.784 724.392 352.899 726.098L358.367 727.129C367.484 728.862 378.623 729.582 386.738 734.457C395.294 739.597 397.601 750.33 400.444 759.182C403.787 769.592 407.044 780.031 410.213 790.496C422.798 832.046 434.292 873.955 444.543 916.141C449.631 937.081 454.144 958.137 458.901 979.153C463.126 997.825 467.79 1016.29 472.663 1034.77C472.061 1034.3 471.323 1033.95 470.433 1033.76C446.188 1028.59 421.437 1026.33 396.828 1023.47L394.447 1023.19C368.99 1020.18 343.533 1017.19 318.06 1014.31L149.412 995.254C139.465 994.13 128.81 993.973 119.131 991.298C102.676 986.749 98.8283 968.347 96.0751 953.692L95.992 953.249C87.6915 908.972 81.0891 864.31 73.3497 819.921M468.766 983.305C475.315 982.876 484.28 976.884 489.248 977.317C486.637 981.691 485.458 986.682 486.958 992.013C491.132 1006.85 510.054 999.183 519.168 994.657C526.641 990.944 533.858 986.401 542.13 984.664C551.501 982.699 557.847 986.429 565.76 990.728C572.26 994.259 579.34 996.796 586.621 998.111C590.493 998.811 594.171 998.887 597.842 998.617C598.063 998.797 598.312 998.964 598.596 999.113L600.537 1000.13C591.756 1000.53 582.81 1003.24 574.637 1005.71C566.168 1008.28 557.853 1011.37 549.582 1014.53L541.446 1017.66C521.376 1025.33 500.602 1032.61 478.886 1032.54C477.325 1032.53 476.046 1032.96 475.039 1033.67M505.428 936.851C498.959 936.056 492.988 936.901 487.816 941.109C481.58 946.184 477.387 954.603 468.425 955.151C465.812 955.311 465.203 958.985 467.799 959.754C474.469 961.733 479.872 958.127 484.42 953.443L487.477 950.252C491.971 945.604 496.116 942.011 503.737 942.293C511.899 942.595 520.074 944.486 528.182 945.449C537.367 946.54 546.551 947.472 555.765 948.276C556.193 948.313 556.267 947.639 555.866 947.54L545.546 944.965M511.687 910.408L510.62 910.301C501.227 909.383 492.636 909.343 484.244 914.392L482.634 915.364C475.068 919.957 466.832 925.369 462.097 932.81C461.323 934.028 462.601 935.462 463.896 935.153C472.988 932.976 479.638 926.309 487.286 921.322C495.869 915.724 504.731 916.653 514.514 917.529C523.985 918.377 533.452 919.54 542.83 921.124C551.642 922.611 560.482 924.956 569.383 925.707L569.381 925.689C570.398 925.687 570.979 924.161 569.943 923.642C560.911 919.126 550.449 916.985 540.623 914.919M226.373 817.405C227.284 813.063 221.943 811.046 219.465 814.49L218.938 815.216C213.585 822.541 205.844 831.733 206.232 841.053C201.53 841.154 196.654 844.008 194.819 848.25C193.971 850.213 193.683 852.538 193.869 854.946C189.594 855.276 184.932 858.08 182.317 860.81C177.984 865.337 177.638 871.736 180.742 877.03C187.51 888.57 202.307 892.774 214.8 893.718L215.245 893.75C228.149 894.649 246.743 894.419 255.597 883.353C264.138 872.678 254.71 864.027 245.039 859.327C247.558 857.029 248.864 853.733 247.64 850.255C245.491 844.143 237.891 841.778 233.598 837.527C228.365 832.345 224.909 825.238 226.293 817.811M219.276 826.793C220.696 832.977 224.189 838.635 229.055 843.12C230.916 844.835 232.952 846.362 235.116 847.674L235.376 847.825C237.296 848.905 242.015 850.927 241.651 853.346C241.275 855.832 233.582 859.718 231.486 859.719C231.009 859.719 230.739 860.464 231.226 860.68C235.024 862.36 238.341 863.081 242.057 861.31C244.538 863.846 246.947 866.469 249.334 869.069C253.554 873.67 252.107 878.526 247.115 881.947C239.094 887.444 226.906 887.304 217.551 886.899C208.135 886.491 198.071 884.386 190.72 878.11L190.4 877.831C186.404 874.273 182.757 868.247 188.88 864.827C191.278 863.487 193.868 863.567 196.144 862.917C198.272 867.093 201.725 870.439 205.941 871.086C209.348 871.609 211.697 867.328 208.598 865.278L207.902 864.845C204.012 862.359 200.693 858.531 200.783 853.548C200.845 850.09 205.678 845.724 208.823 848.975L208.967 849.131C211.598 852.1 216.238 848.363 214.508 845.073L214.425 844.924M833.49 655.153C833.503 654.41 832.458 654.131 832.092 654.774C825.974 665.524 822.772 678.703 819.51 690.548C816.093 702.956 813.333 715.491 810.853 728.117C805.83 753.685 803.147 779.108 802.951 805.17C802.924 808.891 808.986 809.884 809.581 806.072C813.532 780.723 817.318 755.348 821.299 730.006C823.302 717.26 825.632 704.563 827.862 691.856M772.972 673.849C773.423 672.366 771.265 671.869 770.712 673.225C758.43 703.327 754.257 737.446 762.114 769.216C763.316 774.075 770.435 771.974 769.528 767.176M614.769 647.007C614.832 645.898 613.391 645.722 612.848 646.485C607.031 654.671 604.614 665.637 594.415 669.863C589.322 671.973 583.594 671.602 579.094 675.169C576.085 677.554 573.777 681.321 576.032 684.937C576.76 686.105 578.797 686.692 579.786 685.423C581.229 683.575 581.993 681.361 583.953 679.976C586.717 678.023 590.443 677.904 593.612 676.987C597.71 675.801 601.323 673.724 604.283 670.637M517.747 510.37C517.148 510.065 516.573 510.259 516.189 510.777C515.642 511.515 515.709 512.233 516.378 512.739C515.482 514.568 514.423 519.149 514.271 519.816C513.658 522.52 513.005 525.207 512.323 527.893C510.946 533.309 509.739 538.767 508.361 544.186C506.9 549.929 505.16 555.611 503.224 561.211C503.099 561.573 502.961 561.944 502.817 562.319L502.597 562.887L502.543 562.801C502.15 562.179 501.332 562.613 501.428 563.269C501.518 563.867 501.639 564.462 501.74 565.06L501.538 565.596C500.271 568.998 499.403 572.582 501.722 575.586C502.589 576.71 503.544 577.375 504.733 577.574C506.638 583.865 509.029 590.039 511.588 595.969L512.339 597.7C516.104 606.352 520.12 614.891 526.119 622.259C532.668 630.302 541.68 635.797 547.384 644.61C550.038 648.71 551.884 653.02 553.381 657.649L553.945 659.406C555.007 662.68 556.234 665.853 559.304 667.775C560.283 668.387 561.751 668.193 562.542 667.359C568.843 660.701 562.257 648.26 558.464 641.808C553.191 632.838 545.555 627.096 537.91 620.326C529.669 613.029 524.415 603.27 519.334 593.656C516.221 587.766 513.216 581.749 510.052 575.834C513.363 572.911 514.425 567.103 515.548 563.066L515.651 562.704C517.507 556.239 518.983 549.606 519.917 542.943C520.815 536.537 521.192 530.223 520.959 523.78L520.891 522.139M505.427 540.855C506.159 539.853 504.95 538.718 503.947 538.926C497.848 540.184 491.883 543.872 486.409 546.853L485.824 547.17C481.454 549.524 477.056 552.407 474.76 556.983C472.262 561.956 472.464 567.686 472.801 573.092L472.833 573.598C473.247 580.081 473.31 586.817 474.678 593.184C475.379 596.442 478.329 597.362 480.853 596.593C483.849 606.074 492.279 613.063 498.434 620.546C506.283 630.086 504.798 642.961 503.971 654.445C503.636 659.095 509.419 660.42 512.4 657.941L519.268 652.242C520.412 651.291 521.554 650.338 522.693 649.381C523.669 648.561 524.636 647.735 525.595 646.898L527.027 645.635C527.663 645.067 530.466 641.94 531.285 641.81C533.269 641.496 537.979 646.727 539.591 648.367L539.795 648.572C542.829 651.551 545.57 654.755 548.124 658.154C548.593 658.778 549.513 658.26 549.177 657.539C546.89 652.634 544.231 647.944 541.072 643.553L540.434 642.679C538.333 639.844 535.512 634.839 531.801 633.999C527.269 632.976 522.741 637.519 519.441 640.039L519.233 640.198C517.663 641.374 516.111 642.571 514.563 643.776C514.729 635.225 513.654 626.584 509.243 619.213C506.133 614.014 501.471 610.163 497.483 605.695C493.042 600.719 490.726 594.606 486.707 589.425C486.189 588.758 485.475 588.399 484.702 588.284C484.55 584.121 483.939 579.915 483.468 575.797L483.331 574.564C482.854 570.088 481.725 564.622 483.919 560.432C485.99 556.475 490.741 553.683 494.259 550.999L497.131 548.774M703.368 493.646C705.204 494.709 706.919 496.031 708.475 497.683C713.373 502.885 716.873 509.357 720.28 515.582C722.114 518.936 723.882 522.325 725.731 525.671C726.536 527.126 727.363 528.565 728.199 530.003C728.586 530.665 729.735 531.982 730.305 532.793C729.671 533.68 729.015 534.554 728.347 535.418C728.092 535.747 710.501 554.889 704.368 562.381C694.978 573.857 686.583 585.979 679.405 598.955C672.376 611.662 667.022 625.117 660.51 638.07C657.251 644.556 653.611 650.995 648.973 656.606C648.794 656.825 648.605 657.032 648.422 657.248C646.655 652.468 642.125 647.349 639.901 644.41L639.693 644.132C634.648 637.323 629.319 630.719 623.875 624.227C618.902 618.299 613.803 612.499 608.58 606.794L606.616 604.66C602.977 600.725 598.355 594.837 593.027 592.024C593.598 591.006 594.26 590 595.02 589.006C600.018 582.483 607.08 577.751 614.048 573.482L618.567 570.736C635.601 560.369 652.369 549.521 667.16 536.046C674.985 528.916 682.702 521.448 689.28 513.13L691.607 510.19M674.959 488.493C682.933 489.167 691.544 489.013 698.911 491.615C692.357 497.804 686.126 504.488 679.726 510.781C679.159 506.522 677.997 502.314 677.014 498.161" fill="black"/>
<path fill-rule="evenodd" clip-rule="evenodd" d="M430.863 323.257C433.022 304.343 430.263 264.806 430.079 262.404C428.909 247.218 436.042 187.259 449.461 192.791C471.985 174.943 501.975 171.015 530.017 169.147C588.263 165.265 650.22 174.284 695.173 213.589C717.404 234 739.041 263.681 737.283 294.572C757.475 323.866 785.942 364.048 760.744 398.267C752.18 409.2 738.575 413.265 727.819 421.542C706.183 439.01 692.602 464.089 670.761 481.453C612.894 533.504 514.679 544.329 457.886 485.058C413.967 442.13 421.108 377.948 428.867 323.256C434.084 286.486 426.652 360.156 430.863 323.257Z" fill="#FFCEAC"/>
<path fill-rule="evenodd" clip-rule="evenodd" d="M607.867 88.9773C592.292 85.8187 576.298 83.8498 560.39 84.431L559.164 84.4781C547.195 84.9508 532.037 86.0028 521.592 92.9716C520.991 92.3672 520.025 92.0567 519.149 92.4752C506.738 98.4034 493.088 102.687 480.022 106.944C467.015 111.179 453.522 113.973 439.891 115.094C434.763 115.517 430.371 121.063 433.615 126.042C434.387 127.228 435.139 128.427 435.887 129.628C434.634 129.496 433.381 129.361 432.128 129.233C428.004 128.815 423.881 133.224 424.123 137.248C424.274 139.779 424.545 142.28 424.947 144.751C423.377 144.717 421.815 144.952 420.306 145.591C412.664 148.819 413.191 157.939 413.759 164.877C414.546 174.505 418.133 184.705 424.801 191.915C419.817 197.097 416.287 203.287 414.179 210.64C412.651 216.009 411.798 221.729 412.214 227.319L412.347 228.993C412.862 235.059 413.889 241.776 418.241 246.142C420.475 248.394 423.229 249.215 425.855 248.957C424.259 262.936 423.234 276.995 422.268 291.005L421.815 297.701C419.66 330.079 418.036 362.669 418.438 395.103C418.812 425.413 424.772 454.836 443.309 479.456C460.192 501.876 484.44 518.409 511.879 524.704C526.666 528.102 541.764 528.351 556.733 526.199C563.989 525.153 571.294 523.547 578.182 521.011C585.806 518.195 591.287 514.048 596.42 507.831C598.847 504.882 597.683 498.602 592.852 499.189C585.545 500.073 578.875 501.139 571.87 503.301L570.867 503.617C563.889 505.853 556.664 507.519 549.37 508.225C534.43 509.667 519.263 508.198 504.955 503.65C481.659 496.238 461.6 479.736 448.749 459.009C433.495 434.441 431.784 406.56 432.02 378.32C432.273 347.332 433.296 316.326 434.955 285.371L435.237 280.212C436.114 264.282 436.961 248.343 437.708 232.403C437.94 227.403 438.292 222.364 438.924 217.374C444.683 213.997 449.845 209.34 453.211 203.592C459.965 206.396 467.069 208.419 473.605 210.033C488.745 213.773 504.465 214.688 519.879 212.36C524.035 214.083 528.275 215.598 532.579 216.903C533.742 217.42 534.905 217.929 536.067 218.428C546.444 222.883 556.97 226.659 567.924 229.425L570.615 230.099C576.38 231.527 582.642 232.933 588.778 233.377C589.785 233.767 590.873 234.098 592.061 234.389C597.648 235.752 603.446 236.185 609.173 235.708C614.753 235.241 618.787 229.593 615.717 224.302C613.474 220.44 611.21 216.589 608.927 212.748C616.878 216.072 625.089 218.837 633.37 221.181C641.731 223.546 650.212 225.541 658.704 227.375C663.244 228.348 667.803 229.21 672.333 230.183C675.576 230.875 680.555 231.237 683.199 233.379C686.121 235.731 686.946 241.211 688.053 244.592C689.507 248.982 690.872 253.393 692.117 257.854C694.596 266.755 696.626 275.786 698.198 284.907C699.769 294.038 700.823 303.259 701.407 312.509C701.989 321.749 701.726 331.049 702.668 340.25C703.175 345.13 708.402 347.643 712.265 344.235C712.719 343.835 713.175 343.431 713.628 343.022L714.302 342.406C717.608 339.408 720.813 336.23 723.458 332.651C723.937 331.991 724.397 331.302 724.826 330.602C724.896 330.602 724.956 330.582 725.026 330.532L725.759 329.98C733.833 323.964 747.321 316.124 755.185 326.129C757.69 329.316 758.972 333.373 760.036 337.288L761.901 344.293C763.108 348.866 764.244 353.465 764.907 358.144C766.408 368.625 765.643 380.705 758.443 389.101C755.567 392.459 751.604 394.857 747.184 395.484C744.718 395.823 742.283 395.402 739.839 395.09C737.354 394.779 734.96 395.278 732.474 395.036C728.523 394.644 726.794 399.383 728.269 402.364C729.067 403.964 730.005 405.345 731.071 406.515C730.213 407.255 729.394 408.054 728.605 408.894C726.269 409.643 724.174 411.252 722.605 413.381C721.337 415.1 720.678 416.97 720.566 418.94C720.427 419.43 720.307 419.929 720.196 420.439L718.053 423.92C717.582 424.684 717.113 425.438 716.642 426.177C711.188 434.774 705.136 442.051 697.618 448.907C690.38 455.503 682.524 461.409 675.724 468.485L674.923 469.325C668.583 476.012 661.899 484.108 664.374 493.839C665.011 496.339 668.494 498.141 670.769 496.452C678.086 491.016 681.774 482.398 687.984 475.802C694.375 469.005 701.453 462.899 707.863 456.123C713.924 449.726 718.708 442.479 722.314 434.501C723.751 436.091 725.845 437.223 728.749 437.664C733.738 438.417 738.39 435.489 740.567 431.161C741.965 431.781 743.391 432.342 744.828 432.783C752.391 435.107 757.155 426.68 754.304 420.448C752.78 417.107 750.876 414.206 748.511 411.765C755.907 410.749 763.433 406.923 768.296 402.146C780.496 390.143 782.182 372.094 779.447 356.042C777.994 347.531 775.486 338.92 772.226 330.928C771.659 329.538 771.05 328.138 770.383 326.757C770.752 326.747 771.132 326.588 771.371 326.278C773.578 323.259 776.263 320.79 777.902 317.411C779.411 314.312 781.088 311.173 782.278 307.944C784.726 301.335 785.927 293.876 786.73 286.886C788.384 272.577 787.754 258.357 785.576 244.136C781.868 219.913 772.892 196.731 759.66 176.385C760.381 176.006 761.073 175.548 761.717 175.006L762.035 174.729L762.552 174.261C766.333 170.836 766.01 164.413 762.559 160.94L761.47 159.844C760.09 158.468 758.899 157.379 756.67 155.881C756.341 155.659 756.004 155.451 755.664 155.257C756.833 153.096 757.239 150.568 756.428 147.778C753.599 138.061 739.648 138.397 730.804 142.629C721.026 133.875 710.183 126.274 698.43 120.117C670.436 105.462 638.78 95.2344 607.867 88.9773ZM752.47 344.957C747.242 343.244 740.294 346.831 735.593 348.988C729.634 351.725 724.563 355.772 719.651 360.049C717.205 362.188 716.765 365.688 717.371 368.678C717.431 368.978 717.49 369.288 717.561 369.598C718.208 372.788 721.759 375.3 724.902 375.212C731.478 375.036 734.614 369.347 738.34 364.529C738.777 365.31 739.326 366.03 740.005 366.57L740.464 366.931C742.008 368.11 743.71 369.053 745.751 368.964C747.198 368.894 748.585 368.525 749.863 367.856C753.058 366.168 754.466 362.028 753.601 358.658C753.063 356.538 751.826 354.877 750.21 353.726L750.813 353.313C752.103 352.415 753.28 351.468 754.197 350.069L754.404 349.738L754.324 349.738C755.323 348.019 754.675 345.678 752.47 344.957Z" fill="black"/>
<path fill-rule="evenodd" clip-rule="evenodd" d="M505.427 445.454C512.793 447.592 520.7 447.787 528.21 445.588C535.022 443.593 542.018 439.198 547.033 433.38C551.489 428.212 554.377 421.931 554.267 415.223C554.254 414.457 553.981 413.818 553.56 413.321C553.107 412.787 552.473 412.42 551.795 412.26C551.097 412.096 550.359 412.153 549.73 412.438C549.162 412.697 548.674 413.135 548.369 413.776C547.598 414.788 546.83 415.784 546.059 416.753C539.861 424.398 533.859 430.111 524.544 432.156C519.49 433.265 514.444 432.769 509.814 431.069C504.857 429.249 500.378 426.052 496.869 421.962C495.283 420.114 493.41 419.359 491.578 419.345C489.502 419.329 487.449 420.293 485.903 421.834C484.382 423.349 483.364 425.408 483.27 427.562C483.188 429.453 483.804 431.428 485.444 433.191C490.846 438.999 497.849 443.255 505.427 445.454ZM505.708 349.663C498.154 354.249 486.642 364.945 494.759 376.329C504.316 386.368 518.089 374.871 524.877 369.672C531.17 365.644 538.232 376.018 532.393 380.723C483.349 416.991 463.491 350.84 501.891 344.264C506.119 343.539 507.687 348.244 505.708 349.663ZM576.358 329.505C578.786 327.954 581.641 327.423 584.805 328.864C587.277 329.99 591.612 333.741 594.627 338.67C596.69 342.043 598.152 345.998 597.845 350.117C597.773 351.074 598.127 351.78 598.684 352.302C599.124 352.714 599.76 353.017 600.507 353.112C601.141 353.193 601.851 353.121 602.429 352.941C603.527 352.599 604.109 351.886 604.328 351.305C606.444 345.694 605.538 339.431 603.172 333.779C599.98 326.153 594.179 319.762 590.377 317.701C583.872 314.172 576.195 314.006 569.676 317.593C564.127 320.647 560.655 325.579 557.202 330.607C556.468 331.676 555.74 332.737 554.987 333.78C553.478 335.868 553.327 337.94 553.91 339.718C554.556 341.687 556.204 343.349 558.266 344.22C560.171 345.024 562.384 345.139 564.342 344.314C565.996 343.617 567.514 342.259 568.476 339.952C570.095 336.067 572.793 331.782 576.358 329.505ZM453.088 338.081C454.749 338.948 456.05 339.21 457.894 338.658C458.914 338.353 459.922 337.766 460.711 336.978C461.494 336.196 462.058 335.224 462.278 334.145C462.819 331.483 464.277 328.992 466.354 327.369C468.129 325.981 470.369 325.246 472.852 325.663C475.533 326.112 478.085 327.832 479.843 329.86C480.431 330.538 480.891 331.309 481.354 332.074C482.22 333.505 483.061 334.836 484.256 335.887C484.709 336.287 485.391 336.564 486.052 336.565C486.321 336.565 486.594 336.521 486.854 336.44C489.523 333.764 490.037 331.733 489.952 329.718C489.863 327.606 489.032 325.466 487.687 323.469C484.532 318.785 478.538 314.943 474.493 314.072C468.953 312.878 463.45 314.304 459.037 317.396C454.496 320.578 451.13 325.519 450.078 331.09C449.825 332.432 449.931 333.88 450.442 335.136C450.94 336.363 451.81 337.415 453.088 338.081ZM564.166 279.581C567.49 282.822 571.425 283.326 575.406 283.774C577.618 284.026 579.384 284.229 581.121 284.622C585.897 285.703 590.617 287.329 594.923 289.67C599.425 292.117 604.33 295.068 607.858 298.847C608.697 299.747 609.488 300.69 610.279 301.636C611.001 302.498 611.697 303.328 612.43 304.129C613.272 305.048 614.072 306.012 614.867 306.973C615.358 307.784 615.455 307.983 615.554 308.191C615.703 308.503 615.877 308.852 616.075 309.226C616.346 309.739 616.663 310.3 616.996 310.81C617.549 311.74 617.846 311.996 618.102 312.111C618.528 312.301 618.932 312.395 619.324 312.344C619.692 312.297 620.038 312.121 620.38 311.832C622.088 310.391 622.593 308.024 622.543 305.511C622.467 301.699 621.063 297.476 619.768 294.881C616.757 288.849 612.58 282.579 607.555 278.076C601.822 272.936 595.549 269.043 588.342 266.359C583.864 264.691 578.679 263.159 573.798 263.35C570.286 263.487 566.932 264.529 564.161 267.135C562.46 268.735 561.642 271.011 561.641 273.286C561.639 275.607 562.486 277.942 564.166 279.581ZM446.341 309.18C446.553 309.527 446.845 309.766 447.171 309.91C447.512 310.06 447.893 310.104 448.259 310.042C448.623 309.981 448.969 309.816 449.244 309.564C449.507 309.323 449.708 309.002 449.798 308.609C452.01 298.915 456.301 291.704 465.452 287.057C469.954 284.771 475.13 283.32 480.03 282.164C481.453 281.827 482.958 281.61 484.473 281.39C489.221 280.699 494.004 279.908 497.101 276.072C498.967 273.761 499.752 270.805 499.311 268.101C498.895 265.555 497.409 263.22 494.706 261.819C487.975 258.335 479.607 261.746 472.806 264.652C472.302 264.867 471.807 265.079 471.322 265.283C464.672 268.086 458.606 271.787 453.618 277.082C449.661 281.283 445.993 287.494 444.514 293.885C443.283 299.202 443.569 304.63 446.341 309.18Z" fill="black"/>
<path fill-rule="evenodd" clip-rule="evenodd" d="M405.446 323.523C414.945 388.017 481.495 395.186 493.355 331.17C491.458 330.338 490.094 328.701 490.38 325.526C490.455 311.574 486.132 296.825 473.55 289.059C460.549 281.046 445.328 280.244 430.277 280.437C401.556 279.737 402.146 303.745 405.446 323.523ZM503.794 295.53C512.808 295.155 524.212 295.479 532.284 300.976C534.507 294.999 540.279 288.619 546.109 285.209C524.446 285.831 502.149 283.687 480.326 282.02C485.548 285.584 490.405 290.937 493.561 297.123C496.493 295.562 500.691 295.71 503.794 295.53ZM543.507 330.436C568.454 416.486 630.866 379.02 637.674 367.998C649.953 349.759 652.285 305.406 641.605 293.541C626.313 282.809 604.654 285.557 586.583 285.284C553.381 285.713 529.796 295.632 543.507 330.436ZM375.952 290.772C382.743 289.888 390 289.713 396.312 292.706C398.261 284.445 404.368 277.54 411.26 274.504C412.095 273.458 411.97 272.896 414.819 273.055C432.317 267.806 451.893 270.599 468.702 276.001C495.252 278.251 523.108 280.03 549.882 283.125C574.97 271.875 650.664 270.266 655.353 298.032C661.27 297.15 671.35 292.499 676.318 298.818C712.793 292.655 750.473 301.269 787.1 305.117C796.319 306.82 801.058 325.12 790.592 324.864C784.709 323.264 790.779 313.471 782.856 312.729C747.518 308.85 712.953 303.355 677.25 302.694C678.489 308.86 653.632 309.247 653.267 305.647C653.214 305.674 653.158 305.691 653.104 305.715C659.234 328.609 653.671 361.548 642.564 375.736C627.001 394.313 587.953 399.623 570.647 387.656C548.32 376.607 525.118 321.192 531.654 302.789C519.812 299.029 508.102 300.149 495.809 302.055C498.619 310.005 503.466 329.576 496.476 331.269C497.738 370.12 462.367 394.341 429.782 378.386C401.578 365.127 391.736 323.204 395.202 297.763C391.686 304.547 362.202 297.143 375.952 290.772Z" fill="black"/>
</g>
<defs>
<clipPath id="clip0_162_1194">
<rect width="1151.1" height="1151.1" rx="575.552" transform="matrix(-1 -0.000552907 -0.000552907 1 1152.25 0.636475)" fill="white"/>
</clipPath>
</defs>
</svg>
