<svg width="1152" height="1152" viewBox="0 0 1152 1152" fill="none" xmlns="http://www.w3.org/2000/svg">
<g clip-path="url(#clip0_162_1195)">
<rect width="1151.1" height="1151.1" rx="575.552" transform="matrix(-1 -0.000552907 -0.000552907 1 1151.74 0.762695)" fill="#FF3656"/>
<rect width="229" height="282" transform="matrix(-1 0 0 1 575.87 767.496)" fill="#FDB46B"/>
<path fill-rule="evenodd" clip-rule="evenodd" d="M642.664 491.669C617.979 472.872 556.006 464.419 529.66 482.518C503.638 500.693 500.801 530.085 488.675 557.123C477.234 551.728 458.34 559.454 455.023 570.07C450.909 575.077 450.724 589.145 447.887 595.876C324.445 615.525 305.705 711.763 290.847 821.021C271.191 931.89 226.57 1042.52 245.941 1156.6C243.417 1160.26 241.427 1163.81 239.587 1168.02C235.178 1175.52 240.857 1186.14 249.75 1185.73C261.26 1184.72 272.658 1183.34 284.223 1182.91C316.282 1181.8 348.371 1181.93 380.443 1182.34L384.817 1182.39C546.45 1184.41 708.074 1188.37 869.714 1189.42C875.578 1189.43 878.449 1184.17 877.666 1178.98C876.089 1168.54 874.626 1158.09 873.099 1147.64C911.331 1157.74 951.975 1160.28 990.099 1148.7C992.766 1145.98 983.885 1147.46 982.476 1147.04C1017.56 1123.07 1007.08 1072.56 1003.98 1036.18C984.65 911.532 977.837 773.614 903.168 667.247C870.865 623.839 823.506 589.471 769.087 581.738L767.577 581.532C751.665 579.41 733.931 578.726 720.019 570.07C704.371 557.579 697.703 534.498 681.242 534.282C675.806 534.211 668.412 541.087 660.455 545.756C659.861 535.486 654.326 526.818 653.103 518.855L653.005 518.174C651.729 508.89 653.476 500.537 642.664 491.669ZM377.375 824.314C412.066 800.215 501.679 812.324 503.73 813.673C508.247 816.645 510.193 816.907 512.636 820.765C515.048 821.085 517.458 821.417 519.866 821.759C524.697 823.337 521.117 829.279 515.537 827.159C518.893 841.634 509.016 851.927 505.084 866.237C503.807 870.883 505.037 879.239 505.084 883.986C504.702 890.039 498.01 897.189 499.125 903.261C503.091 924.851 524.609 945.911 515.537 966.847C509.527 978.672 491.451 984.702 479.433 988.722C454.534 998.278 411.149 988.362 396.682 966.847C388.966 955.372 380.026 926.424 375.425 917.445L374.405 903.201C371.89 867.795 369.653 829.679 377.375 824.314Z" fill="#FFCEAC"/>
<path fill-rule="evenodd" clip-rule="evenodd" d="M682.525 534.346L672.598 540.439L614.939 568.941C603.761 572.07 598.173 575.821 598.173 580.194L598.173 624.713C598.173 630.67 587.683 644.172 566.704 665.219L547.322 645.897L547.756 643.368C549.6 632.467 550.522 625.176 550.522 621.493C550.522 617.532 531.56 602.497 493.637 576.387L477.046 560.767L478.815 555.387C468.585 555.871 457.491 562.17 455.023 570.07C450.909 575.077 450.724 589.145 447.887 595.876C324.445 615.525 305.705 711.763 290.847 821.021C271.191 931.89 226.57 1042.52 245.941 1156.6C243.417 1160.26 241.427 1163.81 239.587 1168.02C235.178 1175.52 240.857 1186.14 249.75 1185.73C261.26 1184.72 272.658 1183.34 284.223 1182.91C316.282 1181.8 348.371 1181.93 380.443 1182.34L384.817 1182.39C546.45 1184.41 708.074 1188.37 869.714 1189.42C875.578 1189.43 878.449 1184.17 877.666 1178.98C876.089 1168.54 874.626 1158.09 873.099 1147.64C911.331 1157.74 951.975 1160.28 990.099 1148.7C992.766 1145.98 983.885 1147.46 982.476 1147.04C1017.56 1123.07 1007.08 1072.56 1003.98 1036.18C984.65 911.532 977.837 773.614 903.168 667.247C870.865 623.839 823.506 589.471 769.087 581.738L767.577 581.531L766.056 581.333C750.543 579.358 733.489 578.452 720.019 570.07C704.784 557.909 698.062 535.709 682.525 534.346ZM544.368 795.652C550.023 795.652 561.605 804.434 579.114 821.998L580.656 822.711C601.821 832.542 615.842 841.07 622.72 848.295L622.965 848.555C629.913 856.009 643.671 875.829 664.24 908.015L694.027 925.63L705.297 925.63L713.322 983.834L694.027 1025.39L650.323 1010.67L579.114 991.902L538.252 950.447L515.202 942.709C517.998 950.788 519.012 958.827 515.537 966.847C509.527 978.672 491.451 984.702 479.433 988.722C454.534 998.278 411.149 988.362 396.682 966.847C388.966 955.372 380.026 926.424 375.425 917.445L374.105 898.942C371.727 864.798 369.962 829.464 377.375 824.314C412.066 800.215 501.679 812.324 503.73 813.673C508.247 816.644 510.193 816.907 512.636 820.765L513.9 820.934L506.788 811.289L509.307 809.945C527.274 800.416 538.962 795.652 544.368 795.652ZM515.537 827.159C518.75 841.016 509.834 851.042 505.617 864.427L516.391 843.803L516.391 827.427C516.112 827.358 515.827 827.27 515.537 827.159Z" fill="#9DDADB"/>
<path fill-rule="evenodd" clip-rule="evenodd" d="M687.286 532.194C684.891 530.073 681.347 532.738 682.869 535.603C686.289 542.042 689.797 548.143 694.387 553.835C697.17 557.286 700.151 560.55 703.172 563.778C695.419 570.485 688.77 578.812 682.491 586.616C674.462 596.597 666.871 607.001 657.858 616.134C648.969 625.141 639.14 631.438 627.257 635.636L624.856 636.47C612.918 640.661 600.159 646.321 593.43 657.624C592.103 659.853 594.775 662.607 597.021 661.216C608.714 653.976 622.453 652.52 635.181 647.736C647.476 643.115 658.194 636.003 667.664 626.926C677.118 617.864 685.056 607.554 693.336 597.462C701.524 587.483 710.34 578.96 720.025 570.517C734.97 580.572 752.03 584.947 769.377 589.244L771.271 589.712C788.639 594.012 805.914 599.006 822.208 606.494C836.574 613.095 850.704 620.978 862.406 631.72C874.828 643.12 884.496 657.68 893.345 671.919C913.139 703.775 927.055 738.675 939.306 773.999C952.048 810.741 962.706 848.219 971.31 886.142C975.686 905.432 979.24 924.859 982.161 944.422C983.567 953.844 984.816 963.286 985.913 972.749C987.084 982.854 987.353 993.25 990.453 1002.97C991.782 1007.13 994.92 1008.86 998.061 1008.71L998.699 1016.69C999.545 1027.33 1000.33 1037.97 1000.6 1048.67C1001.04 1066.47 1000.84 1084.22 999.561 1101.98L999.38 1104.4C998.374 1117.36 996.126 1131.93 986.379 1141.42C976.285 1151.25 960.762 1154.34 947.157 1154.52C915.47 1154.93 884.968 1139.96 856.928 1126.82C828.05 1113.29 799.961 1098.28 772.545 1082C758.583 1073.7 744.772 1065.13 731.137 1056.31C724.446 1051.99 717.802 1047.58 711.208 1043.11C707.431 1040.55 703.852 1037.74 700.007 1035.47C701.891 1033.71 702.732 1030.95 701.154 1028.55C712.269 1018.9 716.895 1001.68 717.436 987.75C717.873 976.505 716.218 965.292 714.912 954.153C714.253 948.536 713.439 942.929 712.594 937.337C712.26 935.128 712.005 932.765 711.615 930.433C741.628 946.926 772.482 961.614 804.153 974.663C820.387 981.352 836.829 987.366 853.498 992.877L856.876 993.989C872.67 999.159 888.842 1004.04 905.17 1007C906.043 1007.16 906.752 1005.87 905.82 1005.46C889.908 998.435 873.445 992.513 857.294 986.047L854.64 984.966C854.945 984.949 855.261 984.907 855.591 984.828C865.063 982.542 874.461 979.019 883.751 976.053C892.373 973.3 902.06 971.571 910.119 967.415C910.739 967.095 910.392 966.233 909.788 966.192C900.73 965.564 890.897 968.204 882.016 969.757L878.679 970.342C873.09 971.327 867.377 972.387 861.816 973.768C861.615 971.905 860.574 970.034 859.093 968.937C842.796 956.868 844.451 932.492 842.708 914.517L841.415 901.172C839.142 877.817 836.737 854.465 833.083 831.284C832.888 830.046 830.973 830.401 830.965 831.57C830.776 860.305 832.945 888.907 834.033 917.597L834.201 922.304C834.802 940.006 835.273 958.389 846.423 972.01C844.864 971.099 842.756 971.099 841.493 972.601C839.941 974.448 839.045 976.522 839.073 978.557C828.998 974.333 818.967 969.999 808.985 965.577C776.892 951.359 745.472 935.448 714.883 918.232C711.591 916.379 708.462 917.835 706.834 920.278L706.599 920.245C706.559 920.239 706.52 920.235 706.479 920.234L706.246 920.224C706.237 920.224 706.228 920.225 706.22 920.225C701.914 917.859 696.048 919.544 692.353 922.995C692.244 923.099 692.151 923.211 692.054 923.321C687.376 921.221 683.008 918.386 679.044 914.793C670.932 907.441 664.061 898.35 658.071 889.234C647.04 872.444 637.67 853.773 622.769 839.952C610.662 828.723 595.652 821.732 579.905 817.343C579.971 816.883 579.795 816.393 579.477 816.067C578.668 815.238 578.091 814.951 577.046 815.454C576.963 815.495 576.913 815.551 576.879 815.611L575.342 812.986C574.503 811.561 573.642 810.126 573.344 809.749C571.556 807.498 569.716 805.264 567.848 803.077C564.681 799.374 561.072 795.72 556.893 793.152C547.743 787.531 538.124 790.712 528.717 793.784C523.033 795.641 517.368 797.558 511.694 799.443L511.108 799.634C506.877 800.994 501.927 802.183 500.035 806.665C499.286 808.439 499.17 810.28 499.519 812.066C459.335 801.847 414.703 806.542 375.49 818.538C373.985 818.998 372.482 820.236 372.165 821.862C367.672 844.903 365.671 868.532 367.704 891.966C369.458 912.194 373.94 932.017 382.386 950.536L382.866 951.582C390.803 968.744 403.384 989.901 422.597 995.28C434.198 998.528 447.029 996.613 458.861 996.018C470.36 995.439 482.114 995.355 493.504 993.547C503.648 991.937 512.536 987.39 518.805 979.142C524.213 972.026 527.061 963.426 529.394 954.871C530.462 955.211 531.523 955.572 532.567 955.981C536.974 957.702 540.708 960.48 544.084 963.749C551.213 970.653 556.743 979.038 564.202 985.626C570.954 991.59 578.648 996.228 586.901 999.794C604.002 1007.18 622.348 1010.14 640.437 1014.05L641.699 1014.33C655.317 1017.32 669.217 1020.98 681.237 1028.07C681.472 1030.16 682.423 1032.13 683.947 1033.41C681.827 1035.4 680.929 1038.56 682.792 1041.51C687.995 1049.77 696.959 1054.47 705.006 1059.75L705.53 1060.1C713.446 1065.35 721.431 1070.49 729.481 1075.53C745.846 1085.77 762.553 1095.46 779.496 1104.71C806.747 1119.6 834.583 1133.64 862.923 1146.38C861.222 1154.75 861.843 1163.38 860.565 1171.8L860.369 1173C859.822 1176.13 860.56 1178.75 862.714 1180.79L862.942 1181L862.938 1180.97L863.14 1181.16L863.207 1181.21L863.185 1181.19C863.433 1181.42 863.689 1181.63 863.95 1181.81L864.283 1182.03C866.357 1183.29 869.027 1183.27 871.151 1182.16L871.394 1182.03L871.802 1181.79C874.608 1180.18 876.543 1176.18 875.379 1173C872.518 1165.2 871.437 1156.86 868.795 1149L870.891 1149.94L873.653 1151.14C903.531 1164.06 936.719 1174.94 969.274 1166.14C983.658 1162.24 997.102 1154.01 1004.3 1140.59C1011.38 1127.38 1012.38 1112.05 1012.76 1097.36C1013.22 1079.23 1012.25 1060.82 1009.86 1042.84C1008.25 1030.78 1006.31 1018.48 1003.32 1006.54C1004.86 1005.18 1005.99 1003.24 1006.29 1000.82C1007.7 989.416 1005.23 977.559 1003.72 966.213C1002.24 955.135 1000.6 944.079 998.755 933.057C995.024 910.798 990.689 888.586 985.642 866.588C976.66 827.437 964.799 788.982 950.519 751.446L949.268 748.177C936.073 713.868 920.794 680.29 899.52 650.15C889.343 635.73 878.585 622.656 864.205 612.265C850.733 602.529 835.537 595.519 819.855 590.161C804.156 584.799 788.02 581.206 771.599 578.971C754.922 576.701 737.319 575.309 721.762 568.469C723.73 564.941 722.041 560.178 718.729 557.99C707.583 550.626 697.276 541.046 687.286 532.194ZM330.48 852.416C330.013 851.707 328.904 852.155 329.109 852.994C334.53 875.203 339.619 897.457 342.942 920.09C348.94 960.939 347.837 1002.32 347.347 1043.47L347.322 1045.6C347.07 1067.77 346.72 1089.94 345.987 1112.09C345.617 1123.29 344.885 1134.6 345.283 1145.8C345.5 1151.88 347.12 1157.63 347.694 1163.64C348.197 1168.89 347.749 1174.22 347.498 1179.48C347.33 1182.97 352.49 1182.82 352.841 1179.48L353.29 1175.15C353.873 1169.67 354.593 1164.22 356.389 1158.98C358.548 1152.67 359.584 1146.48 360.333 1139.86C361.48 1129.71 361.99 1119.46 362.433 1109.24L362.736 1102.17C364.585 1059.47 364.52 1016.56 361.527 973.905L361.308 970.859C358.344 930.535 353.201 886.966 330.48 852.416ZM446.035 598.269C447.451 597.687 446.955 595.546 445.387 595.919L442.535 596.599C421.641 601.604 401.125 607.026 381.623 616.339C362.108 625.657 345.586 639.568 332.458 656.674C306.938 689.925 296.333 730.335 287.961 770.707C278.657 815.568 270.186 860.593 260.801 905.44L259.058 913.794C250.374 955.563 242.175 997.357 236.134 1039.62L235.7 1042.69C229.608 1086.15 225.943 1131.11 232.591 1174.69C233.906 1183.31 248.252 1181.16 247.691 1172.65C246.071 1148.02 244.911 1123.53 246.032 1098.85C247.154 1074.17 249.469 1049.59 252.92 1025.13C255.824 1004.54 260.153 984.202 263.984 963.775L264.585 960.549C267.793 943.175 271.1 925.819 274.4 908.461L279.331 882.474C286.722 843.561 294.258 804.613 302.773 765.945L303.278 763.67C311.611 726.467 323.896 687.498 348.891 657.956C374.256 627.975 410.567 612.876 446.035 598.269ZM538.202 992.867C537.592 991.508 535.458 991.657 534.802 992.867C532.231 997.609 531.946 1003.66 531.46 1009.02L531.409 1009.57C530.791 1016.1 530.244 1022.66 529.909 1029.21C529.274 1041.65 528.97 1054.07 529.009 1066.53C529.049 1079.29 529.306 1092.04 529.994 1104.78L530.181 1108.2C530.809 1119.28 531.862 1131.63 537.125 1141.31C539.038 1144.83 544.241 1143.8 545.349 1140.24C548.979 1128.58 547.115 1114.76 546.184 1102.82L545.461 1093.51C544.745 1084.19 544.062 1074.87 543.521 1065.55C542.779 1052.78 542.167 1040.01 541.578 1027.25C541.386 1023.1 541.18 1018.95 540.961 1014.8L540.625 1008.59C540.338 1003.38 540.362 997.676 538.202 992.867ZM946.35 1009.39L944.743 1007.83C939.81 1003.01 933.576 995.571 926.283 996.033C923.375 996.216 921.522 998.63 922.125 1001.49C923.413 1007.61 929.652 1010.78 934.143 1014.52C939.063 1018.6 943.7 1022.98 948.328 1027.39C952.434 1031.3 956.383 1035.33 960.236 1039.48L961.677 1041.04C963.059 1042.54 972.896 1051.44 971.832 1053.75L971.774 1053.85C971.478 1054.3 971.971 1054.9 972.462 1054.75C976.71 1053.41 976.445 1049.77 974.839 1046.08C971.753 1038.99 966.349 1032.43 961.63 1026.38C956.924 1020.34 951.83 1014.72 946.35 1009.39ZM522.809 831.633C526.094 823.869 538.195 824.032 545.065 824.496C562.365 825.665 581.083 830.042 596.476 838.128C612.434 846.511 623.184 859.943 632.803 874.796L633.253 875.493C642.628 890.066 651.657 907.317 666.337 917.337C673.814 922.442 682.545 927.103 691.617 929.122C692.24 930.217 693.249 931.084 694.572 931.399L695.187 931.54C697.77 932.111 701.785 932.742 705.252 932.364C705.229 934.06 705.247 935.743 705.204 937.35C705.082 941.955 705.03 946.58 705.03 951.188C705.028 960.843 705.547 970.517 705.144 980.171C704.787 988.71 703.581 997.632 699.481 1005.27C696.474 1010.87 692.505 1014.57 687.714 1018.11C675.928 1010.93 662.601 1006.55 649.075 1003.26C632.717 999.275 615.968 996.618 599.982 991.22C592.288 988.621 584.891 985.22 578.189 980.601C571.076 975.696 565.643 969.06 560.053 962.569L559.179 961.561C553.474 955.018 547.249 948.757 539.187 945.21C532.244 942.154 523.093 941.61 517.022 936.882C513.848 934.408 513.582 930.818 513.248 927.142C517.136 927.698 521.252 926.807 525.127 926.353L527.134 926.118C530.798 925.682 534.378 925.204 537.986 924.271C538.656 924.098 538.656 923.088 537.986 922.915C533.723 921.814 529.498 921.345 525.127 920.833L524.1 920.705C520.146 920.187 515.989 919.404 512.111 920.274C511.415 917.626 510.41 915.098 509 912.566C507.021 909.009 503.276 904.976 502.77 900.821C502.619 899.58 502.908 898.117 503.493 897.02L503.694 896.646C503.94 896.205 504.231 895.761 504.658 895.485C504.705 895.54 504.805 895.603 505.022 895.671C508.007 896.611 510.611 895.15 511.993 892.898C517.86 893.626 524.263 893.381 529.765 893.624L535.328 893.893C541.272 894.166 547.486 894.285 553.072 893.084C553.852 892.917 554.088 891.619 553.307 891.285C546.44 888.348 538.11 887.411 530.758 886.283C526.652 885.652 522.516 885.172 518.398 884.617C515.656 884.247 512.746 883.636 509.905 883.489C502.782 874.622 506.62 860.634 516.533 856.816C520.144 858.403 523.391 857.48 527.336 857.141C531.274 856.803 535.222 856.574 539.176 856.591C547.099 856.626 555.495 858.71 563.341 857.813C564.617 857.666 565.803 855.968 564.534 854.932C558.528 850.031 549.92 848.433 542.297 847.389L540.717 847.177C538.161 846.842 535.053 846.353 531.829 846.062C531.1 844.64 529.792 843.565 527.827 843.298C527.243 843.218 526.656 843.171 526.07 843.121L526.079 843.063C521.287 842.833 521.495 834.739 522.809 831.633ZM850.878 983.058C850.962 983.189 851.055 983.313 851.154 983.433L851.306 983.609L850.518 983.289L850.878 983.058ZM439.187 814.284C459.357 812.117 479.556 812.574 499.786 813.156C501.404 818.448 507.036 822.958 512.493 823.128C508.219 829.633 507.778 838.437 510.775 845.336C504.412 847.869 498.93 852.419 495.602 858.899C490.987 867.882 491.591 877.878 496.152 886.18C492.259 889.704 489.962 895.427 490.192 900.821C490.449 906.836 494.034 911.974 497.013 916.954C500.232 922.34 500.34 927.082 501.329 933.114C502.776 941.942 508.73 947.296 516.391 950.64L515.983 952.242C514.008 959.93 511.551 968.043 505.906 973.664C498.644 980.897 487.378 980.829 477.784 981.288L477.321 981.31C468.535 981.75 459.753 982.264 450.971 982.762L444.384 983.13C434.272 983.686 424.561 983.753 416.306 977.068C402.829 966.156 393.59 948.097 387.742 932.11C375.468 898.554 375.321 861.729 380.955 826.781C399.85 820.691 419.455 816.404 439.187 814.284ZM606.925 869.956L606.777 869.966C602.624 870.44 599.771 873.803 598.755 877.792C597.279 883.59 598.003 888.832 594.452 894.066C590.799 899.448 588.553 903.757 588.022 910.406C587.804 913.142 587.904 915.871 587.295 918.549L586.854 920.426C586.385 922.426 586.001 924.353 586.234 926.501C586.447 928.46 587.401 929.986 589.366 930.615C595.769 932.662 600.713 927.944 602.367 921.978C603.796 916.823 601.888 910.681 603.904 905.841C605.021 903.158 607.081 900.914 608.245 898.214C609.398 895.536 609.977 892.74 610.162 889.829C610.513 884.326 605.645 877.712 608.361 872.725C608.939 871.661 608.284 869.923 606.925 869.956ZM691.978 813.158C687.642 812.277 682.723 810.258 678.447 811.936C676.249 812.8 675.163 815.48 677.02 817.343C680.244 820.575 684.93 820.755 689.273 821.517L689.655 821.586C694.79 822.536 699.934 823.437 705.085 824.291C714.776 825.896 724.49 827.315 734.238 828.521C744.25 829.76 754.29 830.863 764.344 831.693L768.236 832.012C776.729 832.691 785.566 833.203 793.899 831.903C795.11 831.714 794.915 829.951 793.899 829.642C784.77 826.879 774.756 826.138 765.318 824.969C755.284 823.724 745.267 822.409 735.276 820.849C725.301 819.291 715.339 817.619 705.414 815.771C700.928 814.937 696.449 814.066 691.978 813.158ZM535.524 804.286C539.329 802.939 543.515 800.943 547.638 801.611C554.748 802.763 561.076 809.69 566.704 814.252L563.878 813.703C549.418 810.924 530.27 807.93 518.133 817.123C518.102 817.07 518.078 817.017 518.043 816.964C517.063 815.476 515.928 814.315 514.689 813.042C514.57 812.931 514.456 812.815 514.343 812.698L513.675 811.986L515.204 811.457C518.478 810.299 522.358 808.804 522.971 808.586L523.014 808.571C527.189 807.157 531.369 805.759 535.524 804.286ZM654.325 501.212C654.92 493.559 643.009 493.622 642.419 501.212C641.132 517.782 644.861 534.195 652.887 548.722C652.946 548.828 653.011 548.922 653.073 549.022C648.053 551.634 642.976 554.14 637.786 556.38C631.147 559.246 624.383 561.856 617.498 564.07C611.27 566.074 603.597 566.865 598.361 571.035C587.32 579.827 591.468 598.073 593.592 609.9L593.924 611.767C594.981 617.853 595.746 624.097 593.18 629.938C590.44 636.177 584.899 640.805 579.956 645.269L578.958 646.174C574.579 650.163 569.575 655.011 566.363 660.419C563.431 654.357 559.434 649.403 555.208 643.826C552.193 639.846 554.339 638.534 556.505 634.646C558.59 630.904 559.608 626.915 558.956 622.646C557.753 614.762 551.452 609.067 545.18 604.788C537.773 599.737 529.506 595.995 521.849 591.296C506.115 581.642 490.792 570.604 476.987 558.345C476.606 558.006 475.946 558.45 476.251 558.913C487.156 575.5 499.943 589.833 515.658 601.999C522.03 606.932 528.724 611.024 535.463 615.326L537.4 616.569C540.106 618.322 543.481 620.664 544.704 623.648C545.935 626.649 543.31 628.915 541.897 631.401C537.41 639.296 539.575 646.661 544.895 653.356L545.142 653.665C550.428 660.179 554.434 666.237 556.35 674.559C560.467 692.436 554.733 711.057 548.73 727.839L548.493 728.501C545.246 737.547 541.795 746.527 538.974 755.718L538.198 758.259C535.642 766.716 533.549 775.056 536.416 783.75C537.391 786.707 541.424 787.406 543.099 784.623C549.008 774.809 550.481 762.999 554.185 752.209C557.795 741.693 561.94 731.367 565.427 720.808C569.917 707.213 572.922 692.579 571.291 678.319C571.339 678.236 571.392 678.158 571.432 678.07L572.575 675.57C575.692 668.8 578.702 662.888 584.37 657.492C590.282 651.863 596.699 646.88 601.351 640.066C611.456 625.265 605.207 608.8 603.986 592.616L603.846 590.631C603.625 587.271 603.503 582.705 605.698 580.379C608.167 577.761 613.957 577.093 617.233 575.934C625.699 572.938 634.042 569.447 641.988 565.255C649.552 561.265 656.879 556.857 663.701 551.693L667.159 549.092C672.615 544.975 678.272 540.48 681.928 534.877C682.35 534.232 681.633 533.191 680.869 533.5C674.765 535.977 669.188 539.917 663.477 543.345C663.388 543.136 663.285 542.925 663.168 542.713C656.102 529.925 653.196 515.757 654.325 501.212ZM459.342 588.827C456.91 582.158 445.826 582.673 446.268 590.597C446.607 596.685 449.191 602.179 451.555 607.707L451.807 608.299C454.247 614.058 457.065 619.465 460.437 624.743C466.88 634.833 474.427 644.197 482.488 653.034C489.796 661.046 499.388 665.945 510.441 665.131C515.098 664.788 519.799 663.603 523.88 661.277C528.727 658.513 533.991 650.214 540.175 652.224C540.773 652.418 541.331 651.542 540.814 651.127C533.675 645.378 525.572 654.292 518.737 656.44C508.438 659.675 497.869 656.098 491.24 647.772C484.319 639.079 477.949 629.346 472.132 619.881C469.178 615.075 466.483 610.087 464.155 604.946C461.806 599.757 461.272 594.118 459.342 588.827ZM475.943 547.785C476.243 546.864 475.099 545.988 474.29 546.514C469.599 549.568 465.534 553.603 461.207 557.14C456.406 561.064 451.57 564.908 446.659 568.693C439.5 574.212 447.803 584.372 454.105 578.343C462.729 570.096 472.174 559.312 475.943 547.785ZM501.698 515.505C499.793 508.157 488.521 511.187 490.164 518.45L490.217 518.671C493.328 530.668 488.897 542.881 479.439 550.659L479.09 550.941C473.106 555.73 481.584 564.102 487.509 559.359C500.444 549.007 505.825 531.422 501.698 515.505Z" fill="black"/>
<path fill-rule="evenodd" clip-rule="evenodd" d="M407.197 333.499C409.345 314.584 406.565 275.048 406.379 272.646C405.201 257.461 412.301 197.498 425.723 203.023C448.237 185.162 478.225 181.218 506.265 179.334C564.51 175.42 626.471 184.405 671.446 223.685C693.688 244.084 715.341 273.753 713.601 304.645C733.809 333.927 762.298 374.094 737.12 408.327C728.561 419.264 714.958 423.337 704.207 431.62C682.581 449.1 669.013 474.186 647.182 491.562C589.344 543.645 491.135 554.525 434.309 495.285C390.366 452.381 397.472 388.195 405.201 333.499C410.397 296.726 403.006 370.4 407.197 333.499Z" fill="#FFCEAC"/>
<path fill-rule="evenodd" clip-rule="evenodd" d="M584.072 99.1209C568.495 95.9709 552.5 94.0109 536.592 94.6009L535.366 94.6487C523.397 95.128 508.24 96.1884 497.798 103.163C497.198 102.559 496.232 102.249 495.356 102.668C482.948 108.603 469.301 112.894 456.236 117.158C443.232 121.401 429.74 124.202 416.11 125.331C410.982 125.756 406.593 131.305 409.84 136.282C410.613 137.468 411.365 138.666 412.115 139.867C410.861 139.736 409.608 139.601 408.355 139.474C404.23 139.058 400.11 143.469 400.354 147.493C400.507 150.024 400.78 152.525 401.183 154.996C399.612 154.963 398.05 155.199 396.542 155.838C388.902 159.071 389.434 168.19 390.005 175.128C390.798 184.756 394.391 194.954 401.063 202.16C396.081 207.345 392.555 213.537 390.451 220.891C388.926 226.261 388.076 231.981 388.496 237.571L388.629 239.245C389.147 245.311 390.178 252.027 394.533 256.391C396.768 258.641 399.522 259.461 402.148 259.201C400.56 273.181 399.542 287.241 398.584 301.251L398.135 307.947C395.998 340.327 394.392 372.918 394.812 405.351C395.202 435.661 401.179 465.081 419.73 489.691C436.625 512.101 460.883 528.621 488.324 534.901C503.113 538.291 518.211 538.531 533.18 536.371C540.435 535.321 547.739 533.711 554.625 531.171C562.248 528.351 567.727 524.201 572.856 517.981C575.282 515.031 574.114 508.751 569.283 509.341C561.977 510.229 555.308 511.299 548.304 513.464L547.301 513.781C540.325 516.021 533.1 517.691 525.806 518.401C510.867 519.851 495.7 518.391 481.389 513.851C458.088 506.451 438.021 489.961 425.158 469.241C409.89 444.681 408.164 416.801 408.384 388.561C408.621 357.573 409.627 326.566 411.268 295.61L411.548 290.451C412.416 274.521 413.254 258.581 413.992 242.641C414.221 237.641 414.57 232.601 415.2 227.611C420.957 224.231 426.116 219.571 429.479 213.821C436.235 216.621 443.34 218.641 449.877 220.251C465.019 223.983 480.74 224.889 496.152 222.552C500.309 224.273 504.549 225.786 508.854 227.088C510.018 227.605 511.181 228.113 512.344 228.611C522.723 233.061 533.251 236.831 544.206 239.591L546.898 240.264C552.663 241.688 558.926 243.09 565.062 243.531C566.07 243.921 567.158 244.251 568.346 244.541C573.934 245.901 579.732 246.331 585.459 245.851C591.038 245.381 595.07 239.731 591.996 234.441C589.751 230.581 587.485 226.731 585.2 222.891C593.153 226.211 601.366 228.971 609.648 231.311C618.01 233.671 626.492 235.661 634.985 237.491C639.526 238.461 644.085 239.321 648.616 240.291C651.859 240.981 656.838 241.341 659.484 243.481C662.406 245.831 663.235 251.311 664.343 254.691C665.8 259.081 667.167 263.491 668.415 267.951C670.899 276.851 672.934 285.881 674.511 295.001C676.088 304.131 677.146 313.351 677.735 322.601C678.323 331.841 678.064 341.141 679.011 350.341C679.521 355.221 684.749 357.731 688.611 354.321C689.064 353.921 689.521 353.516 689.973 353.108L690.647 352.491C693.951 349.491 697.154 346.311 699.797 342.731C700.276 342.071 700.735 341.381 701.165 340.681C701.234 340.681 701.294 340.661 701.364 340.611L702.097 340.058C710.168 334.038 723.651 326.19 731.52 336.191C734.028 339.377 735.312 343.434 736.377 347.347L738.247 354.352C739.457 358.924 740.595 363.522 741.261 368.201C742.768 378.681 742.009 390.761 734.813 399.161C731.939 402.521 727.978 404.921 723.558 405.551C721.092 405.891 718.658 405.471 716.213 405.161C713.728 404.851 711.334 405.351 708.848 405.111C704.897 404.721 703.17 409.461 704.647 412.441C705.445 414.041 706.384 415.421 707.451 416.591C706.594 417.331 705.775 418.131 704.986 418.971C702.651 419.721 700.557 421.331 698.989 423.461C697.722 425.181 697.064 427.051 696.953 429.021C696.815 429.511 696.695 430.011 696.584 430.521L694.443 434.003C693.972 434.767 693.503 435.521 693.033 436.261C687.584 444.861 681.536 452.141 674.022 459.001C666.787 465.601 658.935 471.511 652.138 478.591L651.338 479.432C645.001 486.122 638.322 494.222 640.802 503.951C641.441 506.451 644.924 508.251 647.199 506.561C654.513 501.121 658.196 492.501 664.402 485.901C670.79 479.101 677.865 472.991 684.27 466.211C690.328 459.811 695.108 452.561 698.71 444.581C700.148 446.171 702.242 447.301 705.146 447.741C710.136 448.491 714.787 445.561 716.961 441.231C718.359 441.851 719.785 442.411 721.223 442.851C728.787 445.171 733.546 436.741 730.692 430.511C729.166 427.171 727.26 424.271 724.894 421.831C732.29 420.811 739.814 416.981 744.674 412.201C756.867 400.191 758.543 382.141 755.799 366.091C754.342 357.581 751.828 348.971 748.564 340.981C747.997 339.591 747.387 338.191 746.719 336.811C747.088 336.801 747.468 336.641 747.707 336.331C749.912 333.311 752.596 330.841 754.233 327.461C755.74 324.361 757.416 321.221 758.604 317.991C761.048 311.381 762.245 303.921 763.044 296.931C764.69 282.621 764.053 268.401 761.866 254.181C758.145 229.961 749.156 206.783 735.913 186.445C736.634 186.065 737.325 185.607 737.969 185.065L738.287 184.787L738.804 184.319C742.583 180.892 742.257 174.469 738.804 170.998L737.713 169.903C736.333 168.528 735.142 167.439 732.911 165.942C732.582 165.721 732.246 165.513 731.906 165.319C733.073 163.157 733.478 160.629 732.665 157.84C729.831 148.124 715.88 148.468 707.038 152.705C697.256 143.956 686.409 136.361 674.652 130.211C646.65 115.571 614.988 105.361 584.072 99.1209ZM728.816 355.021C723.587 353.311 716.641 356.901 711.941 359.061C705.984 361.801 700.915 365.851 696.005 370.131C693.56 372.271 693.122 375.771 693.73 378.761C693.791 379.061 693.85 379.371 693.921 379.681C694.569 382.871 698.122 385.381 701.265 385.291C707.841 385.111 710.973 379.421 714.697 374.601C715.135 375.381 715.684 376.101 716.363 376.641L716.822 377.001C718.367 378.18 720.07 379.122 722.111 379.031C723.558 378.961 724.944 378.591 726.222 377.921C729.415 376.231 730.822 372.091 729.954 368.721C729.415 366.601 728.178 364.941 726.562 363.791L727.164 363.378C728.453 362.479 729.629 361.531 730.546 360.132L730.753 359.801L730.673 359.801C731.671 358.081 731.021 355.741 728.816 355.021Z" fill="black"/>
<path fill-rule="evenodd" clip-rule="evenodd" d="M557.87 378.496C531.36 378.496 509.87 359.692 509.87 336.496C509.87 313.3 531.36 294.496 557.87 294.496C584.38 294.496 613.069 312.537 613.069 335.733C613.069 345.575 605.315 362.774 598.835 369.934C590.044 379.648 573.131 378.496 557.87 378.496Z" fill="white"/>
<path fill-rule="evenodd" clip-rule="evenodd" d="M443.615 370.458C423.321 370.458 406.87 353.453 406.87 332.477C406.87 311.5 423.321 294.496 443.615 294.496C463.908 294.496 485.87 310.811 485.87 331.787C485.87 340.687 479.934 356.24 474.974 362.715C468.244 371.5 455.297 370.458 443.615 370.458Z" fill="white"/>
<path fill-rule="evenodd" clip-rule="evenodd" d="M558.54 404.586C558.33 404.392 557.998 404.324 557.745 404.483C553.418 407.219 552.906 416.42 552.857 421.734C551.067 422.2 549.299 422.73 547.627 423.1C544.077 423.886 540.507 424.571 536.944 425.294L534.273 425.844C525.347 427.725 516.254 429.117 507.158 429.814C498.33 430.49 489.246 430.737 480.443 429.6C476.663 429.111 472.905 428.295 469.252 427.206C464.934 425.918 461.495 423.783 457.479 421.913C447.425 417.23 438.999 430.953 448.675 436.975C456.981 442.142 468.313 444.005 477.901 444.805C487.701 445.622 497.463 444.725 507.145 443.175C517.612 441.498 527.864 438.923 537.791 435.189C541.989 433.611 546.051 431.697 550.017 429.604L551.096 429.029C551.755 428.675 552.442 428.316 553.133 427.952C553.876 434.579 556.017 440.98 558.604 447.133L558.665 447.025C560.08 451.879 565.192 454.882 570.278 452.738C576.248 450.224 576.702 443.622 573.228 438.936L573.062 438.717C568.978 433.463 566.419 426.945 564.195 420.732C563.054 417.547 561.998 414.285 561.082 411.027C560.419 408.67 560.395 406.299 558.54 404.586ZM404.708 351.814C408.247 362.507 415.964 370.742 426.714 374.363C437.368 377.952 449.217 376.644 460.108 374.703C462.49 374.279 464.905 373.81 467.315 373.264C465.343 374.485 463.6 376.205 461.933 378.024C459.467 380.713 457.231 383.546 456.553 386.911C455.88 390.251 456.94 392.791 458.874 394.708C461.849 397.658 466.648 399.246 470.712 400.124C479.814 402.092 488.931 401.786 497.988 399.769C500.301 399.254 501.869 398.014 502.749 396.397C503.818 394.432 503.906 391.989 503.292 389.764C502.679 387.54 501.354 385.49 499.431 384.355C497.848 383.421 495.868 383.164 493.621 383.912C489.111 385.413 484.633 386.407 479.869 386.522C477.853 386.568 475.823 386.509 473.81 386.324C472.671 386.219 471.535 386.074 470.406 385.893C471.071 385.007 471.717 384.105 472.349 383.193C473.095 382.116 473.821 381.024 474.515 379.915C476.521 376.702 478.192 373.399 479.66 369.913C480.131 368.796 480.567 367.675 480.986 366.549C481.047 366.387 481.107 366.225 481.167 366.062C481.296 365.954 481.425 365.845 481.552 365.735C484.423 363.251 486.83 360.191 488.533 356.401C493.143 346.135 492.392 333.392 489.595 322.733C487.354 314.189 482.405 306.286 475.868 300.917C474.727 299.039 473.973 297.9 473.05 296.94C469.293 293.031 464.05 290.395 458.934 288.792C447.508 285.208 435.063 287.779 425.377 294.601C416.434 300.9 409.433 310.347 405.649 320.854C402.066 330.805 401.367 341.719 404.708 351.814ZM560.348 286.827C546.759 286.711 532.933 290.723 521.906 298.752C511.356 306.435 503.074 317.778 503.084 331.289C503.094 344.444 510.126 357.378 517.925 367.563C526.679 378.997 538.119 384.51 552.503 384.637C559.98 384.704 567.512 384.041 574.935 383.132L578.917 382.63C584.402 381.923 589.943 381.085 595.141 379.201C619.885 370.226 620.651 337.838 611.487 317.135C604.411 301.151 586.502 285.563 568.644 287.434C565.953 287.057 563.19 286.852 560.348 286.827ZM537.397 302.058C554.414 294.42 575.09 296.707 591.597 304.858C598.136 311.992 602.915 320.983 604.849 329.237C606.914 338.048 606.612 347.539 603.507 356.079C599.716 366.504 590.381 369.086 580.311 370.688L576.402 371.302L574.762 371.55C564.867 373.026 554.049 374.174 544.54 372.327C533.943 370.266 527.213 361.705 521.916 352.927L521.668 352.516C516.167 343.319 511.562 332.134 516.176 321.596C520.099 312.639 528.668 305.976 537.397 302.058ZM436.957 304.719C442.797 301.483 449.458 300.895 455.764 303.061C458.477 303.993 460.821 305.503 463.094 307.196L464.001 307.882C466.796 310.028 469.407 311.115 471.504 314.013L471.775 314.401C472.833 315.981 474.684 316.613 476.37 316.403C478.335 321.82 479.146 327.678 479.162 333.445L479.16 334.209L479.15 334.989C479.024 341.805 477.835 350.145 472.472 354.713C467.58 358.88 460.172 359.88 453.559 360.46L448.462 360.885L447.107 360.987C440.137 361.472 432.499 361.307 426.657 357.18C421.569 353.586 419.169 347.486 418.547 341.463C417.076 327.234 424.278 311.744 436.957 304.719ZM564.075 306.034C554.704 301.25 543.447 302.449 535.509 308.445C536.214 308.583 536.908 308.759 537.6 309.106C539.401 310.009 540.519 311.817 540.945 313.741C541.425 315.916 540.298 317.975 538.151 318.661C536.283 319.257 534.068 319.53 532.333 318.395C531.424 317.801 530.789 317.018 530.372 316.032L530.313 315.887L530.24 315.78L530.212 315.731C530.206 315.712 530.238 315.748 530.29 315.829C530.237 315.706 530.188 315.583 530.139 315.458C530.066 315.309 529.996 315.159 529.939 315.004C529.838 314.917 529.746 314.82 529.653 314.723C528.211 316.942 527.079 319.448 526.36 322.236C521.746 340.131 540.666 358.702 557.569 360.56C563.957 361.262 569.782 359.741 574.616 356.743C574.572 356.684 574.523 356.631 574.483 356.569C572.541 356.918 570.223 356.049 569.518 353.883C567.719 348.358 569.564 341.895 575.584 340.09C579.458 338.928 583.422 340.212 586.191 342.86C588.285 337.735 589.034 331.965 588.043 326.186C586.645 318.033 581.727 310.686 574.073 307.294C570.346 305.641 567.134 305.294 564.075 306.034ZM465.388 317.075L465.103 316.625C462.207 312.169 456.672 306.702 450.935 308.206C450.129 308.417 449.339 308.757 448.627 309.198C445.475 308.77 442.175 309.486 439.465 311.153L439.539 311.339C439.551 311.371 439.561 311.403 439.569 311.436C439.816 312.52 439.672 313.522 439.166 314.518C438.617 315.597 437.834 316.62 436.774 317.239C436.047 317.663 435.192 317.886 434.354 317.869C433.125 317.847 432.043 317.306 431.155 316.48C430.672 316.032 430.335 315.375 430.149 314.699C429.711 315.119 429.286 315.587 428.881 316.118C422.23 324.864 423.149 338.918 430.952 346.714C431.267 347.028 431.602 347.312 431.933 347.602C435.101 351.963 439.984 354.923 445.849 355.522C451.279 356.077 456.709 354.471 460.873 351.179C460.538 351.001 460.225 350.77 459.955 350.464C459.244 349.659 458.659 348.865 458.227 347.882C458.119 347.634 458.014 347.385 457.915 347.134L457.77 346.755C457.745 346.685 457.524 346.045 457.583 346.158L457.596 346.184L457.518 345.999C456.772 344.139 457.073 342.013 458.842 340.846L459.037 340.725C459.615 340.388 460.331 340.229 461.056 340.227C462.862 338.016 465.55 337.509 468.073 338.155L468.162 337.441C468.175 337.322 468.187 337.202 468.195 337.083C470.15 330.602 469.207 323.237 465.388 317.075ZM552.185 251.825L551.536 251.724C546.628 251.014 543.29 251.831 540.099 256.026C538.578 258.025 539.047 261.044 540.099 263.087C543.497 269.688 552.845 268.323 559.141 269.634C565.288 270.913 571.42 272.654 577.172 275.188C583.041 277.774 588.55 280.833 593.922 284.326C598.781 287.487 603.188 292.238 608.739 294.077C608.989 294.16 609.29 293.936 609.274 293.671C608.879 287.358 603.606 281.563 599.522 277.067C594.798 271.868 589.053 267.252 583.07 263.582C576.896 259.796 570.222 256.679 563.312 254.505C559.673 253.36 555.95 252.45 552.185 251.825ZM477.409 260.396C471.229 251.359 455.866 253.092 446.801 255.507C435.435 258.533 423.119 264.654 415.149 273.514C408.01 281.451 418.691 291.763 426.719 285.084L428.861 283.308L430.232 282.182C436.395 277.148 442.498 272.593 450.009 269.236C458.815 265.303 467.738 263.387 477.045 261.291C477.411 261.209 477.626 260.713 477.409 260.396Z" fill="black"/>
<path fill-rule="evenodd" clip-rule="evenodd" d="M381.78 333.778C391.314 398.267 457.868 405.399 469.693 341.377C467.795 340.546 466.43 338.91 466.715 335.734C466.782 321.782 462.451 307.036 449.865 299.277C436.859 291.271 421.638 290.477 406.587 290.679C377.865 289.995 378.469 314.002 381.78 333.778ZM480.112 305.731C489.126 305.351 500.53 305.669 508.605 311.161C510.826 305.183 516.594 298.8 522.421 295.387C500.759 296.021 478.461 293.889 456.638 292.234C461.862 295.795 466.721 301.145 469.88 307.33C472.811 305.767 477.009 305.913 480.112 305.731ZM519.844 340.615C544.839 426.651 607.23 389.151 614.033 378.125C626.301 359.879 628.609 315.525 617.923 303.666C602.624 292.942 580.967 295.702 562.895 295.439C529.695 295.887 506.115 305.819 519.844 340.615ZM352.267 301.044C359.058 300.156 366.315 299.977 372.629 302.967C374.573 294.704 380.676 287.796 387.567 284.756C388.401 283.71 388.276 283.148 391.125 283.305C408.62 278.047 428.197 280.829 445.009 286.221C471.561 288.457 499.418 290.22 526.193 293.301C551.275 282.037 626.968 280.386 631.672 308.149C637.589 307.264 647.666 302.607 652.638 308.924C689.109 302.741 726.794 311.334 763.423 315.161C772.643 316.859 777.392 335.157 766.926 334.907C761.042 333.31 767.107 323.513 759.184 322.776C723.843 318.916 689.275 313.44 653.572 312.799C654.814 318.964 629.958 319.365 629.591 315.765C629.538 315.792 629.482 315.81 629.428 315.834C635.57 338.724 630.026 371.666 618.926 385.86C603.374 404.446 564.329 409.778 547.016 397.82C524.684 386.783 501.451 331.381 507.977 312.975C496.133 309.221 484.423 310.348 472.132 312.26C474.945 320.209 479.803 339.777 472.814 341.474C474.097 380.324 438.74 404.565 406.146 388.628C377.935 375.385 368.069 333.467 371.521 308.024C368.009 314.81 338.521 307.422 352.267 301.044Z" fill="black"/>
</g>
<defs>
<clipPath id="clip0_162_1195">
<rect width="1151.1" height="1151.1" rx="575.552" transform="matrix(-1 -0.000552907 -0.000552907 1 1151.74 0.762695)" fill="white"/>
</clipPath>
</defs>
</svg>
