<svg width="1152" height="1152" viewBox="0 0 1152 1152" fill="none" xmlns="http://www.w3.org/2000/svg">
<g clip-path="url(#clip0_162_1445)">
<rect width="1151.1" height="1151.1" rx="575.552" transform="matrix(-1 -0.000552907 -0.000552907 1 1151.74 0.762695)" fill="#FF3656"/>
<rect width="633" height="466" transform="matrix(-1 0 0 1 941.739 742.126)" fill="white"/>
<path fill-rule="evenodd" clip-rule="evenodd" d="M641.036 445.21C619.109 429.919 547.926 441.44 518.581 445.21C503.164 447.191 494.062 467.194 485.965 497.607C443.712 487.248 388.264 477.437 348.433 505.513C336.131 516.224 333.83 534.478 348.021 544.664C352.645 547.781 361.556 550.429 362.966 553.131C368.674 567.655 375.041 586.852 374.028 602.302C355.889 764.502 319.526 927.144 293.949 1088.31L293.271 1094.41C290.273 1121.83 287.846 1154.18 306.475 1176.01C318.999 1186.63 336.814 1185.16 352.12 1188.22C496.407 1207.55 642.097 1189.08 786.97 1194.97C811.657 1196.36 836.475 1198.16 861.221 1198.34L861.232 1198.05C858.564 1198.04 855.896 1198 853.225 1197.94C855.961 1117.37 861.606 1036.9 863.428 956.291C864.003 930.883 864.171 905.466 863.669 880.055C863.567 874.906 871.567 874.906 871.669 880.055C871.836 888.487 871.91 896.917 871.945 905.348C877.937 900.649 884.6 896.923 890.994 892.73C895.312 889.898 899.324 896.822 895.032 899.637C887.448 904.611 879.376 908.785 872.801 915.14C872.535 915.398 872.257 915.595 871.974 915.761C871.827 996.751 866.282 1077.68 862.761 1158.57C862.24 1170.54 861.768 1182.51 861.352 1194.48L861.222 1198.34C888.01 1198.54 914.712 1196.85 941.07 1190.71C945.523 1196.91 955.895 1198.15 961.168 1190.14C963.806 1187.11 964.337 1181.97 968.42 1180.82C969.518 1179.96 967.823 1179.35 967.047 1179.75C1003.11 1076.43 970.2 883.878 941.127 778.023C928.408 723.445 897.836 672.917 894.653 616.418C894.318 589.789 913.414 557.71 889.203 536.316C892.774 516.758 874.284 500.46 855.616 499.171C832.639 416.208 730.936 512.966 675.869 513.944C668.318 501.387 651.525 452.526 641.036 445.21ZM331.446 988.343C331.451 983.196 339.451 983.187 339.446 988.343C339.392 1043.09 334.689 1108.63 327.926 1162.93C327.298 1167.97 319.29 1168.03 319.926 1162.93C326.689 1108.63 331.392 1043.09 331.446 988.343ZM706.675 1058.61C702.134 1056.18 706.17 1049.27 710.712 1051.7C744.053 1069.56 775.21 1090.9 805.176 1113.91C809.203 1117.01 805.223 1123.96 801.138 1120.82C771.172 1097.81 740.016 1076.47 706.675 1058.61ZM417.351 1048.39C420.504 1044.61 427.258 1048.54 424.148 1052.57C416.908 1061.95 407.912 1069.34 397.369 1074.74C392.851 1077.06 388.84 1070.35 393.171 1067.92L393.331 1067.83C402.329 1063.22 410.442 1057.11 416.746 1049.16L417.351 1048.39ZM817.732 814.302C816.615 809.286 824.326 807.145 825.446 812.176C827.801 822.75 826.089 833.998 823.641 844.475L823.476 845.172L823.142 846.559C822.702 848.361 821.018 849.366 819.285 849.495C789.857 851.674 760.752 841.673 732.539 834.296L730.451 833.755L728.366 833.224C723.377 831.968 725.49 824.25 730.493 825.51L732.721 826.078C759.845 833.065 787.779 842.918 816.082 841.679L816.379 840.376C818.235 832.092 819.548 823.229 817.871 814.954L817.732 814.302ZM366.006 794.808C365.968 789.658 373.967 789.654 374.006 794.808L374.016 795.818C374.111 803.934 374.778 815.463 382.733 819.765C389.808 823.591 399.203 820.718 406.696 817.792L408.218 817.188L410.415 816.294C415.176 814.345 417.25 822.081 412.541 824.008L411.364 824.484C401.174 828.557 388.084 832.433 378.026 826.282C368.192 820.266 366.298 807.518 366.037 796.811L366.02 795.991L366.006 794.808Z" fill="#FFCEAC"/>
<path fill-rule="evenodd" clip-rule="evenodd" d="M388.223 486.283L387.403 486.433L364.767 490.642L387.726 492.374C388.79 492.454 389.856 492.553 390.928 492.672C393.134 492.913 395.3 493.217 397.427 493.585L398.806 493.832L398.214 493.802C389.828 493.412 381.434 494.096 373.159 495.834C364.998 497.545 357.755 499.875 351.275 503.043L350.501 503.427L349.502 503.94L349.021 504.17L348.639 504.347C346.864 505.166 346.143 505.588 345.392 506.606C343.904 508.622 344.539 510.898 346.457 512.628C347.895 513.925 349.75 514.567 352.185 514.935C352.545 514.989 352.912 515.037 353.311 515.082L355.464 515.293C359.478 515.712 362.126 517.885 362.526 521.255C362.92 524.557 360.984 527.906 358.208 528.728L358.003 528.784L357.744 528.843C357.385 528.925 357.066 529.013 356.758 529.125L356.529 529.213L356.029 529.418L356.005 529.422L355.989 529.434L355.511 529.63L355.386 529.872L355.311 529.93C355.027 530.16 354.909 530.324 354.722 530.678L354.56 530.993L354.428 531.45L354.391 531.598L354.368 531.72L354.365 531.756L354.233 532.591L354.198 532.875L354.186 533.06L354.185 545.888L357.475 539.308L357.587 539.402C359.182 540.684 361.224 541.737 363.824 542.763L364.351 542.968L365.722 543.474L368.429 544.442L369.053 544.673L369.609 544.887C370.046 545.059 370.422 545.219 370.764 545.377C371.282 545.614 371.737 545.882 372.133 546.179L372.364 546.361L373.666 547.438L376.876 546.319C377.252 546.186 377.596 546.063 377.923 545.944L381.037 544.785L383.701 543.805C387.161 542.54 390.271 541.441 393.296 540.42L396.968 539.197L399.646 538.323C400.576 538.023 401.559 537.708 402.641 537.363L417.776 532.581L420.691 531.647C422.327 531.118 423.799 530.635 425.322 530.127L428.149 529.176L430.888 528.235C439.803 525.137 448.329 521.823 463.516 515.689L460.223 517.567L457.775 518.949C454.843 520.6 451.63 522.389 448.037 524.378L431.696 533.406L428.425 535.235L421.104 539.35L417.237 541.507C410.312 545.35 405.396 547.95 400.158 550.504C396.108 552.483 391.944 554.381 387.609 556.23L385.975 556.922L383.47 557.965L381.495 558.823L380.157 559.409L379.275 559.785C374.546 561.764 371.774 562.278 368.693 561.473L368.477 561.411L368.265 561.337L362.265 559.036L364.354 565.113C364.592 565.806 364.828 566.507 365.062 567.214L365.482 568.504L365.825 569.179C367.836 573.174 369.82 577.292 371.818 581.605L372.89 583.931L373.508 584.39C373.734 584.557 373.941 584.803 374.115 585.137C374.909 586.689 375.679 588.236 376.424 589.783L377.206 591.425L378.014 593.164C381.548 600.767 384.754 608.573 388.913 619.462L394.391 633.979L395.21 636.144C401.939 653.894 408.281 671.686 414.23 689.511C425.994 724.683 436.397 760.376 445.414 796.486C463.516 869.023 475.594 942.652 481.514 1016.76C482.632 1030.73 483.438 1044.63 483.93 1058.48L484.051 1062.08L484.434 1065.26C484.732 1067.77 485.013 1070.21 485.276 1072.59L485.433 1074.02C487.357 1091.66 488.282 1105.54 488.185 1118.83C488.136 1125.42 487.937 1131.56 487.562 1137.48L487.472 1138.84L485.984 1160.61L493.292 1140.05C493.808 1138.6 494.309 1137.12 494.873 1135.4L495.583 1133.2L495.926 1132.1C496.233 1131.09 496.528 1130.04 496.895 1128.67L498.187 1123.78L498.508 1122.61C498.844 1121.4 499.123 1120.47 499.445 1119.47L499.832 1118.31L500.116 1117.5C500.635 1116.05 501.247 1114.5 502.211 1112.15L503.697 1108.55L503.995 1107.82L503.995 1107.23L503.946 1105.29C503.843 1100.66 503.868 1095.79 504.005 1090.32L504.128 1086.04L504.259 1082.37C504.274 1081.99 504.289 1081.6 504.305 1081.2L504.992 1064.68L506.316 1028.01L506.523 1021.81C506.671 1017.21 506.793 1013.04 506.896 1008.97L506.986 1005.26L507.014 1004C507.821 967.609 507.519 930.177 506.176 891.245L506.043 887.473L505.907 883.758C503.651 823.28 499.751 771.803 490.5 670.461L488.962 653.693L486.658 628.876L486.128 623.052C485.059 611.19 484.29 601.942 483.641 592.882L483.358 588.845C482.269 572.836 481.609 556.211 481.288 537.953L481.236 534.67L482.678 539.685L483.926 523.004C484.305 517.953 484.943 513.285 485.883 508.935L486.089 508.008L486.495 506.236L486.811 505.061C487.347 503.074 483.985 493.937 483.985 493.937L482.081 493.481L479.777 492.938C443.084 484.373 414.501 481.562 388.223 486.283ZM749.923 471.435L748.817 471.74L748.117 471.938C742.504 473.551 736.544 475.834 729.669 478.884L727.7 479.767C726.821 480.163 721.742 482.172 719.723 483.033L719.378 483.182C711.923 486.456 707.478 489.895 706.498 494.956L706.438 495.3C704.262 497.385 701.741 499.389 698.872 501.313L698.147 501.792L697.461 502.234C694.376 504.197 691.455 505.928 688.707 507.423L687.962 507.825L687.448 508.097L682.498 509.797L676.379 511.919L675.152 512.338C668.774 514.51 665.012 515.651 660.506 516.757L657.98 517.375C648.393 519.701 639.9 521.513 631.714 522.933C623.38 524.373 614.824 525.634 605.978 526.739L602.99 527.104C600.044 527.452 597.158 527.715 592.658 528.066L585.383 528.629L580.464 529.028L583.082 533.211C589.94 544.171 595.232 556.382 601.153 573.651L601.813 575.59C607.184 591.46 610.962 605.76 617.465 633.2C627.312 674.835 635.424 716.864 641.768 759.125C646.14 788.252 649.684 817.31 652.387 846.273L652.767 850.41L658.743 850.403C659.529 841.504 660.506 832.34 661.682 822.706C665.376 792.697 670.694 763.23 677.642 734.479L678.298 731.785L678.583 730.625L677.992 729.586C677.637 728.962 677.497 728.26 677.597 727.647C678.326 723.115 679.658 718.979 682.202 712.737L684.796 706.47L685.377 705.031L685.42 704.882C688.171 695.232 691.102 685.695 694.215 676.271L695.259 673.134L695.304 672.988C699.823 656.833 704.264 643.496 709.482 630.999C713.57 621.237 718.215 611.665 723.392 602.321L724.369 600.571L724.458 600.4C731.016 586.765 737.993 573.874 745.401 561.793L746.59 559.868L746.699 559.553C746.952 558.823 747.334 558.174 747.839 557.624L748.034 557.423L748.283 557.179L748.827 556.326L753.163 555.241C765.366 552.189 778.067 551.922 792.243 554.035L793.191 554.18L794.142 554.331C804.551 556.022 813.493 558.328 829.737 563.264L845.716 568.157L847.989 568.835L850.138 569.468C857.926 571.736 864.747 573.449 871.37 574.736L872.272 574.908L874.723 575.368L875.935 575.588C883.232 576.889 888.341 577.24 893.172 576.316L893.611 576.228L894.148 576.109L894.628 575.988C900.267 574.483 902.351 570.4 899.755 564.706C897.608 559.993 892.951 556.65 886.106 553.721L885.113 553.305L884.866 553.204L884.606 553.148C882.977 552.797 881.416 552.177 879.931 551.275C876.936 549.458 875.684 545.701 877.04 542.599C878.44 539.421 882.268 537.329 884.934 538.402L886.945 539.201L889.146 540.068L890.503 538.13C890.578 538.022 890.65 537.91 890.719 537.788L890.822 537.596L890.889 537.459L891.054 537.314L891.22 537.148C891.633 536.699 891.855 536.212 891.966 535.712C892.008 535.524 892.03 535.352 892.04 535.181L892.046 535.01C892.052 534.654 892.026 534.369 891.916 533.375C891.432 529.057 888.607 525.571 883.714 521.563L882.924 520.926L882.688 520.738C873.326 513.319 861.451 509.501 851.362 511.844C850.868 511.956 850.384 512.081 849.89 512.226L849.392 512.378L848.803 512.575C845.7 513.649 843.276 512.329 842.147 509.376C841.009 506.403 841.774 503.121 844.181 501.349L844.398 501.196L845.134 500.706L845.992 500.117L846.941 499.447L847.377 499.132L848.006 498.664C852.838 495.011 855.492 491.6 854.716 487.565L854.662 487.306L854.593 487.004L854.464 486.721L854.056 485.851L853.634 484.984L853.515 484.746L853.357 484.532C851.694 482.292 848.908 480.591 844.918 478.943L844.452 478.753C842.786 478.082 838.131 476.447 837.435 476.18L837.382 476.16C823.596 470.568 808.619 467.342 793.555 466.683C778.768 466.039 763.953 467.638 749.923 471.435Z" fill="white"/>
<path d="M491.703 625.544L491.882 626.903L492.053 628.263C496.953 667.263 501.083 716.342 504.683 755.473C511.863 833.483 516.263 911.813 515.653 990.172C515.494 1010.44 514.761 1030.64 513.826 1050.87L513.623 1055.2C512.573 1077.25 510.963 1100.55 504.823 1121.82C504.143 1124.17 502.633 1125.52 500.893 1126.01C500.821 1128.49 500.679 1130.98 500.512 1133.44L500.383 1135.28C499.673 1145.23 497.643 1165.9 493.303 1174.92C489.073 1183.72 482.023 1190.7 473.033 1194.54C470.514 1195.62 467.95 1196.39 465.353 1196.92C519.942 1198.04 591.641 1196.28 646.332 1194.96C640.647 1194.07 637.425 1189.57 636.673 1183.84C635.173 1172.34 637.993 1160.45 644.373 1150.78C645.033 1149.78 645.813 1148.89 646.683 1148.13L646.531 1141.77C646.424 1137 646.373 1132.22 646.643 1127.45C647.223 1116.93 648.093 1106.41 648.853 1095.9C650.393 1074.85 651.583 1053.76 652.053 1032.66C653.013 990.463 652.313 948.223 649.923 906.083C645.133 821.893 633.983 728.243 615.733 645.893C614.403 639.893 613.063 633.893 611.673 627.903C597.483 635.273 572.223 637.922 556.713 638.023C537.273 638.143 509.263 633.672 491.703 625.544Z" fill="#8BFFCD"/>
<path fill-rule="evenodd" clip-rule="evenodd" d="M328.066 1163.22C334.829 1108.92 339.532 1043.38 339.586 988.632C339.591 983.476 331.591 983.485 331.586 988.632C331.532 1043.38 326.829 1108.92 320.066 1163.22C319.43 1168.32 327.438 1168.26 328.066 1163.22ZM378.166 826.571C388.616 832.962 402.339 828.529 412.681 824.297C417.39 822.37 415.316 814.634 410.555 816.583C402.684 819.804 391.18 824.546 382.873 820.054C374.582 815.57 374.208 803.236 374.146 795.097C374.107 789.943 366.108 789.947 366.146 795.097C366.23 806.17 367.711 820.175 378.166 826.571ZM397.509 1075.03C408.052 1069.62 417.048 1062.24 424.288 1052.86C427.435 1048.78 420.482 1044.8 417.38 1048.82C411.008 1057.07 402.706 1063.39 393.471 1068.12C388.883 1070.47 392.936 1077.37 397.509 1075.03ZM448.185 795.827C466.275 868.318 478.415 942.107 484.365 1016.59C485.575 1031.71 486.425 1046.81 486.905 1061.92C487.385 1065.86 487.845 1069.81 488.275 1073.76C489.905 1088.7 491.155 1103.88 491.045 1118.92C490.995 1125.67 490.785 1132.39 490.325 1139.12C491.125 1136.87 491.865 1134.61 492.585 1132.36C494.055 1127.75 495.025 1122.97 496.525 1118.39C497.765 1114.6 499.365 1110.97 500.855 1107.3L500.855 1107.29C500.405 1092.26 501.425 1077.09 501.945 1062.13C502.615 1042.75 503.445 1023.39 503.875 1004C504.735 965.217 504.305 926.407 502.905 887.648C500.095 809.547 492.995 731.818 485.835 654.037C483.845 632.407 481.705 610.787 480.225 589.116C478.735 567.217 478.135 545.277 477.965 523.318C477.955 521.737 480.355 521.318 480.795 522.847C481.185 517.637 481.875 512.437 483.025 507.407C465.775 518.407 447.585 527.917 429.755 537.917C420.365 543.187 411.015 548.547 401.335 553.267C396.015 555.866 390.645 558.257 385.165 560.517C379.485 562.857 374.055 566.077 367.805 564.446C367.265 564.307 366.755 564.107 366.265 563.847C366.975 565.196 367.685 566.537 368.365 567.898C370.725 572.587 372.975 577.297 375.155 582.047C375.735 582.477 376.245 583.068 376.645 583.837C377.705 585.907 378.735 587.997 379.735 590.116C379.935 589.927 380.135 589.737 380.335 589.547C381.175 588.757 382.335 589.946 381.595 590.807C381.255 591.196 380.925 591.577 380.595 591.967C387.115 605.997 392.415 620.747 397.875 635.148C404.585 652.847 410.945 670.677 416.935 688.627C428.745 723.937 439.165 759.707 448.185 795.827ZM706.815 1058.9C740.156 1076.76 771.312 1098.09 801.278 1121.11C805.363 1124.25 809.343 1117.29 805.316 1114.2C775.35 1091.19 744.193 1069.85 710.852 1051.99C706.31 1049.56 702.274 1056.47 706.815 1058.9ZM819.425 849.784C821.158 849.655 822.842 848.65 823.282 846.848C825.983 835.79 828.098 823.744 825.586 812.465C824.466 807.434 816.755 809.575 817.872 814.591C819.853 823.485 818.279 833.099 816.222 841.968C787.143 843.241 758.454 832.806 730.633 825.799C725.63 824.539 723.517 832.257 728.506 833.513C758.018 840.945 788.544 852.07 819.425 849.784ZM240.525 1144.75C240.495 1144.68 240.465 1144.6 240.445 1144.53C238.735 1139.35 238.695 1133.33 238.505 1127.9C238.175 1118.24 238.525 1108.56 239.395 1098.93C241.235 1078.66 245.195 1058.72 249.925 1038.95C259.295 999.787 272.535 961.687 279.725 921.997C293.835 844.087 290.485 762.967 318.175 687.818C329.685 656.577 346.125 626.547 368.465 601.727C366.835 596.767 365.245 591.797 363.695 586.807C360.985 578.127 358.215 569.167 356.545 560.227C356.505 559.987 356.455 559.737 356.425 559.487C346.915 555.387 338.265 547.657 336.785 537.377C336.145 532.937 336.885 528.017 338.805 523.727C334.885 520.107 332.365 515.407 332.965 509.107C334.085 497.247 347.935 494.196 357.575 491.877C368.535 489.247 379.905 488.517 391.115 489.757C396.775 490.377 402.375 491.417 407.845 492.977C412.595 494.327 417.765 495.717 421.575 498.977C422.025 499.357 421.655 500.097 421.115 500.097C413.405 500.068 405.725 497.237 397.935 496.866C389.775 496.487 381.635 497.157 373.635 498.837C365.815 500.477 358.015 502.877 350.905 506.587C348.905 507.637 345.975 508.347 348.325 510.467C350.045 512.017 353.425 512.148 355.635 512.377C360.525 512.887 364.745 515.747 365.365 520.967C365.915 525.577 363.165 530.797 358.265 531.837C357.995 531.898 357.745 531.967 357.525 532.057C357.395 532.307 357.195 532.517 357.215 532.177C357.215 532.177 357.205 532.167 357.205 532.177C357.085 532.907 357.045 533.196 357.045 533.247C357.075 533.187 357.125 532.937 357.165 532.737C357.135 532.917 357.075 533.207 356.995 533.637C357.105 533.167 357.015 534.318 357.105 534.497C359.705 539.297 367.395 540.648 371.875 542.717C372.745 543.116 373.495 543.587 374.135 544.116C375.195 543.747 376.275 543.377 377.365 542.967C382.735 540.957 388.095 539.007 393.535 537.196C404.035 533.687 414.665 530.557 425.165 527.037C445.045 520.377 464.265 511.967 483.775 504.347C484.395 502.047 485.115 499.797 485.965 497.607C486.135 497.148 486.955 496.997 487.045 497.607C487.345 499.547 487.585 501.497 487.785 503.457C487.865 503.637 487.885 503.837 487.845 504.027C488.975 515.427 488.675 527.097 489.255 538.487C489.975 552.687 491.985 566.787 492.555 580.997L492.555 581.257C494.655 593.387 496.555 605.557 498.275 617.767C500.205 617.167 502.415 617.287 504.675 618.497C520.655 627.027 538.615 631.777 556.685 632.837C565.785 633.366 574.795 633.068 583.845 632.017C589.795 631.337 595.655 630.097 601.525 628.917C598.435 615.967 595.115 603.077 591.365 590.318C588.275 579.827 584.835 569.387 580.585 559.297C576.295 549.107 570.955 539.377 565.985 529.497C563.695 524.927 566.395 517.937 572.345 518.417C574.105 518.557 575.865 518.667 577.635 518.747C594.855 519.568 612.765 517.648 629.765 515.937C649.115 513.977 668.725 511.946 687.905 508.757C689.325 508.527 689.905 510.457 688.505 510.927C679.405 513.987 670.415 517.446 661.085 519.737C651.485 522.107 641.825 524.267 632.085 525.957C622.755 527.568 613.385 528.917 603.985 530.057C597.855 530.807 591.655 531.187 585.485 531.687C593.795 544.967 599.525 559.946 604.515 574.696C610.925 593.637 615.635 613.127 620.245 632.577C630.105 674.267 638.235 716.377 644.595 758.747C649.155 789.127 652.845 819.627 655.615 850.207C656.435 840.917 657.435 831.657 658.565 822.407C662.345 791.696 667.865 761.187 675.245 731.137C674.585 729.977 674.275 728.587 674.495 727.237C675.825 718.977 679.325 711.787 682.395 704.127C685.445 693.427 688.735 682.797 692.275 672.247C696.295 657.877 700.805 643.727 706.575 629.907C710.985 619.377 716.015 609.116 721.615 599.167C728.305 585.257 735.655 571.648 743.725 558.637C744.145 557.427 744.825 556.297 745.795 555.347C747.265 553.027 748.755 550.737 750.275 548.467C751.265 546.987 754.105 547.887 753.355 549.767C753.005 550.648 752.655 551.527 752.295 552.398C785.165 544.177 817.395 556.747 848.705 566.027C856.605 568.377 864.585 570.497 872.685 572.027C879.055 573.227 886.475 574.687 892.825 573.366C897.075 572.487 898.955 570.557 896.885 566.017C894.745 561.318 888.905 558.227 883.835 556.148C881.925 555.737 880.045 555.007 878.235 553.907C874.015 551.347 872.165 546.007 874.155 541.457C875.965 537.347 881.245 533.807 885.915 535.687C886.585 535.957 887.245 536.217 887.905 536.477C887.975 536.377 888.055 536.237 888.125 536.037C888.795 534.207 889.085 536.398 888.795 533.777C888.315 529.497 883.785 525.607 880.685 523.157C872.975 517.047 861.835 512.527 851.885 514.837C851.135 515.007 850.385 515.217 849.645 515.477C839.395 519.027 834.405 504.267 842.595 498.767C843.095 498.437 843.725 498.017 844.415 497.527C847.825 495.157 852.815 491.167 851.455 487.568C849.775 483.097 839.865 480.527 836.115 479.007C822.555 473.507 807.905 470.387 793.285 469.747C778.575 469.107 763.675 470.727 749.485 474.696C742.525 476.637 735.375 479.587 728.795 482.568C722.885 485.237 710.025 488.767 709.205 496.247C709.025 497.898 706.675 498.457 706.165 496.657C702.135 482.297 717.775 473.027 728.095 467.097C734.865 463.196 742.545 460.767 749.975 458.377C757.095 456.077 764.365 454.387 771.785 453.366C787.715 451.187 803.835 451.467 819.635 454.527C834.025 457.318 850.035 462.077 861.665 471.337C868.805 477.017 872.035 486.057 869.165 494.877C869.065 495.167 868.965 495.467 868.865 495.757C881.715 498.057 893.875 505.417 902.005 515.677C908.685 524.107 912.185 535.837 906.205 545.648C906.455 545.827 906.705 546.017 906.945 546.217C912.645 550.777 916.885 557.398 918.145 564.637C920.615 578.917 911.985 588.907 899.915 592.727C902.905 595.648 905.775 598.747 908.585 601.847C914.875 608.797 920.885 616.366 926.185 624.087C936.925 639.727 946.105 656.757 954.135 673.917C970.645 709.157 981.055 747.087 986.575 785.547C989.355 804.927 991.215 824.407 991.925 843.967C992.745 866.267 991.915 888.577 992.345 910.887C992.765 932.327 995.135 953.247 999.925 974.148C1004.51 994.137 1010.63 1013.73 1016.17 1033.46C1022.42 1055.68 1029.3 1077.8 1032.6 1100.71C1034.27 1112.37 1035.47 1124.06 1034.54 1135.85C1033.6 1147.86 1029.24 1158.13 1025.22 1169.3C1024.2 1172.15 1021.09 1173.3 1018.6 1172.69C1018.04 1178.04 1016.02 1183.26 1013.01 1187.78C1006.62 1197.36 996.785 1203.47 985.515 1205.69C972.815 1208.18 959.725 1207.59 946.865 1207.13C932.915 1206.63 918.955 1206.18 905.005 1205.6C890.4 1204.99 875.796 1204.37 861.191 1203.75C861.674 1188.78 862.25 1173.82 862.901 1158.86C866.422 1077.97 871.967 997.04 872.114 916.05C872.397 915.884 872.675 915.687 872.941 915.429C879.516 909.074 887.588 904.9 895.172 899.926C899.464 897.111 895.452 890.187 891.134 893.019C884.74 897.212 878.077 900.938 872.085 905.637C872.05 897.206 871.976 888.776 871.809 880.344C871.707 875.195 863.707 875.195 863.809 880.344C864.311 905.755 864.143 931.172 863.568 956.58C861.707 1038.92 855.857 1121.1 853.193 1203.41C813.993 1201.73 774.791 1200.05 735.585 1198.62C703.695 1197.46 671.805 1196.3 639.915 1195.14C633.225 1194.9 629.465 1190.12 628.645 1183.87C627.145 1172.37 629.965 1160.48 636.345 1150.81C637.005 1149.81 637.785 1148.92 638.655 1148.16C638.505 1141.27 638.225 1134.37 638.615 1127.48C639.195 1116.96 640.065 1106.44 640.825 1095.93C642.365 1074.88 643.555 1053.79 644.025 1032.69C644.985 990.487 644.285 948.247 641.895 906.107C637.105 821.917 625.955 738.267 607.705 655.917C606.375 649.917 605.035 643.917 603.645 637.927C589.455 645.297 572.195 647.946 556.685 648.047C537.245 648.167 518.235 643.696 500.675 635.568C500.795 636.477 500.915 637.377 501.025 638.287C505.925 677.287 510.055 716.366 513.655 755.497C520.835 833.507 525.235 911.837 524.625 990.196C524.455 1011.91 523.625 1033.55 522.595 1055.23C521.545 1077.28 519.935 1100.58 513.795 1121.85C513.115 1124.2 511.605 1125.55 509.865 1126.04C509.775 1129.14 509.575 1132.25 509.355 1135.31C508.645 1145.26 506.615 1165.93 502.275 1174.95C498.045 1183.75 490.995 1190.73 482.005 1194.57C470.585 1199.44 458.235 1198.04 446.175 1197.26C393.735 1193.84 341.335 1189.26 288.925 1185.24C281.625 1184.68 274.325 1184.13 267.035 1183.56C260.545 1183.06 253.835 1182.62 248.075 1179.25C241.525 1175.42 236.415 1156.61 238.675 1148.83C239.085 1147.41 239.705 1146.01 240.525 1144.75Z" fill="black"/>
<path fill-rule="evenodd" clip-rule="evenodd" d="M417.196 323.499C419.344 304.584 416.564 265.048 416.378 262.646C415.2 247.461 422.3 187.498 435.722 193.023C458.236 175.162 488.224 171.218 516.264 169.334C574.509 165.42 636.47 174.405 681.445 213.685C703.687 234.084 725.341 263.753 723.6 294.645C743.808 323.927 772.297 364.094 747.119 398.327C738.56 409.264 724.957 413.337 714.206 421.62C692.58 439.1 679.012 464.186 657.181 481.562C599.343 533.645 501.134 544.525 444.308 485.285C400.366 442.381 407.471 378.195 415.2 323.499C420.396 286.726 413.005 360.4 417.196 323.499Z" fill="#FFCEAC"/>
<path fill-rule="evenodd" clip-rule="evenodd" d="M594.071 89.1212C578.494 85.9712 562.499 84.0112 546.591 84.6012L545.365 84.6489C533.396 85.1283 518.239 86.1887 507.797 93.1632C507.197 92.5592 506.231 92.2492 505.355 92.6682C492.947 98.6032 479.3 102.894 466.235 107.158C453.231 111.401 439.739 114.202 426.109 115.331C420.981 115.756 416.592 121.305 419.839 126.282C420.612 127.468 421.364 128.666 422.114 129.867C420.86 129.736 419.607 129.601 418.354 129.474C414.229 129.058 410.109 133.469 410.353 137.493C410.506 140.024 410.779 142.525 411.182 144.996C409.611 144.963 408.049 145.199 406.541 145.838C398.901 149.071 399.433 158.19 400.004 165.128C400.797 174.756 404.39 184.954 411.062 192.16C406.081 197.345 402.554 203.537 400.45 210.891C398.925 216.261 398.075 221.981 398.495 227.571L398.628 229.245C399.146 235.311 400.177 242.027 404.532 246.391C406.767 248.641 409.521 249.461 412.147 249.201C410.559 263.181 409.541 277.241 408.583 291.251L408.134 297.947C405.997 330.327 404.391 362.918 404.811 395.351C405.201 425.661 411.178 455.081 429.729 479.691C446.624 502.101 470.882 518.621 498.324 524.901C513.112 528.291 528.21 528.531 543.179 526.371C550.434 525.321 557.738 523.711 564.624 521.171C572.247 518.351 577.726 514.201 582.855 507.981C585.281 505.031 584.113 498.751 579.282 499.341C571.976 500.229 565.307 501.299 558.303 503.464L557.3 503.781C550.324 506.021 543.099 507.691 535.805 508.401C520.866 509.851 505.699 508.391 491.388 503.851C468.087 496.451 448.02 479.961 435.157 459.241C419.889 434.681 418.163 406.801 418.384 378.561C418.62 347.573 419.626 316.566 421.267 285.61L421.547 280.451C422.415 264.521 423.253 248.581 423.991 232.641C424.22 227.641 424.569 222.601 425.199 217.611C430.956 214.231 436.115 209.571 439.478 203.821C446.234 206.621 453.339 208.641 459.876 210.251C475.018 213.983 490.739 214.889 506.151 212.552C510.308 214.273 514.548 215.786 518.853 217.088C520.017 217.605 521.18 218.113 522.343 218.611C532.722 223.061 543.25 226.831 554.205 229.591L556.897 230.264C562.663 231.688 568.925 233.091 575.061 233.531C576.069 233.921 577.157 234.251 578.345 234.541C583.933 235.901 589.731 236.331 595.458 235.851C601.037 235.381 605.069 229.731 601.995 224.441C599.75 220.581 597.484 216.731 595.199 212.891C603.152 216.211 611.365 218.971 619.647 221.311C628.009 223.671 636.491 225.661 644.984 227.491C649.525 228.461 654.084 229.321 658.615 230.291C661.858 230.981 666.837 231.341 669.483 233.481C672.405 235.831 673.234 241.311 674.342 244.691C675.799 249.081 677.166 253.491 678.414 257.951C680.898 266.851 682.933 275.881 684.51 285.001C686.087 294.131 687.145 303.351 687.734 312.601C688.322 321.841 688.063 331.141 689.01 340.341C689.52 345.221 694.748 347.731 698.61 344.321C699.063 343.921 699.52 343.517 699.972 343.108L700.646 342.491C703.95 339.491 707.153 336.311 709.796 332.731C710.275 332.071 710.734 331.381 711.164 330.681C711.233 330.681 711.293 330.661 711.363 330.611L712.096 330.058C720.167 324.039 733.65 316.19 741.519 326.191C744.027 329.377 745.311 333.434 746.377 337.348L748.246 344.352C749.456 348.924 750.594 353.522 751.26 358.201C752.767 368.681 752.008 380.761 744.812 389.161C741.938 392.521 737.977 394.921 733.557 395.551C731.091 395.891 728.657 395.471 726.212 395.161C723.727 394.851 721.333 395.351 718.847 395.111C714.896 394.721 713.169 399.461 714.646 402.441C715.444 404.041 716.384 405.421 717.45 406.591C716.593 407.331 715.774 408.131 714.985 408.971C712.65 409.721 710.556 411.331 708.988 413.461C707.721 415.181 707.063 417.051 706.952 419.021C706.814 419.511 706.694 420.011 706.583 420.521L704.442 424.003C703.971 424.767 703.502 425.521 703.032 426.261C697.583 434.861 691.535 442.141 684.021 449.001C676.786 455.601 668.934 461.511 662.137 468.591L661.337 469.432C655 476.123 648.321 484.222 650.801 493.951C651.44 496.451 654.923 498.251 657.198 496.561C664.512 491.121 668.195 482.501 674.401 475.901C680.789 469.101 687.864 462.991 694.269 456.211C700.327 449.811 705.107 442.561 708.709 434.581C710.147 436.171 712.241 437.301 715.145 437.741C720.135 438.491 724.786 435.561 726.96 431.231C728.358 431.851 729.784 432.411 731.222 432.851C738.786 435.171 743.545 426.741 740.691 420.511C739.165 417.171 737.259 414.271 734.893 411.831C742.289 410.811 749.813 406.981 754.673 402.201C766.866 390.191 768.542 372.141 765.798 356.091C764.341 347.581 761.827 338.971 758.563 330.981C757.996 329.591 757.386 328.191 756.718 326.811C757.087 326.801 757.467 326.641 757.706 326.331C759.911 323.311 762.595 320.841 764.232 317.461C765.739 314.361 767.415 311.221 768.603 307.991C771.047 301.381 772.244 293.921 773.043 286.931C774.689 272.621 774.052 258.401 771.865 244.181C768.144 219.961 759.155 196.783 745.912 176.445C746.633 176.065 747.324 175.607 747.968 175.065L748.286 174.787L748.803 174.319C752.582 170.892 752.256 164.469 748.803 160.998L747.712 159.903C746.332 158.528 745.141 157.439 742.91 155.942C742.581 155.721 742.245 155.513 741.905 155.319C743.072 153.157 743.477 150.629 742.664 147.84C739.83 138.124 725.879 138.468 717.037 142.705C707.255 133.956 696.408 126.361 684.651 120.211C656.649 105.571 624.987 95.3612 594.071 89.1212ZM738.815 345.021C733.586 343.311 726.641 346.901 721.94 349.061C715.983 351.801 710.914 355.851 706.004 360.131C703.559 362.271 703.121 365.771 703.729 368.761C703.79 369.061 703.849 369.371 703.92 369.681C704.568 372.871 708.121 375.381 711.264 375.291C717.84 375.111 720.973 369.421 724.696 364.601C725.134 365.381 725.683 366.101 726.362 366.641L726.821 367.001C728.366 368.18 730.069 369.122 732.11 369.031C733.557 368.961 734.943 368.591 736.221 367.921C739.415 366.231 740.821 362.091 739.953 358.721C739.415 356.601 738.177 354.941 736.561 353.791L737.163 353.378C738.452 352.479 739.628 351.531 740.545 350.132L740.752 349.801L740.672 349.801C741.67 348.081 741.02 345.741 738.815 345.021Z" fill="black"/>
<path fill-rule="evenodd" clip-rule="evenodd" d="M569.037 430.254C561.036 414.254 487.646 421.446 487.646 421.446L481.447 472.304C481.447 472.304 516.858 483.686 537.936 481.301C559.015 478.916 577.039 446.254 569.037 430.254Z" fill="white"/>
<path fill-rule="evenodd" clip-rule="evenodd" d="M563.866 456.967C566.401 451.543 513.935 436.752 497.691 446.859C481.447 456.967 486.526 470.752 486.526 470.752C486.526 470.752 554.849 486.336 563.866 456.967Z" fill="#FF8181"/>
<path fill-rule="evenodd" clip-rule="evenodd" d="M573.588 420.786C561.342 406.556 540.717 405.565 523.632 409.123C512.668 411.407 501.993 415.211 490.857 416.621C485.656 417.28 480.399 417.477 475.16 417.38C470.014 417.285 464.86 416.248 459.732 416.441C458.944 416.47 458.646 417.505 459.329 417.926C466.364 422.247 475.841 423.633 484.151 424.478C484.125 425.093 484.088 425.693 484.003 426.202C483.776 427.559 483.569 428.907 483.402 430.273C483.025 433.354 482.603 436.425 482.182 439.5C481.352 445.552 481.091 451.795 479.632 457.742L479.377 458.73C479.039 459.98 478.962 461.107 479.075 462.123L478.737 461.97L477.67 461.453L476.97 461.122C474.416 459.939 471.979 459.076 468.976 459.364C466.69 459.582 464.771 461.141 464.757 463.582C464.7 474.537 479.464 478.06 487.909 480.157L490.386 480.767C501.135 483.389 512.111 485.687 523.166 486.237C540.908 487.118 560.845 482.224 572.451 467.833C583.28 454.406 585.265 434.354 573.588 420.786ZM493.017 466.814C494.879 450.32 515.147 449.414 520.978 459.873C523.565 445.294 561.841 458.613 558.848 461.511C547.504 472.497 530.289 473.486 515.49 471.454C507.953 470.419 500.41 468.734 493.017 466.814ZM515.511 423.584L520.607 422.851L522.614 422.574C535.246 420.883 549.453 420.009 559.839 428.108C563.631 431.064 565.765 434.92 566.562 439.062C556.735 437.605 546.871 436.494 536.978 435.569L534.279 435.321C528.089 434.763 521.902 434.175 515.718 433.558L511.323 433.113L506.93 432.657C505.384 432.495 494.965 431.962 493.006 432.32C492.797 430.56 492.524 426.751 492.082 425.038C499.484 425.289 506.854 424.739 514.213 423.761L515.511 423.584ZM492.055 349.863C484.503 354.453 472.997 365.156 481.121 376.536C490.683 386.569 504.45 375.065 511.235 369.862C517.526 365.83 524.594 376.201 518.757 380.909C469.733 417.204 449.838 351.064 488.235 344.467C492.463 343.74 494.033 348.443 492.055 349.863ZM478.541 369.2L478.178 369.003L478.055 368.928C477.843 368.791 477.978 368.806 478.461 368.973L478.823 369.103L478.823 369.359C478.73 369.302 478.631 369.259 478.541 369.2ZM575.252 328.42L575.253 328.195C575.239 321.818 571.525 307.258 562.345 307.258C556.61 307.258 553.128 317.167 552.525 327.382L552.504 327.798C552.238 334.149 553.981 348.03 562.345 348.03C570.797 348.03 575.165 334.883 575.252 328.42ZM440.096 326.42L440.095 326.195C440.109 319.818 443.823 305.258 453.003 305.258C458.595 305.258 462.045 314.678 462.772 324.616L462.823 325.382C463.185 331.518 461.555 346.03 453.003 346.03C444.551 346.03 440.183 332.883 440.096 326.42ZM570.014 263.781C562.522 262.642 552.601 264.806 549.108 272.424C547.552 275.818 549.395 279.571 553.318 279.759C562.799 280.213 571.302 278.103 579.624 284.268C583.205 286.922 586.216 290.596 588.743 294.261L589.699 295.655L590.491 296.804C592.207 299.327 593.832 302.067 593.578 305.111C593.503 306.012 594.424 306.867 595.299 306.831C600.753 306.607 601.34 299.769 600.623 295.662C599.289 288.04 595.6 280.885 590.487 275.122C585.117 269.07 578.028 265 570.014 263.781ZM466.825 273.031C461.659 269.71 455.051 268.434 448.999 268.923C437.066 269.884 417.047 280.028 419.682 294.603C420.495 299.098 426.747 301.47 430.431 298.976C434.392 296.295 435.356 292.128 438.304 288.624C440.656 285.825 443.637 283.8 446.829 282.075C449.975 280.374 453.615 279.343 457.185 278.967L457.78 278.91C459.929 278.727 470.781 278.776 469.188 282.827C468.876 283.62 470.056 284.248 470.598 283.648C473.925 279.968 470.157 275.173 466.825 273.031Z" fill="black"/>
<path fill-rule="evenodd" clip-rule="evenodd" d="M391.78 323.778C401.314 388.267 467.867 395.399 479.693 331.377C477.794 330.546 476.43 328.91 476.715 325.734C476.781 311.782 472.451 297.036 459.865 289.277C446.859 281.271 431.638 280.477 416.587 280.679C387.865 279.995 388.469 304.002 391.78 323.778ZM490.112 295.731C499.126 295.351 510.53 295.669 518.605 301.161C520.825 295.183 526.593 288.8 532.421 285.387C510.759 286.021 488.461 283.889 466.637 282.234C471.861 285.795 476.721 291.145 479.88 297.33C482.811 295.767 487.009 295.913 490.112 295.731ZM529.844 330.615C554.839 416.651 617.23 379.151 624.032 368.125C636.301 349.879 638.609 305.525 627.922 293.666C612.624 282.942 590.967 285.702 572.895 285.439C539.694 285.887 516.114 295.819 529.844 330.615ZM362.267 291.044C369.057 290.156 376.315 289.977 382.629 292.967C384.573 284.704 390.676 277.796 397.566 274.756C398.401 273.71 398.276 273.148 401.125 273.305C418.62 268.047 438.197 270.829 455.009 276.221C481.561 278.457 509.418 280.22 536.193 283.301C561.275 272.037 636.968 270.386 641.672 298.149C647.589 297.264 657.666 292.607 662.638 298.924C699.109 292.741 736.794 301.334 773.423 305.161C782.643 306.859 787.392 325.157 776.926 324.907C771.042 323.31 777.107 313.513 769.184 312.776C733.843 308.916 699.275 303.44 663.572 302.799C664.814 308.964 639.958 309.365 639.591 305.765C639.538 305.792 639.482 305.81 639.428 305.834C645.57 328.724 640.026 361.666 628.926 375.86C613.374 394.446 574.329 399.778 557.016 387.82C534.683 376.783 511.45 321.381 517.976 302.975C506.132 299.221 494.423 300.348 482.131 302.26C484.945 310.209 489.803 329.777 482.814 331.474C484.096 370.324 448.74 394.565 416.146 378.628C387.935 365.385 378.069 323.467 381.521 298.024C378.009 304.81 348.521 297.422 362.267 291.044Z" fill="black"/>
</g>
<defs>
<clipPath id="clip0_162_1445">
<rect width="1151.1" height="1151.1" rx="575.552" transform="matrix(-1 -0.000552907 -0.000552907 1 1151.74 0.762695)" fill="white"/>
</clipPath>
</defs>
</svg>
