<svg width="1152" height="1152" viewBox="0 0 1152 1152" fill="none" xmlns="http://www.w3.org/2000/svg">
<g clip-path="url(#clip0_165_3534)">
<rect width="1151.1" height="1151.1" rx="575.552" transform="matrix(-1 -0.000552907 -0.000552907 1 1151.74 0.762695)" fill="#F4CA42"/>
<path fill-rule="evenodd" clip-rule="evenodd" d="M249.121 1194.04C229.795 1193.11 237.568 1159.3 238.955 1146.89C254.256 1101.54 250.659 1052.07 256.677 1004.54C260.426 960.174 265.243 915.944 269.295 871.61C277.253 781.616 334.4 598.413 399.615 568.949C407.831 532.903 441.761 499.255 484.691 499.255C513.971 464.596 549.214 440.203 594.417 445.128C613.097 445.978 631.213 465.79 649.112 469.616C659.134 470.998 748.074 467.441 765.89 478.022C778.3 484.394 789.503 496.169 785.854 511.16C780.032 529.322 798.125 509.67 835.868 529.055C912.831 575.279 866.841 637.115 864.803 639.031C912.831 705.854 954.81 760.066 974.233 841.743C986.821 902.382 985.404 964.981 995.951 1025.93C999.675 1047.07 1005.39 1067.48 1011.57 1088C1018.27 1114.86 1021.53 1181.8 1025.22 1182.4C1031.95 1184.07 1021.33 1197.88 1014.21 1197.89C816.581 1230.68 615.843 1199.25 417.157 1194.12C361.164 1192.17 305.111 1191.72 249.121 1194.04Z" fill="#FFCEAC"/>
<path fill-rule="evenodd" clip-rule="evenodd" d="M648.864 528.458C648.864 549.49 575.833 627.642 550.63 622.486C533.828 619.049 508.441 596.632 474.47 555.237L474.47 528.458L481.807 499.305C440.247 500.77 407.646 533.714 399.615 568.949C335.052 598.118 278.397 777.967 269.549 868.883L269.295 871.61C265.243 915.944 260.426 960.174 256.677 1004.54C250.659 1052.07 254.256 1101.54 238.955 1146.89L238.865 1147.66C237.268 1160.64 230.182 1193.12 249.121 1194.04C305.111 1191.72 361.164 1192.17 417.157 1194.12C615.843 1199.25 816.581 1230.68 1014.21 1197.89C1021.33 1197.88 1031.95 1184.07 1025.22 1182.4C1021.53 1181.8 1018.27 1114.86 1011.57 1088L1010.3 1083.75C1004.61 1064.66 999.418 1045.61 995.951 1025.93C985.404 964.981 986.821 902.382 974.233 841.743C954.81 760.066 912.831 705.854 864.803 639.031C866.841 637.115 912.831 575.278 835.868 529.055C798.125 509.67 780.032 529.322 785.854 511.16C789.503 496.169 778.3 484.394 765.89 478.022C748.074 467.441 659.134 470.998 649.112 469.616C644.456 468.621 639.786 466.544 635.095 464.001L635.909 466.711C644.545 495.657 648.864 516.239 648.864 528.458Z" fill="#6540D5"/>
<path fill-rule="evenodd" clip-rule="evenodd" d="M548.65 644.929C548.558 644.024 547.338 644.026 547.244 644.929L545.849 658.398C544.151 674.848 542.517 691.267 541.332 707.793C539.855 728.402 538.867 749.006 538.391 769.661C536.731 841.598 536.401 913.573 536.261 985.528C526.53 984.854 516.798 984.205 507.061 983.577C500.455 983.151 493.849 982.741 487.241 982.339L470.394 981.317L463.458 980.891C458.771 980.601 453.446 979.421 450.169 983.573C448.857 985.235 448.199 987.395 449.422 989.368C452.243 993.919 456.576 993.76 461.477 993.957C466.101 994.144 470.725 994.327 475.349 994.505C485.258 994.89 495.166 995.253 505.078 995.531C515.48 995.823 525.877 996.06 536.275 996.237C536.38 1026.61 537.637 1056.95 538.996 1087.3L539.611 1100.95C541.274 1137.88 543.063 1174.83 545.604 1211.71C545.813 1214.73 550.084 1214.72 550.291 1211.71C553.153 1170.18 555.041 1128.56 556.913 1086.98C558.271 1056.83 559.061 1026.67 559.437 996.506C560.812 996.515 562.186 996.534 563.56 996.539C602.587 996.709 641.604 996.879 680.631 996.513C680.566 996.59 680.502 996.667 680.459 996.769C677.635 1003.44 677.366 1011.94 677.435 1019.1C677.514 1027.31 678.619 1035.41 680.509 1043.39C687.28 1071.98 704.746 1097.58 724.638 1118.75L725.288 1119.44C729.98 1124.4 735.363 1129.38 738.244 1135.7C741.187 1142.15 742.208 1149.69 743.66 1156.62L743.83 1157.41L749.508 1183.64C751.312 1191.97 751.824 1204.12 758.418 1210.13C764.57 1215.74 772.72 1212.81 775.615 1205.59C777.876 1199.95 775.624 1193.76 774.285 1188.13L763.794 1144.03C762.07 1136.84 760.186 1129.6 756.466 1123.14C752.655 1116.52 747.068 1111.73 741.367 1106.82C730.572 1097.52 720.662 1086.88 712.281 1075.36C703.903 1063.85 696.743 1051.15 691.722 1037.81C689.208 1031.12 687.148 1024.18 685.727 1017.18C684.376 1010.54 684.388 1003.66 682.943 997.094C682.844 996.64 682.461 996.329 682.022 996.191C682.126 995.898 681.967 995.502 681.557 995.476L649.639 993.425C621.268 991.595 592.897 989.718 564.551 987.573L559.542 987.211C559.931 946.966 559.601 906.713 558.874 866.453C558.208 829.534 558.194 792.605 557.096 755.691C556.55 737.37 555.373 719.092 554.063 700.809C552.723 682.111 550.578 663.571 548.65 644.929ZM848.342 858.994C848.682 856.944 846.103 855.674 844.914 857.549C831.323 878.971 824.77 902.24 822.008 927.309C819.568 949.434 820.287 971.878 821.502 994.061C822.798 1017.72 824.31 1041.38 825.839 1065.02L828.188 1101.29L834.083 1192.19C834.505 1198.7 835.981 1204.61 841.58 1207.63C842.289 1208.23 843.028 1208.76 843.889 1209.22C846.914 1210.83 850.926 1210.02 852.675 1206.91L851.974 1207.37C851.363 1207.76 852.049 1207.22 854.032 1205.76L855.715 1203.59C856.938 1201.75 857.719 1199.94 858.033 1197.76C858.521 1194.36 857.889 1190.64 857.667 1187.23L853.803 1127.61C850.798 1081.27 847.289 1034.94 844.644 988.573C843.412 966.963 842.549 945.332 843.133 923.684C843.715 902.156 844.812 880.263 848.342 858.994ZM730.768 459.939L730.014 459.812C703.019 455.328 673.665 456.167 648.994 469.18C648.79 469.287 648.883 469.626 649.112 469.616L657.053 469.299C682.192 468.315 707.253 467.732 731.971 473.638L734.501 474.248C743.403 476.419 752.699 479.077 759.849 484.956C766.683 490.576 770.086 499.245 773.358 507.226L773.796 508.28C777.115 516.162 781.317 523.637 788.594 528.566C798.019 534.949 809.354 534.167 820.161 535.034C839.189 536.563 854.746 550.353 862.486 567.228C867.173 577.446 869.172 588.902 869.568 600.076C869.771 605.765 869.8 611.676 869.042 617.327C868.8 619.134 866.566 625.717 865.427 625.559C862.896 625.208 860.582 626.528 859.793 628.551C853.541 622.511 847.109 616.645 840.47 610.99C823.921 596.897 806.096 584.124 787.324 573.148C772.997 564.77 757.885 556.47 742.236 550.195C743.476 550.169 744.699 550.415 745.882 551.03C746.4 551.301 746.915 550.651 746.506 550.221C741.577 545.035 735.673 544.297 729.721 545.68C728.451 545.276 727.18 544.885 725.904 544.514C725.269 544.329 724.953 545.204 725.471 545.542L726.933 546.476C720.44 548.651 714.065 552.926 709.018 556.3C694.52 565.989 681.759 577.834 668.823 589.457L666.471 591.565C655.084 601.731 643.408 611.611 630.471 619.767C623.699 624.036 616.586 627.985 609.125 630.922C602.726 633.443 592.307 635.03 589.31 641.793C586.646 645.029 587.759 649.159 590.879 651.337C596.141 657.128 606.667 653.387 612.937 650.975C620.496 648.067 627.819 644.572 634.803 640.473C648.362 632.513 660.864 622.616 672.51 612.088C684.673 601.092 696.146 589.411 707.976 578.07C713.102 573.156 718.109 568.127 723.243 563.22L725.821 560.778C728.441 558.321 732.174 554.491 736.165 552.173C743.684 556.658 751.319 560.958 758.77 565.559C769.171 571.981 779.266 578.866 789.205 585.978C808.339 599.669 826.471 615.003 843.304 631.439C874.176 661.581 900.478 696.001 923.455 732.447L925.2 735.225C938.257 756.086 950.604 777.619 959.359 800.669C968.992 826.034 973.677 852.707 976.222 879.632C978.748 906.364 979.6 933.231 982.423 959.938C985.318 987.329 991.022 1014.12 997.51 1040.85L999.057 1047.19C1004.93 1071.13 1010.99 1095.08 1014.01 1119.59C1015.62 1132.68 1016.59 1145.95 1016.37 1159.15C1016.15 1172.42 1014.06 1185.41 1012.38 1198.54C1011.73 1203.57 1016.68 1207.77 1021.12 1208.44C1026.21 1209.2 1030.59 1205.95 1032.17 1201.22C1037.11 1186.46 1038.01 1170.15 1037.85 1154.66C1037.7 1138.94 1035.69 1123.31 1032.87 1107.86C1027.31 1077.46 1018.74 1047.69 1011.57 1017.66C1005.25 991.186 1001.01 964.668 998.725 937.549C996.352 909.413 994.931 881.183 990.602 853.25C986.329 825.674 978.289 799.334 966.164 774.189C955.124 751.295 941.362 729.746 926.934 708.859C909.413 683.496 890.17 659.361 868.66 637.371C870.592 637.287 872.576 636.663 874.398 635.527C879.972 632.05 882.568 625.249 883.366 619.039C885.234 604.512 884.783 589.346 881.047 575.143C875.02 552.231 859.378 531.873 836.708 523.614C830.873 521.488 824.67 520.712 818.486 520.559C812.618 520.413 806.209 521.178 800.547 519.318C791.535 516.356 787.672 505.742 784.288 497.696L784.132 497.326C779.793 487.073 774.585 478.285 765.187 471.883C755.16 465.052 742.598 461.945 730.768 459.939ZM474.271 500.487C466.159 497.673 456.017 500.227 448.084 502.685C439.246 505.425 431.079 510.471 424.077 516.464C416.69 522.784 410.585 530.588 406.272 539.306L405.859 540.146C401.92 548.233 397.433 559.335 399.42 568.219C399.477 568.471 399.542 568.714 399.616 568.949C383.521 576.872 368.657 586.796 355.713 599.374C340.641 614.019 327.879 630.684 317.079 648.688C274.185 720.195 266.635 806.075 261.569 887.624L260.306 908.301C257.555 952.95 254.336 997.493 245.974 1041.53L245.363 1044.7C236.425 1090.81 223.629 1137.26 224.926 1184.56C225.315 1198.73 246.257 1198.63 246.864 1184.56C249.15 1131.58 261.512 1080.44 269.883 1028.29C284.612 936.551 277.232 841.971 298.102 751.149C306.292 715.507 318.979 680.934 337.096 649.119C346.045 633.402 356.284 618.215 368.278 604.656C378.597 592.989 389.322 581.761 401.381 571.953C405.235 575.813 412.934 573.846 414.946 568.219C416.328 564.352 415.925 559.831 416.812 555.78C417.635 552.021 418.77 548.294 420.282 544.754C423.296 537.699 427.72 530.924 432.827 525.214C438.344 519.042 444.685 513.914 451.78 509.68C458.924 505.417 466.737 504.144 474.271 501.029C474.525 500.924 474.549 500.584 474.271 500.487ZM442.754 990.782C442.742 990.41 442.303 990.234 442.033 990.483C439.189 993.1 437.47 996.856 435.377 1000.07C432.963 1003.79 430.428 1007.42 427.77 1010.96C422.444 1018.06 416.515 1024.75 410.539 1031.3C404.981 1037.4 399.057 1043.23 392.912 1048.73C386.254 1054.7 378.793 1060.02 372.744 1066.62C360.122 1080.39 358.083 1099.3 355.42 1117.06L355.128 1118.98C353.504 1129.51 352.049 1140.08 350.737 1150.65C350.099 1155.8 349.463 1160.95 348.943 1166.11L348.784 1167.75C348.321 1172.8 348.196 1177.92 351.096 1182.33C354.201 1187.05 361.26 1188.71 365.457 1184.18C372.668 1176.4 371.316 1162.59 372.254 1152.59C373.029 1144.31 373.908 1136.05 374.892 1127.8L375.393 1123.67C376.553 1114.29 377.495 1104.72 379.642 1095.49C381.535 1087.37 385.142 1081.24 391.06 1075.36C397.022 1069.43 403.217 1063.9 408.72 1057.51C414.557 1050.74 419.822 1043.48 424.566 1035.91C428.624 1029.43 431.876 1022.38 434.856 1015.33L435.35 1014.16C438.23 1007.29 442.979 998.349 442.754 990.782ZM338.642 695.737C338.579 694.779 337.163 694.764 337.142 695.737C336.963 703.977 336.791 712.217 336.62 720.458C335.244 786.86 336.092 853.419 329.43 919.593C326.288 950.794 320.502 981.536 313.807 1012.15C310.381 1027.82 306.787 1043.44 303.372 1059.11C300.044 1074.38 296.475 1089.72 293.835 1105.13C291.241 1120.28 288.917 1135.54 287.875 1150.88L287.746 1152.89C287.297 1160.32 285.154 1171.25 289.246 1177.83C293.68 1184.97 302.169 1185.1 306.92 1178.29C311.381 1171.89 310.272 1160.51 311.06 1152.89C311.861 1145.11 312.708 1137.33 313.67 1129.58C315.547 1114.45 318.02 1099.36 320.592 1084.33C325.949 1053.05 333.719 1022.15 339.454 990.914C345.332 958.905 349.51 926.667 349.686 894.077C349.861 861.21 346.382 828.407 344.626 795.612C342.842 762.304 340.814 729.021 338.642 695.737ZM652.322 489.204C650.539 483.201 644.247 479.448 638.109 481.134C632.484 482.68 627.84 489.507 630.039 495.348C632.439 501.722 636.633 507.157 640.169 512.95C643.435 518.303 648.199 522.518 651.526 527.776L647.86 531.728C646.026 533.7 644.186 535.66 642.326 537.586L635.932 544.209C630.952 549.357 625.94 554.477 620.787 559.447C605.635 574.062 590.243 588.197 573.274 600.713C569.411 603.561 565.518 606.393 561.516 609.045L560.024 610.033C557.278 611.831 554.215 613.598 550.898 613.294C542.839 612.554 535.557 603.994 530.018 598.667L529.728 598.39C516.003 585.331 503.294 571.053 492.183 555.701C489.716 552.29 487.327 548.821 485.001 545.311C490.373 539.036 489.09 526.787 489.386 519.177C489.595 513.826 489.611 508.474 489.64 503.119L489.655 502.039C489.72 498.573 489.877 495.249 487.627 492.397C487.496 492.232 487.225 492.237 487.058 492.324C483.977 493.938 483.028 496.641 481.714 499.673L481.576 499.988C479.976 503.627 478.444 507.3 476.894 510.96C475.271 514.792 473.783 518.68 472.275 522.558C471.573 524.362 470.903 526.173 470.248 527.994C469.849 529.157 469.436 530.314 469.012 531.469L468.912 531.558C468.352 532.033 467.877 532.535 467.468 533.053C465.749 533.913 464.383 535.48 463.742 537.782C462.347 542.793 465.234 546.879 467.809 550.856C478.269 567.016 490.193 582.415 503.447 596.384C510.031 603.324 516.956 609.952 524.166 616.239L525.427 617.33C531.904 622.896 538.935 628.169 547.585 629.471C557.708 630.994 565.946 625.96 573.695 620.161L574.468 619.579C581.814 614.018 589.012 608.262 595.986 602.241C610.205 589.965 623.732 576.784 635.737 562.323C647.415 548.257 658.958 532.529 666.156 515.604C666.595 514.573 665.441 513.494 664.537 514.355C661.021 517.702 657.638 521.231 654.295 524.805C654.202 519.544 655.173 514.238 654.633 508.944C653.974 502.509 654.164 495.4 652.322 489.204Z" fill="#220D0D"/>
<path fill-rule="evenodd" clip-rule="evenodd" d="M410.196 323.499C412.344 304.584 409.564 265.048 409.378 262.646C408.2 247.461 415.3 187.498 428.722 193.023C451.236 175.162 481.224 171.218 509.264 169.334C567.509 165.42 629.47 174.405 674.445 213.685C696.687 234.084 718.341 263.753 716.6 294.645C736.808 323.927 765.297 364.094 740.119 398.327C731.56 409.264 717.957 413.337 707.206 421.62C685.58 439.1 672.012 464.186 650.181 481.562C592.343 533.645 494.134 544.525 437.308 485.285C393.366 442.381 400.471 378.195 408.2 323.499C413.396 286.726 406.005 360.4 410.196 323.499Z" fill="#FFCEAC"/>
<path fill-rule="evenodd" clip-rule="evenodd" d="M587.071 89.1212C571.494 85.9712 555.498 84.0112 539.591 84.6012L538.365 84.6489C526.396 85.1283 511.238 86.1887 500.797 93.1632C500.196 92.5592 499.23 92.2492 498.354 92.6682C485.946 98.6032 472.299 102.894 459.235 107.158C446.23 111.401 432.739 114.202 419.109 115.331C413.981 115.756 409.592 121.305 412.839 126.282C413.611 127.468 414.364 128.666 415.113 129.867C413.86 129.736 412.606 129.601 411.353 129.474C407.229 129.058 403.109 133.469 403.353 137.493C403.506 140.024 403.778 142.525 404.181 144.996C402.611 144.963 401.049 145.199 399.54 145.838C391.9 149.071 392.432 158.19 393.004 165.128C393.796 174.756 397.39 184.954 404.061 192.16C399.08 197.345 395.554 203.537 393.45 210.891C391.924 216.261 391.075 221.981 391.494 227.571L391.628 229.245C392.146 235.311 393.176 242.027 397.531 246.391C399.767 248.641 402.521 249.461 405.146 249.201C403.559 263.181 402.541 277.241 401.583 291.251L401.134 297.947C398.997 330.327 397.391 362.918 397.811 395.351C398.201 425.661 404.177 455.081 422.728 479.691C439.623 502.101 463.881 518.621 491.323 524.901C506.112 528.291 521.21 528.531 536.178 526.371C543.434 525.321 550.737 523.711 557.624 521.171C565.247 518.351 570.725 514.201 575.854 507.981C578.28 505.031 577.113 498.751 572.282 499.341C564.976 500.229 558.306 501.299 551.302 503.464L550.299 503.781C543.323 506.021 536.098 507.691 528.805 508.401C513.865 509.851 498.698 508.391 484.388 503.851C461.087 496.451 441.019 479.961 428.157 459.241C412.889 434.681 411.163 406.801 411.383 378.561C411.619 347.573 412.625 316.566 414.267 285.61L414.546 280.451C415.415 264.521 416.253 248.581 416.99 232.641C417.22 227.641 417.569 222.601 418.199 217.611C423.955 214.231 429.115 209.571 432.477 203.821C439.233 206.621 446.338 208.641 452.875 210.251C468.017 213.983 483.738 214.889 499.15 212.552C503.308 214.273 507.548 215.786 511.853 217.088C513.016 217.605 514.18 218.113 515.342 218.611C525.721 223.061 536.249 226.831 547.205 229.591L549.896 230.264C555.662 231.688 561.925 233.091 568.061 233.531C569.069 233.921 570.156 234.251 571.345 234.541C576.932 235.901 582.731 236.331 588.458 235.851C594.037 235.381 598.068 229.731 594.995 224.441C592.75 220.581 590.483 216.731 588.198 212.891C596.151 216.211 604.364 218.971 612.647 221.311C621.009 223.671 629.491 225.661 637.984 227.491C642.524 228.461 647.084 229.321 651.614 230.291C654.857 230.981 659.837 231.341 662.482 233.481C665.405 235.831 666.233 241.311 667.342 244.691C668.799 249.081 670.166 253.491 671.413 257.951C673.897 266.851 675.933 275.881 677.509 285.001C679.086 294.131 680.145 303.351 680.734 312.601C681.321 321.841 681.063 331.141 682.01 340.341C682.52 345.221 687.748 347.731 691.61 344.321C692.063 343.921 692.519 343.517 692.971 343.108L693.645 342.491C696.949 339.491 700.153 336.311 702.796 332.731C703.275 332.071 703.734 331.381 704.163 330.681C704.233 330.681 704.293 330.661 704.363 330.611L705.096 330.058C713.166 324.039 726.649 316.19 734.519 326.191C737.027 329.377 738.31 333.434 739.376 337.348L741.246 344.352C742.455 348.924 743.593 353.522 744.259 358.201C745.766 368.681 745.008 380.761 737.812 389.161C734.938 392.521 730.976 394.921 726.557 395.551C724.091 395.891 721.656 395.471 719.211 395.161C716.726 394.851 714.333 395.351 711.847 395.111C707.895 394.721 706.169 399.461 707.646 402.441C708.444 404.041 709.383 405.421 710.45 406.591C709.593 407.331 708.773 408.131 707.985 408.971C705.65 409.721 703.555 411.331 701.988 413.461C700.72 415.181 700.063 417.051 699.952 419.021C699.813 419.511 699.693 420.011 699.583 420.521L697.442 424.003C696.971 424.767 696.502 425.521 696.031 426.261C690.583 434.861 684.535 442.141 677.02 449.001C669.786 455.601 661.933 461.511 655.137 468.591L654.336 469.432C648 476.123 641.321 484.222 643.801 493.951C644.439 496.451 647.923 498.251 650.197 496.561C657.512 491.121 661.195 482.501 667.401 475.901C673.788 469.101 680.863 462.991 687.269 456.211C693.327 449.811 698.107 442.561 701.708 434.581C703.146 436.171 705.241 437.301 708.145 437.741C713.134 438.491 717.785 435.561 719.96 431.231C721.358 431.851 722.784 432.411 724.222 432.851C731.786 435.171 736.545 426.741 733.691 420.511C732.165 417.171 730.259 414.271 727.893 411.831C735.288 410.811 742.812 406.981 747.672 402.201C759.865 390.191 761.542 372.141 758.798 356.091C757.341 347.581 754.827 338.971 751.563 330.981C750.995 329.591 750.385 328.191 749.718 326.811C750.087 326.801 750.466 326.641 750.706 326.331C752.911 323.311 755.594 320.841 757.232 317.461C758.739 314.361 760.414 311.221 761.603 307.991C764.046 301.381 765.244 293.921 766.042 286.931C767.689 272.621 767.051 258.401 764.865 244.181C761.144 219.961 752.155 196.783 738.912 176.445C739.633 176.065 740.324 175.607 740.968 175.065L741.286 174.787L741.802 174.319C745.581 170.892 745.255 164.469 741.802 160.998L740.712 159.903C739.331 158.528 738.14 157.439 735.91 155.942C735.581 155.721 735.244 155.513 734.904 155.319C736.072 153.157 736.477 150.629 735.663 147.84C732.829 138.124 718.879 138.468 710.037 142.705C700.254 133.956 689.407 126.361 677.65 120.211C649.648 105.571 617.986 95.3612 587.071 89.1212ZM731.814 345.021C726.585 343.311 719.64 346.901 714.94 349.061C708.983 351.801 703.913 355.851 699.004 360.131C696.559 362.271 696.121 365.771 696.728 368.761C696.789 369.061 696.848 369.371 696.919 369.681C697.568 372.871 701.12 375.381 704.264 375.291C710.84 375.111 713.972 369.421 717.695 364.601C718.133 365.381 718.682 366.101 719.362 366.641L719.82 367.001C721.365 368.18 723.068 369.122 725.109 369.031C726.556 368.961 727.942 368.591 729.221 367.921C732.414 366.231 733.82 362.091 732.953 358.721C732.414 356.601 731.177 354.941 729.56 353.791L730.163 353.378C731.452 352.479 732.628 351.531 733.544 350.132L733.751 349.801L733.671 349.801C734.669 348.081 734.02 345.741 731.814 345.021Z" fill="black"/>
<path fill-rule="evenodd" clip-rule="evenodd" d="M576.67 403.295C565.748 396.718 524.924 401.539 492.856 403.295C467.391 404.689 449.202 401.926 443.38 405.844C430.228 414.697 436.616 457.502 459.28 463.356C481.943 469.21 565.956 477.387 580.442 463.356C594.927 449.326 596.264 415.094 576.67 403.295Z" fill="white"/>
<path fill-rule="evenodd" clip-rule="evenodd" d="M562.523 391.973C545.381 389.892 528.764 395.14 512.006 397.786C503.158 399.182 494.3 400.224 485.346 400.611C483.545 400.69 481.743 400.736 479.941 400.773C479.773 399.187 478.885 397.73 476.961 396.857C473.017 395.069 469.861 394.263 465.532 394.436C461.568 394.592 457.591 395 453.688 395.714C446.601 397.013 439.483 399.962 434.299 405.084C422.302 416.937 424.128 435.977 433.398 448.887C452.55 475.564 487.505 476.803 517.443 476.455L520.206 476.418C547.465 476.029 586.465 480.093 598.849 449.079C603.404 437.674 602.771 424.455 597.195 413.517C590.544 400.47 576.544 393.674 562.523 391.973ZM477.374 436.391L477.619 436.401C490.186 436.885 502.752 437.226 515.327 437.448C514.951 440.678 514.567 443.908 514.128 447.13C513.784 449.666 513.414 452.199 513.03 454.729C512.868 455.8 512.271 457.463 512.44 458.524L512.5 458.944C511.855 459.235 511.269 459.706 510.833 460.388C510.681 460.624 510.572 460.863 510.462 461.1C500.699 461.176 490.192 460.987 480.24 459.213L480.22 458.996C480.039 457.725 479.51 456.869 478.808 456.282C478.108 452.228 478.172 447.907 477.902 443.885C477.733 441.386 477.551 438.889 477.374 436.391ZM524.932 437.62C533.99 437.774 543.053 437.892 552.11 437.782L556.221 437.718C555.353 442.376 554.408 447.019 553.623 451.708C552.804 456.595 557.105 459.702 560.828 459.576C560.41 459.645 559.993 459.716 559.575 459.775C547.943 461.42 535.865 460.983 524.06 460.97C524.696 457.263 524.438 453.081 524.533 449.987L524.551 449.508C524.732 445.543 524.859 441.581 524.932 437.62ZM586.463 436.765C586.149 439.187 585.537 441.557 584.622 443.764C580.755 453.089 571.89 457.44 562.511 459.272C564.138 458.71 565.43 457.36 565.757 455.048C566.57 449.297 566.862 443.452 566.884 437.613C573.421 437.552 580.002 437.412 586.463 436.765ZM443.284 434.774C447.938 435.872 453.347 435.369 457.913 435.576C462.191 435.77 466.471 435.94 470.748 436.113C470.547 439.033 470.35 441.953 470.137 444.871C469.861 448.644 469.835 452.63 469.113 456.387C460.503 453.448 452.789 448.736 447.001 441.202C445.56 439.324 444.268 437.121 443.284 434.774ZM564.489 407.271C572.237 409.106 579.569 412.981 583.509 420.07C585.848 424.277 586.877 429.263 586.68 434.176C580.132 433.414 573.471 433.125 566.842 432.886C566.82 431.692 566.792 430.5 566.756 429.31L566.654 426.26C566.474 420.444 566.383 413.14 564.489 407.271ZM524.39 407.981L527.8 407.598C537.273 406.518 546.741 405.385 556.214 406.035C557.585 406.129 558.977 406.279 560.372 406.483C558.698 412.525 558.839 419.622 558.139 425.603C557.869 427.916 557.527 430.209 557.149 432.494L555.506 432.417C545.341 431.866 535.166 431.528 524.992 431.124C524.993 429.214 524.983 427.303 524.952 425.391L524.915 423.479C524.799 418.595 525.114 413.094 524.39 407.981ZM476.82 407.206C486.742 408.807 496.996 409.148 506.742 409.159C510.634 409.164 514.525 408.925 518.414 408.581C518.16 410.651 518.028 412.746 517.838 414.787C517.454 418.913 517.015 423.033 516.538 427.148L516.113 430.749C503.609 430.182 491.105 429.57 478.604 428.935L476.84 428.84L476.346 421.919C476.009 417.304 475.639 412.69 475.116 408.096L475.508 407.955C475.969 407.766 476.406 407.504 476.82 407.206ZM472.512 408.923C471.965 415.449 471.662 422.001 471.26 428.537L463.019 428.097C461.646 428.022 460.272 427.946 458.899 427.867C453.558 427.559 446.696 425.942 441.416 427.45C441.013 422.651 442.385 417.975 446.717 414.75C454.322 409.087 464.005 411.103 472.512 408.923ZM500.668 350.59C488.396 343.562 457.605 336.379 455.655 358.464C454.759 368.627 462.314 377.048 471.137 380.805L471.468 380.944C479.743 384.346 494.41 388.188 501.571 380.811C507.531 374.671 499.626 363.662 492.22 368.692C488.414 371.276 480.403 369.372 476.156 368.142L475.89 368.065C471.307 366.718 465.197 362.407 467.092 356.764C468.769 351.772 475.905 350.86 480.374 350.698C487.045 350.459 493.537 352.008 500.147 352.512C501.194 352.592 501.517 351.076 500.668 350.59ZM449.833 315.077C433.177 314.297 422.816 332.483 426.646 347.384C427.308 349.955 430.184 352.479 432.96 352.19L433.66 352.126C434.015 352.092 434.372 352.047 434.7 351.956C437.336 351.226 439.699 348.484 439.507 345.642L439.456 344.814C439.068 337.775 439.831 329.665 448.196 327.96C455.291 326.514 459.252 333.343 459.336 339.629C459.352 340.745 460.606 341.524 461.593 340.924C466.722 337.803 467.61 331.594 465.651 326.247C463.168 319.472 456.954 315.41 449.833 315.077ZM573.436 318.978C561.315 314.934 548.238 321.395 542.369 332.111C540.31 332.707 538.254 334.294 538.54 336.724C538.953 340.22 539.575 342.424 541.999 345.075C545.791 349.222 552.892 347.101 554.468 341.996L554.534 341.766C556.324 335.167 563.588 330.813 570.205 333.123C577.935 335.821 577.711 343.985 583.133 348.741C583.77 349.3 584.534 349.389 585.298 349.02C591.057 346.237 590.022 337.861 587.969 333.067C585.276 326.776 580.042 321.181 573.436 318.978ZM589.944 282.17C580.122 272.148 554.51 262.45 547.791 280.957C546.511 284.482 549.236 289.235 552.906 289.966C558.916 291.162 564.248 288.553 570.218 289.021C575.051 289.402 580.092 291.017 583.956 294.011C594.658 302.303 597.012 316.328 604.469 326.882C604.832 327.396 605.537 327.18 605.604 326.574C607.302 311.209 600.702 293.146 589.944 282.17ZM461.849 272.304C455.331 270.002 447.95 270.199 441.398 272.241C434.798 274.299 428.739 278.207 424.071 283.313C421.953 285.631 419.993 288.189 418.421 290.912C417.586 292.355 416.708 295.336 415.759 297.111C410.624 300.076 408.43 306.831 413.027 311.637L413.234 311.847L413.849 312.457C416.32 314.903 420.046 315.963 423.419 314.986C430.967 312.802 431.884 306.857 434.497 300.547C436.223 296.379 439.18 292.691 442.765 289.982C451.238 283.582 465.131 281.543 475.332 284.559C475.875 284.72 476.513 284.028 476.126 283.526C474.193 281.022 473.079 278.967 470.491 276.947C467.864 274.897 464.997 273.416 461.849 272.304Z" fill="black"/>
<path fill-rule="evenodd" clip-rule="evenodd" d="M384.779 323.778C394.313 388.267 460.867 395.399 472.692 331.377C470.794 330.546 469.429 328.91 469.714 325.734C469.781 311.782 465.45 297.036 452.864 289.277C439.858 281.271 424.637 280.477 409.586 280.679C380.864 279.995 381.468 304.002 384.779 323.778ZM483.111 295.731C492.125 295.351 503.529 295.669 511.604 301.161C513.824 295.183 519.592 288.8 525.42 285.387C503.758 286.021 481.46 283.889 459.636 282.234C464.86 285.795 469.72 291.145 472.879 297.33C475.81 295.767 480.008 295.913 483.111 295.731ZM522.843 330.615C547.838 416.651 610.229 379.151 617.031 368.125C629.3 349.879 631.608 305.525 620.921 293.666C605.623 282.942 583.966 285.702 565.894 285.439C532.693 285.887 509.113 295.819 522.843 330.615ZM355.266 291.044C362.057 290.156 369.314 289.977 375.628 292.967C377.572 284.704 383.675 277.796 390.566 274.756C391.4 273.71 391.275 273.148 394.124 273.305C411.619 268.047 431.196 270.829 448.008 276.221C474.56 278.457 502.417 280.22 529.192 283.301C554.274 272.037 629.967 270.386 634.671 298.149C640.588 297.264 650.665 292.607 655.637 298.924C692.108 292.741 729.793 301.334 766.422 305.161C775.642 306.859 780.391 325.157 769.925 324.907C764.041 323.31 770.106 313.513 762.183 312.776C726.842 308.916 692.274 303.44 656.571 302.799C657.813 308.964 632.957 309.365 632.59 305.765C632.537 305.792 632.481 305.81 632.427 305.834C638.569 328.724 633.025 361.666 621.925 375.86C606.373 394.446 567.328 399.778 550.015 387.82C527.682 376.783 504.449 321.381 510.975 302.975C499.131 299.221 487.422 300.348 475.13 302.26C477.944 310.209 482.802 329.777 475.813 331.474C477.096 370.324 441.739 394.565 409.145 378.628C380.934 365.385 371.068 323.467 374.52 298.024C371.008 304.81 341.52 297.422 355.266 291.044Z" fill="black"/>
</g>
<defs>
<clipPath id="clip0_165_3534">
<rect width="1151.1" height="1151.1" rx="575.552" transform="matrix(-1 -0.000552907 -0.000552907 1 1151.74 0.762695)" fill="white"/>
</clipPath>
</defs>
</svg>
