<svg width="34" height="51" viewBox="0 0 34 51" fill="none" xmlns="http://www.w3.org/2000/svg">
<path d="M0 42.4691C0 37.8668 3.731 34.1358 8.33333 34.1358H16.6667V42.4691C16.6667 47.0715 12.9357 50.8025 8.33333 50.8025C3.731 50.8025 0 47.0715 0 42.4691Z" fill="#24CB71"/>
<path d="M16.6667 0.80249V17.4692H25.0001C29.6024 17.4692 33.3334 13.7382 33.3334 9.13582C33.3334 4.53349 29.6024 0.80249 25.0001 0.80249H16.6667Z" fill="#FF7237"/>
<path d="M24.9307 34.1358C29.5331 34.1358 33.2641 30.4049 33.2641 25.8025C33.2641 21.2001 29.5331 17.4692 24.9307 17.4692C20.3284 17.4692 16.5974 21.2001 16.5974 25.8025C16.5974 30.4049 20.3284 34.1358 24.9307 34.1358Z" fill="#00B6FF"/>
<path d="M0 9.13582C0 13.7382 3.731 17.4692 8.33333 17.4692H16.6667V0.80249H8.33333C3.731 0.80249 0 4.53349 0 9.13582Z" fill="#FF3737"/>
<path d="M0 25.8025C0 30.4048 3.731 34.1358 8.33333 34.1358H16.6667V17.4692H8.33333C3.731 17.4692 0 21.2002 0 25.8025Z" fill="#874FFF"/>
</svg>
