<svg width="51" height="50" viewBox="0 0 51 50" fill="none" xmlns="http://www.w3.org/2000/svg">
<path d="M9.18742 0.42749H41.4791C46.3749 0.42749 50.3333 4.38582 50.3333 9.28166V40.3233C50.3333 45.2192 46.3749 49.1775 41.4791 49.1775H9.18742C4.29159 49.1775 0.333252 45.2192 0.333252 40.3233V9.28166C0.333252 4.38582 4.29159 0.42749 9.18742 0.42749Z" fill="#330000"/>
<path d="M24.4999 29.5942H16.7499L15.1665 34.49C15.1249 34.6775 14.9582 34.8025 14.7707 34.7817H10.854C10.6249 34.7817 10.5624 34.6567 10.6249 34.4067L17.3332 15.0942C17.3957 14.8858 17.4582 14.6567 17.5415 14.4067C17.6249 13.9692 17.6665 13.5108 17.6665 13.0525C17.6457 12.9483 17.729 12.8442 17.8332 12.8233H23.229C23.3957 12.8233 23.479 12.8858 23.4999 12.99L31.104 34.4483C31.1665 34.6775 31.104 34.7817 30.8957 34.7817H26.5415C26.3957 34.8025 26.2499 34.6983 26.2082 34.5525L24.4999 29.5942ZM17.9582 25.365H23.2499C23.1249 24.9275 22.9582 24.4067 22.7707 23.865C22.5832 23.3025 22.3957 22.6983 22.2082 22.0733C21.9999 21.4275 21.8124 20.8025 21.604 20.1567C21.3957 19.5108 21.2082 18.9067 21.0415 18.3025C20.8749 17.7192 20.729 17.1775 20.5832 16.6775H20.5415C20.354 17.5733 20.1249 18.4692 19.8332 19.365C19.5207 20.365 19.2082 21.4067 18.8749 22.4483C18.5832 23.5108 18.2707 24.49 17.9582 25.365ZM35.7499 16.4692C35.0624 16.49 34.3957 16.2192 33.8957 15.74C33.4165 15.2192 33.1665 14.5317 33.1874 13.8233C33.1665 13.115 33.4374 12.4483 33.9374 11.9692C34.4374 11.49 35.104 11.24 35.7915 11.24C36.604 11.24 37.229 11.49 37.6874 11.9692C38.1457 12.4692 38.3957 13.1358 38.3749 13.8233C38.3957 14.5317 38.1457 15.2192 37.6457 15.74C37.1665 16.24 36.4582 16.5108 35.7499 16.4692ZM33.4165 34.5525V18.5108C33.4165 18.3025 33.4999 18.2192 33.6874 18.2192H37.8124C37.9999 18.2192 38.0832 18.3233 38.0832 18.5108V34.5525C38.0832 34.7817 37.9999 34.8858 37.8124 34.8858H33.729C33.5207 34.8858 33.4165 34.7608 33.4165 34.5525Z" fill="#FF9A00"/>
</svg>
