<svg width="51" height="50" viewBox="0 0 51 50" fill="none" xmlns="http://www.w3.org/2000/svg">
<path d="M9.18742 0.42749H41.4791C46.3749 0.42749 50.3333 4.38582 50.3333 9.28166V40.3233C50.3333 45.2192 46.3749 49.1775 41.4791 49.1775H9.18742C4.29159 49.1775 0.333252 45.2192 0.333252 40.3233V9.28166C0.333252 4.38582 4.29159 0.42749 9.18742 0.42749Z" fill="#470137"/>
<path d="M26.6246 13.24L20.3746 23.5525L27.0413 34.49C27.083 34.5733 27.1038 34.6567 27.083 34.74C27.0621 34.8233 26.9788 34.7608 26.8538 34.7817H22.083C21.7496 34.7817 21.5205 34.7608 21.3746 34.5525C20.9371 33.6775 20.4788 32.8233 20.0413 31.9483C19.6038 31.0942 19.1246 30.2192 18.6246 29.3233C18.1246 28.4275 17.6246 27.5317 17.1246 26.615H17.083C16.6455 27.5108 16.1663 28.4067 15.6871 29.3025C15.208 30.1983 14.7288 31.0942 14.2705 31.9692C13.7913 32.8442 13.3121 33.74 12.833 34.5942C12.7496 34.8025 12.583 34.8233 12.3538 34.8233H7.77046C7.68713 34.8233 7.62463 34.865 7.62463 34.7608C7.60379 34.6775 7.62463 34.5942 7.66629 34.5317L14.1455 23.9067L7.83296 13.2192C7.77046 13.1358 7.74963 13.0525 7.79129 13.0108C7.83296 12.9483 7.91629 12.9275 7.99963 12.9275H12.7288C12.833 12.9275 12.9371 12.9483 13.0205 12.9692C13.1038 13.0108 13.1663 13.0733 13.2288 13.1567C13.6246 14.0525 14.083 14.9483 14.5621 15.8442C15.0621 16.74 15.5413 17.615 16.0621 18.49C16.5621 19.365 17.0205 20.24 17.458 21.1358H17.4996C17.9371 20.2192 18.3955 19.3233 18.8538 18.4483C19.3121 17.5733 19.7913 16.6983 20.2705 15.8233C20.7496 14.9483 21.208 14.0525 21.6663 13.1983C21.6871 13.115 21.7288 13.0317 21.7913 12.99C21.8746 12.9483 21.958 12.9275 22.0621 12.9483H26.458C26.5621 12.9275 26.6663 12.99 26.6871 13.0942C26.708 13.115 26.6663 13.1983 26.6246 13.24Z" fill="#FF61F6"/>
<path d="M36.2496 35.2192C34.708 35.24 33.1663 34.9275 31.7705 34.2817C30.458 33.6775 29.3746 32.6775 28.6246 31.4483C27.8538 30.1775 27.4788 28.5942 27.4788 26.6983C27.458 25.1567 27.8538 23.6358 28.6246 22.3025C29.4163 20.9483 30.5621 19.8233 31.9371 19.0733C33.3955 18.2608 35.1455 17.865 37.208 17.865C37.3121 17.865 37.458 17.865 37.6455 17.8858C37.833 17.9067 38.0413 17.9067 38.2913 17.9275V11.3442C38.2913 11.1983 38.3538 11.115 38.4996 11.115H42.7288C42.833 11.0942 42.9163 11.1775 42.9371 11.2608C42.9371 11.2817 42.9371 11.3025 42.9371 11.3025V31.1358C42.9371 31.5108 42.958 31.9275 42.9788 32.3858C43.0205 32.8233 43.0413 33.24 43.0621 33.5942C43.0621 33.74 42.9996 33.865 42.8538 33.9275C41.7705 34.3858 40.6246 34.7192 39.458 34.9275C38.3955 35.115 37.333 35.2192 36.2496 35.2192ZM38.2913 31.0525V21.8858C38.1038 21.8442 37.9163 21.8025 37.7288 21.7817C37.4996 21.7608 37.2705 21.74 37.0413 21.74C36.2288 21.74 35.4163 21.9067 34.6871 22.2817C33.9788 22.6358 33.3746 23.1567 32.9163 23.8233C32.458 24.49 32.2288 25.3858 32.2288 26.4692C32.208 27.1983 32.333 27.9275 32.583 28.615C32.7913 29.1775 33.1038 29.6775 33.5205 30.0942C33.9163 30.4692 34.3955 30.7608 34.9371 30.9275C35.4996 31.115 36.083 31.1983 36.6663 31.1983C36.9788 31.1983 37.2705 31.1775 37.5413 31.1567C37.8121 31.1775 38.0413 31.1358 38.2913 31.0525Z" fill="#FF61F6"/>
</svg>
